<?xml version="1.0" encoding="utf-8" standalone="no"?>
<!DOCTYPE svg PUBLIC "-//W3C//DTD SVG 1.1//EN"
  "http://www.w3.org/Graphics/SVG/1.1/DTD/svg11.dtd">
<svg xmlns:xlink="http://www.w3.org/1999/xlink" width="144pt" height="90pt" viewBox="0 0 144 90" xmlns="http://www.w3.org/2000/svg" version="1.1">
 <metadata>
  <rdf:RDF xmlns:dc="http://purl.org/dc/elements/1.1/" xmlns:cc="http://creativecommons.org/ns#" xmlns:rdf="http://www.w3.org/1999/02/22-rdf-syntax-ns#">
   <cc:Work>
    <dc:type rdf:resource="http://purl.org/dc/dcmitype/StillImage"/>
    <dc:date>2024-08-26T15:46:57.692909</dc:date>
    <dc:format>image/svg+xml</dc:format>
    <dc:creator>
     <cc:Agent>
      <dc:title>Matplotlib v3.7.3, https://matplotlib.org/</dc:title>
     </cc:Agent>
    </dc:creator>
   </cc:Work>
  </rdf:RDF>
 </metadata>
 <defs>
  <style type="text/css">*{stroke-linejoin: round; stroke-linecap: butt}</style>
 </defs>
 <g id="figure_1">
  <g id="patch_1">
   <path d="M 0 90 
L 144 90 
L 144 0 
L 0 0 
z
" style="fill: #ffffff"/>
  </g>
  <g id="axes_1">
   <g id="patch_2">
    <path d="M 18 80.1 
L 129.6 80.1 
L 129.6 10.8 
L 18 10.8 
z
" style="fill: #ffffff"/>
   </g>
   <g id="line2d_1">
    <path d="M 23.072727 70.769982 
L 24.087273 70.892354 
L 25.101818 71.245124 
L 26.319273 71.914458 
L 28.246909 73.276587 
L 30.681818 74.943642 
L 32.305091 75.770464 
L 33.826909 76.296804 
L 35.551636 76.650152 
L 37.783636 76.857789 
L 41.537455 76.941799 
L 62.437091 76.95 
L 124.527273 76.95 
L 124.527273 76.95 
" clip-path="url(#p4108e8faa7)" style="fill: none; stroke: #440154; stroke-width: 1.5; stroke-linecap: square"/>
   </g>
   <g id="line2d_2">
    <path d="M 23.072727 69.970701 
L 24.898909 66.37864 
L 26.826545 62.713414 
L 27.841091 61.237104 
L 28.652727 60.429284 
L 29.362909 60.047158 
L 29.971636 59.979411 
L 30.580364 60.154991 
L 31.189091 60.566384 
L 31.899273 61.320683 
L 32.812364 62.657307 
L 34.029818 64.886933 
L 37.580727 71.656489 
L 38.798182 73.38458 
L 39.914182 74.590582 
L 41.030182 75.462423 
L 42.146182 76.056419 
L 43.465091 76.490332 
L 45.088364 76.765145 
L 47.421818 76.908292 
L 52.900364 76.949449 
L 124.527273 76.95 
L 124.527273 76.95 
" clip-path="url(#p4108e8faa7)" style="fill: none; stroke: #48186a; stroke-width: 1.5; stroke-linecap: square"/>
   </g>
   <g id="line2d_3">
    <path d="M 23.072727 75.908492 
L 23.985818 75.293893 
L 24.898909 74.40057 
L 25.812 73.150499 
L 26.725091 71.468001 
L 27.638182 69.29262 
L 28.652727 66.263266 
L 29.870182 61.827205 
L 31.594909 54.540839 
L 33.522545 46.618002 
L 34.537091 43.383232 
L 35.247273 41.76324 
L 35.856 40.879698 
L 36.363273 40.529328 
L 36.769091 40.509898 
L 37.174909 40.723054 
L 37.682182 41.309955 
L 38.290909 42.459985 
L 39.001091 44.353556 
L 39.914182 47.496781 
L 41.334545 53.36361 
L 43.870909 63.897193 
L 45.088364 67.959188 
L 46.102909 70.643779 
L 47.117455 72.700209 
L 48.030545 74.070923 
L 48.943636 75.061713 
L 49.856727 75.751022 
L 50.871273 76.253158 
L 52.088727 76.60534 
L 53.712 76.826741 
L 56.349818 76.931367 
L 65.683636 76.949997 
L 124.527273 76.95 
L 124.527273 76.95 
" clip-path="url(#p4108e8faa7)" style="fill: none; stroke: #472d7b; stroke-width: 1.5; stroke-linecap: square"/>
   </g>
   <g id="line2d_4">
    <path d="M 23.072727 76.94132 
L 27.029455 76.804988 
L 28.754182 76.540958 
L 30.073091 76.113841 
L 31.087636 75.565881 
L 32.102182 74.748666 
L 33.015273 73.72006 
L 33.928364 72.361911 
L 34.942909 70.426157 
L 36.058909 67.775172 
L 37.479273 63.746741 
L 40.522909 54.830409 
L 41.436 52.877655 
L 42.146182 51.809913 
L 42.754909 51.26098 
L 43.262182 51.080526 
L 43.769455 51.158018 
L 44.276727 51.491143 
L 44.885455 52.213901 
L 45.595636 53.46261 
L 46.508727 55.599745 
L 47.827636 59.38227 
L 50.769818 68.037421 
L 51.987273 70.850153 
L 53.001818 72.694281 
L 54.016364 74.097306 
L 55.030909 75.112761 
L 56.045455 75.813147 
L 57.161455 76.309775 
L 58.480364 76.644845 
L 60.306545 76.852171 
L 63.451636 76.939822 
L 79.278545 76.95 
L 124.527273 76.95 
L 124.527273 76.95 
" clip-path="url(#p4108e8faa7)" style="fill: none; stroke: #424086; stroke-width: 1.5; stroke-linecap: square"/>
   </g>
   <g id="line2d_5">
    <path d="M 23.072727 76.949974 
L 32.710909 76.843528 
L 34.537091 76.606535 
L 35.856 76.211699 
L 36.870545 75.679687 
L 37.783636 74.949367 
L 38.595273 74.03463 
L 39.406909 72.80903 
L 40.32 70.989645 
L 41.233091 68.644399 
L 42.247636 65.389469 
L 43.465091 60.642962 
L 45.291273 52.42736 
L 47.016 44.943785 
L 48.030545 41.48321 
L 48.740727 39.736804 
L 49.349455 38.771847 
L 49.856727 38.375294 
L 50.262545 38.334126 
L 50.668364 38.539529 
L 51.074182 38.987578 
L 51.581455 39.875474 
L 52.190182 41.386135 
L 53.001818 44.050303 
L 54.117818 48.600858 
L 58.074545 65.627445 
L 59.190545 69.120254 
L 60.205091 71.581241 
L 61.118182 73.255679 
L 62.031273 74.488929 
L 62.944364 75.36276 
L 63.958909 76.011372 
L 65.074909 76.44712 
L 66.495273 76.738106 
L 68.524364 76.896192 
L 72.886909 76.948357 
L 124.527273 76.95 
L 124.527273 76.95 
" clip-path="url(#p4108e8faa7)" style="fill: none; stroke: #3b528b; stroke-width: 1.5; stroke-linecap: square"/>
   </g>
   <g id="line2d_6">
    <path d="M 23.072727 76.95 
L 40.117091 76.841445 
L 42.044727 76.595189 
L 43.363636 76.215845 
L 44.479636 75.661561 
L 45.494182 74.88988 
L 46.407273 73.912714 
L 47.320364 72.614815 
L 48.334909 70.752799 
L 49.450909 68.183265 
L 50.769818 64.54006 
L 54.320727 54.345152 
L 55.233818 52.584593 
L 55.944 51.693142 
L 56.451273 51.345595 
L 56.958545 51.25154 
L 57.465818 51.413783 
L 57.973091 51.827486 
L 58.581818 52.638138 
L 59.292 53.972908 
L 60.205091 56.188554 
L 61.625455 60.324055 
L 64.161818 67.749133 
L 65.379273 70.612415 
L 66.495273 72.669095 
L 67.509818 74.076595 
L 68.524364 75.096953 
L 69.538909 75.801836 
L 70.654909 76.302456 
L 71.973818 76.640821 
L 73.8 76.850643 
L 76.945091 76.93962 
L 92.467636 76.95 
L 124.527273 76.95 
L 124.527273 76.95 
" clip-path="url(#p4108e8faa7)" style="fill: none; stroke: #33638d; stroke-width: 1.5; stroke-linecap: square"/>
   </g>
   <g id="line2d_7">
    <path d="M 23.072727 76.95 
L 46.001455 76.843111 
L 47.827636 76.599349 
L 49.045091 76.229612 
L 50.059636 75.69387 
L 50.972727 74.947823 
L 51.784364 74.001091 
L 52.596 72.716474 
L 53.407636 71.025862 
L 54.320727 68.565077 
L 55.233818 65.460481 
L 56.349818 60.791678 
L 57.668727 54.23478 
L 60.915273 37.563024 
L 61.828364 34.23991 
L 62.538545 32.470198 
L 63.045818 31.707578 
L 63.451636 31.417098 
L 63.857455 31.417098 
L 64.263273 31.707578 
L 64.669091 32.28299 
L 65.176364 33.385823 
L 65.886545 35.584997 
L 66.698182 38.887285 
L 67.915636 44.927615 
L 71.263636 62.1558 
L 72.379636 66.568398 
L 73.394182 69.735916 
L 74.307273 71.925956 
L 75.220364 73.562693 
L 76.133455 74.739021 
L 77.046545 75.552849 
L 78.061091 76.1423 
L 79.177091 76.527922 
L 80.597455 76.777708 
L 82.829455 76.914026 
L 88.409455 76.949693 
L 124.527273 76.95 
L 124.527273 76.95 
" clip-path="url(#p4108e8faa7)" style="fill: none; stroke: #2c728e; stroke-width: 1.5; stroke-linecap: square"/>
   </g>
   <g id="line2d_8">
    <path d="M 23.072727 76.95 
L 53.509091 76.841033 
L 55.436727 76.590215 
L 56.755636 76.200374 
L 57.871636 75.626669 
L 58.784727 74.917732 
L 59.697818 73.928503 
L 60.610909 72.600972 
L 61.524 70.889742 
L 62.538545 68.514753 
L 63.756 65.051421 
L 65.582182 59.056831 
L 67.306909 53.596372 
L 68.321455 51.071331 
L 69.031636 49.79705 
L 69.640364 49.092961 
L 70.147636 48.803612 
L 70.654909 48.794229 
L 71.162182 49.06509 
L 71.669455 49.608136 
L 72.278182 50.596028 
L 73.089818 52.413732 
L 74.104364 55.304036 
L 76.032 61.670903 
L 77.756727 67.051146 
L 78.974182 70.153424 
L 79.988727 72.195528 
L 81.003273 73.754472 
L 82.017818 74.886468 
L 83.032364 75.669711 
L 84.148364 76.226881 
L 85.365818 76.583069 
L 86.989091 76.814219 
L 89.626909 76.928303 
L 98.047636 76.94999 
L 124.527273 76.95 
L 124.527273 76.95 
" clip-path="url(#p4108e8faa7)" style="fill: none; stroke: #26828e; stroke-width: 1.5; stroke-linecap: square"/>
   </g>
   <g id="line2d_9">
    <path d="M 23.072727 76.95 
L 59.799273 76.839282 
L 61.625455 76.593694 
L 62.842909 76.227303 
L 63.857455 75.703215 
L 64.770545 74.981703 
L 65.582182 74.075625 
L 66.393818 72.85854 
L 67.306909 71.046757 
L 68.22 68.704217 
L 69.234545 65.442083 
L 70.452 60.665149 
L 72.176727 52.818889 
L 74.104364 44.287251 
L 75.118909 40.803917 
L 75.829091 39.059443 
L 76.437818 38.108008 
L 76.945091 37.730715 
L 77.350909 37.709792 
L 77.756727 37.939327 
L 78.264 38.571326 
L 78.872727 39.809726 
L 79.582909 41.848802 
L 80.496 45.233556 
L 81.916364 51.5512 
L 84.452727 62.894198 
L 85.670182 67.268322 
L 86.684727 70.159201 
L 87.699273 72.373649 
L 88.612364 73.849691 
L 89.525455 74.916615 
L 90.438545 75.65889 
L 91.453091 76.199612 
L 92.670545 76.578856 
L 94.192364 76.808034 
L 96.627273 76.9247 
L 103.932 76.949964 
L 124.527273 76.95 
L 124.527273 76.95 
" clip-path="url(#p4108e8faa7)" style="fill: none; stroke: #21918c; stroke-width: 1.5; stroke-linecap: square"/>
   </g>
   <g id="line2d_10">
    <path d="M 23.072727 76.95 
L 66.495273 76.843565 
L 68.321455 76.60583 
L 69.640364 76.208901 
L 70.654909 75.673172 
L 71.568 74.936692 
L 72.379636 74.013028 
L 73.191273 72.773894 
L 74.104364 70.931854 
L 75.017455 68.5538 
L 76.032 65.247772 
L 77.249455 60.416656 
L 79.075636 52.027296 
L 80.901818 43.947636 
L 81.814909 40.774604 
L 82.525091 38.957863 
L 83.133818 37.941514 
L 83.641091 37.510052 
L 84.046909 37.446898 
L 84.452727 37.636058 
L 84.858545 38.073918 
L 85.365818 38.957863 
L 85.974545 40.476747 
L 86.786182 43.17303 
L 87.902182 47.802207 
L 91.960364 65.609513 
L 93.076364 69.130824 
L 94.090909 71.602767 
L 95.004 73.279312 
L 95.917091 74.510534 
L 96.830182 75.380465 
L 97.844727 76.024315 
L 98.960727 76.455506 
L 100.381091 76.742416 
L 102.410182 76.897567 
L 106.772727 76.948417 
L 124.527273 76.95 
L 124.527273 76.95 
" clip-path="url(#p4108e8faa7)" style="fill: none; stroke: #1fa088; stroke-width: 1.5; stroke-linecap: square"/>
   </g>
   <g id="line2d_11">
    <path d="M 23.072727 76.95 
L 72.582545 76.843669 
L 74.307273 76.611782 
L 75.524727 76.235995 
L 76.539273 75.676459 
L 77.350909 74.98413 
L 78.162545 73.992134 
L 78.974182 72.612052 
L 79.785818 70.74885 
L 80.597455 68.309434 
L 81.510545 64.778854 
L 82.423636 60.352235 
L 83.539636 53.74422 
L 84.96 43.80358 
L 87.800727 23.497073 
L 88.713818 18.63838 
L 89.424 15.938153 
L 89.931273 14.68488 
L 90.337091 14.117776 
L 90.641455 13.9542 
L 90.945818 14.017164 
L 91.250182 14.30599 
L 91.656 15.036718 
L 92.163273 16.484796 
L 92.772 18.948547 
L 93.583636 23.293566 
L 94.699636 30.715109 
L 98.656364 58.483935 
L 99.772364 64.180391 
L 100.786909 68.194039 
L 101.7 70.924896 
L 102.613091 72.936215 
L 103.424727 74.227725 
L 104.236364 75.150333 
L 105.149455 75.854291 
L 106.164 76.342214 
L 107.381455 76.665759 
L 109.106182 76.862244 
L 112.251273 76.942357 
L 124.527273 76.95 
L 124.527273 76.95 
" clip-path="url(#p4108e8faa7)" style="fill: none; stroke: #28ae80; stroke-width: 1.5; stroke-linecap: square"/>
   </g>
   <g id="line2d_12">
    <path d="M 23.072727 76.95 
L 79.481455 76.84194 
L 81.206182 76.609384 
L 82.423636 76.235519 
L 83.438182 75.682388 
L 84.249818 75.001613 
L 85.061455 74.030921 
L 85.873091 72.687163 
L 86.684727 70.882167 
L 87.496364 68.531192 
L 88.409455 65.148009 
L 89.424 60.412978 
L 90.54 54.065306 
L 92.061818 43.984278 
L 94.395273 28.509563 
L 95.308364 23.788473 
L 96.018545 21.066549 
L 96.627273 19.525658 
L 97.033091 18.9408 
L 97.438909 18.723828 
L 97.743273 18.805287 
L 98.047636 19.095285 
L 98.453455 19.800635 
L 98.960727 21.174486 
L 99.569455 23.489934 
L 100.381091 27.547471 
L 101.497091 34.443021 
L 105.352364 59.524495 
L 106.468364 64.864558 
L 107.482909 68.641036 
L 108.396 71.218743 
L 109.309091 73.122794 
L 110.120727 74.348725 
L 111.033818 75.316048 
L 111.946909 75.956378 
L 112.961455 76.399575 
L 114.280364 76.709427 
L 116.106545 76.881597 
L 119.758909 76.946251 
L 124.527273 76.949961 
L 124.527273 76.949961 
" clip-path="url(#p4108e8faa7)" style="fill: none; stroke: #3fbc73; stroke-width: 1.5; stroke-linecap: square"/>
   </g>
   <g id="line2d_13">
    <path d="M 23.072727 76.95 
L 86.684727 76.843233 
L 88.510909 76.602262 
L 89.728364 76.239017 
L 90.742909 75.71522 
L 91.656 74.988924 
L 92.467636 74.070856 
L 93.279273 72.829836 
L 94.090909 71.202913 
L 95.004 68.844903 
L 96.018545 65.517124 
L 97.134545 61.012209 
L 98.554909 54.269783 
L 101.294182 41.058767 
L 102.207273 37.74936 
L 102.917455 35.895803 
L 103.526182 34.898584 
L 103.932 34.560823 
L 104.337818 34.492946 
L 104.743636 34.696252 
L 105.149455 35.166854 
L 105.656727 36.116899 
L 106.265455 37.74936 
L 107.077091 40.647266 
L 108.193091 45.622602 
L 112.251273 64.761498 
L 113.367273 68.546124 
L 114.381818 71.202913 
L 115.294909 73.004826 
L 116.208 74.328116 
L 117.121091 75.263099 
L 118.034182 75.899262 
L 119.048727 76.352205 
L 120.367636 76.679506 
L 122.193818 76.869307 
L 124.527273 76.935754 
L 124.527273 76.935754 
" clip-path="url(#p4108e8faa7)" style="fill: none; stroke: #5ec962; stroke-width: 1.5; stroke-linecap: square"/>
   </g>
   <g id="line2d_14">
    <path d="M 23.072727 76.95 
L 95.511273 76.845098 
L 97.641818 76.603727 
L 99.163636 76.220597 
L 100.482545 75.656518 
L 101.7 74.882919 
L 102.917455 73.831546 
L 104.236364 72.387804 
L 106.265455 69.771162 
L 108.091636 67.534686 
L 109.106182 66.599817 
L 110.019273 66.058266 
L 110.729455 65.868569 
L 111.439636 65.894395 
L 112.149818 66.134242 
L 112.961455 66.652125 
L 113.976 67.607217 
L 115.294909 69.195519 
L 118.642909 73.383193 
L 119.961818 74.619373 
L 121.179273 75.468082 
L 122.396727 76.06047 
L 123.817091 76.49403 
L 124.527273 76.633003 
L 124.527273 76.633003 
" clip-path="url(#p4108e8faa7)" style="fill: none; stroke: #84d44b; stroke-width: 1.5; stroke-linecap: square"/>
   </g>
   <g id="line2d_15">
    <path d="M 23.072727 76.95 
L 103.018909 76.843996 
L 105.250909 76.604286 
L 106.874182 76.226757 
L 108.294545 75.681472 
L 109.714909 74.892846 
L 111.236727 73.78446 
L 115.802182 70.228418 
L 116.816727 69.831786 
L 117.729818 69.706845 
L 118.642909 69.814682 
L 119.556 70.145005 
L 120.672 70.804479 
L 122.193818 72.003286 
L 124.527273 73.972184 
L 124.527273 73.972184 
" clip-path="url(#p4108e8faa7)" style="fill: none; stroke: #addc30; stroke-width: 1.5; stroke-linecap: square"/>
   </g>
   <g id="line2d_16">
    <path d="M 23.072727 76.95 
L 109.917818 76.839249 
L 112.149818 76.593017 
L 113.773091 76.209529 
L 115.193455 75.660916 
L 116.613818 74.875061 
L 118.237091 73.70235 
L 122.295273 70.590615 
L 123.411273 70.111751 
L 124.324364 69.949849 
L 124.527273 69.944247 
L 124.527273 69.944247 
" clip-path="url(#p4108e8faa7)" style="fill: none; stroke: #d8e219; stroke-width: 1.5; stroke-linecap: square"/>
   </g>
   <g id="matplotlib.axis_1">
    <g id="xtick_1">
     <g id="line2d_17">
      <defs>
       <path id="m53ede78d47" d="M 0 0 
L 0 3.5 
" style="stroke: #000000; stroke-width: 0.8"/>
      </defs>
      <g>
       <use xlink:href="#m53ede78d47" x="23.072727" y="80.1" style="stroke: #000000; stroke-width: 0.8"/>
      </g>
     </g>
     <g id="text_1">
      <!-- −1 -->
      <g transform="translate(15.701634 94.698437) scale(0.1 -0.1)">
       <defs>
        <path id="DejaVuSans-2212" d="M 678 2272 
L 4684 2272 
L 4684 1741 
L 678 1741 
L 678 2272 
z
" transform="scale(0.015625)"/>
        <path id="DejaVuSans-31" d="M 794 531 
L 1825 531 
L 1825 4091 
L 703 3866 
L 703 4441 
L 1819 4666 
L 2450 4666 
L 2450 531 
L 3481 531 
L 3481 0 
L 794 0 
L 794 531 
z
" transform="scale(0.015625)"/>
       </defs>
       <use xlink:href="#DejaVuSans-2212"/>
       <use xlink:href="#DejaVuSans-31" x="83.789062"/>
      </g>
     </g>
    </g>
    <g id="xtick_2">
     <g id="line2d_18">
      <g>
       <use xlink:href="#m53ede78d47" x="73.8" y="80.1" style="stroke: #000000; stroke-width: 0.8"/>
      </g>
     </g>
     <g id="text_2">
      <!-- 0 -->
      <g transform="translate(70.61875 94.698437) scale(0.1 -0.1)">
       <defs>
        <path id="DejaVuSans-30" d="M 2034 4250 
Q 1547 4250 1301 3770 
Q 1056 3291 1056 2328 
Q 1056 1369 1301 889 
Q 1547 409 2034 409 
Q 2525 409 2770 889 
Q 3016 1369 3016 2328 
Q 3016 3291 2770 3770 
Q 2525 4250 2034 4250 
z
M 2034 4750 
Q 2819 4750 3233 4129 
Q 3647 3509 3647 2328 
Q 3647 1150 3233 529 
Q 2819 -91 2034 -91 
Q 1250 -91 836 529 
Q 422 1150 422 2328 
Q 422 3509 836 4129 
Q 1250 4750 2034 4750 
z
" transform="scale(0.015625)"/>
       </defs>
       <use xlink:href="#DejaVuSans-30"/>
      </g>
     </g>
    </g>
    <g id="xtick_3">
     <g id="line2d_19">
      <g>
       <use xlink:href="#m53ede78d47" x="124.527273" y="80.1" style="stroke: #000000; stroke-width: 0.8"/>
      </g>
     </g>
     <g id="text_3">
      <!-- 1 -->
      <g transform="translate(121.346023 94.698437) scale(0.1 -0.1)">
       <use xlink:href="#DejaVuSans-31"/>
      </g>
     </g>
    </g>
    <g id="text_4">
     <!-- x -->
     <g transform="translate(70.840625 108.376563) scale(0.1 -0.1)">
      <defs>
       <path id="DejaVuSans-78" d="M 3513 3500 
L 2247 1797 
L 3578 0 
L 2900 0 
L 1881 1375 
L 863 0 
L 184 0 
L 1544 1831 
L 300 3500 
L 978 3500 
L 1906 2253 
L 2834 3500 
L 3513 3500 
z
" transform="scale(0.015625)"/>
      </defs>
      <use xlink:href="#DejaVuSans-78"/>
     </g>
    </g>
   </g>
   <g id="matplotlib.axis_2">
    <g id="ytick_1">
     <g id="line2d_20">
      <defs>
       <path id="m3f4a8ed89a" d="M 0 0 
L -3.5 0 
" style="stroke: #000000; stroke-width: 0.8"/>
      </defs>
      <g>
       <use xlink:href="#m3f4a8ed89a" x="18" y="76.95" style="stroke: #000000; stroke-width: 0.8"/>
      </g>
     </g>
     <g id="text_5">
      <!-- 0.0 -->
      <g transform="translate(-4.903125 80.749219) scale(0.1 -0.1)">
       <defs>
        <path id="DejaVuSans-2e" d="M 684 794 
L 1344 794 
L 1344 0 
L 684 0 
L 684 794 
z
" transform="scale(0.015625)"/>
       </defs>
       <use xlink:href="#DejaVuSans-30"/>
       <use xlink:href="#DejaVuSans-2e" x="63.623047"/>
       <use xlink:href="#DejaVuSans-30" x="95.410156"/>
      </g>
     </g>
    </g>
    <g id="ytick_2">
     <g id="line2d_21">
      <g>
       <use xlink:href="#m3f4a8ed89a" x="18" y="49.904562" style="stroke: #000000; stroke-width: 0.8"/>
      </g>
     </g>
     <g id="text_6">
      <!-- 0.5 -->
      <g transform="translate(-4.903125 53.703781) scale(0.1 -0.1)">
       <defs>
        <path id="DejaVuSans-35" d="M 691 4666 
L 3169 4666 
L 3169 4134 
L 1269 4134 
L 1269 2991 
Q 1406 3038 1543 3061 
Q 1681 3084 1819 3084 
Q 2600 3084 3056 2656 
Q 3513 2228 3513 1497 
Q 3513 744 3044 326 
Q 2575 -91 1722 -91 
Q 1428 -91 1123 -41 
Q 819 9 494 109 
L 494 744 
Q 775 591 1075 516 
Q 1375 441 1709 441 
Q 2250 441 2565 725 
Q 2881 1009 2881 1497 
Q 2881 1984 2565 2268 
Q 2250 2553 1709 2553 
Q 1456 2553 1204 2497 
Q 953 2441 691 2322 
L 691 4666 
z
" transform="scale(0.015625)"/>
       </defs>
       <use xlink:href="#DejaVuSans-30"/>
       <use xlink:href="#DejaVuSans-2e" x="63.623047"/>
       <use xlink:href="#DejaVuSans-35" x="95.410156"/>
      </g>
     </g>
    </g>
    <g id="ytick_3">
     <g id="line2d_22">
      <g>
       <use xlink:href="#m3f4a8ed89a" x="18" y="22.859124" style="stroke: #000000; stroke-width: 0.8"/>
      </g>
     </g>
     <g id="text_7">
      <!-- 1.0 -->
      <g transform="translate(-4.903125 26.658342) scale(0.1 -0.1)">
       <use xlink:href="#DejaVuSans-31"/>
       <use xlink:href="#DejaVuSans-2e" x="63.623047"/>
       <use xlink:href="#DejaVuSans-30" x="95.410156"/>
      </g>
     </g>
    </g>
    <g id="text_8">
     <!-- $\phi(x)$ -->
     <g transform="translate(-11.003125 55.65) rotate(-90) scale(0.1 -0.1)">
      <defs>
       <path id="DejaVuSans-Oblique-3d5" d="M 2991 4863 
L 2738 3572 
Q 3363 3572 3684 3094 
Q 4016 2606 3850 1747 
Q 3681 888 3159 400 
Q 2653 -78 2028 -78 
L 1784 -1331 
L 1213 -1331 
L 1456 -78 
Q 834 -78 509 400 
Q 178 888 347 1747 
Q 513 2606 1034 3094 
Q 1544 3572 2166 3572 
L 2419 4863 
L 2991 4863 
z
M 2128 434 
Q 2481 434 2784 756 
Q 3116 1116 3244 1747 
Q 3369 2372 3169 2738 
Q 2991 3059 2638 3059 
L 2128 434 
z
M 1556 434 
L 2066 3059 
Q 1716 3059 1413 2738 
Q 1072 2372 953 1747 
Q 834 1116 1028 756 
Q 1203 434 1556 434 
z
" transform="scale(0.015625)"/>
       <path id="DejaVuSans-28" d="M 1984 4856 
Q 1566 4138 1362 3434 
Q 1159 2731 1159 2009 
Q 1159 1288 1364 580 
Q 1569 -128 1984 -844 
L 1484 -844 
Q 1016 -109 783 600 
Q 550 1309 550 2009 
Q 550 2706 781 3412 
Q 1013 4119 1484 4856 
L 1984 4856 
z
" transform="scale(0.015625)"/>
       <path id="DejaVuSans-Oblique-78" d="M 3841 3500 
L 2234 1784 
L 3219 0 
L 2559 0 
L 1819 1388 
L 531 0 
L -166 0 
L 1556 1844 
L 641 3500 
L 1300 3500 
L 1972 2234 
L 3144 3500 
L 3841 3500 
z
" transform="scale(0.015625)"/>
       <path id="DejaVuSans-29" d="M 513 4856 
L 1013 4856 
Q 1481 4119 1714 3412 
Q 1947 2706 1947 2009 
Q 1947 1309 1714 600 
Q 1481 -109 1013 -844 
L 513 -844 
Q 928 -128 1133 580 
Q 1338 1288 1338 2009 
Q 1338 2731 1133 3434 
Q 928 4138 513 4856 
z
" transform="scale(0.015625)"/>
      </defs>
      <use xlink:href="#DejaVuSans-Oblique-3d5" transform="translate(0 0.015625)"/>
      <use xlink:href="#DejaVuSans-28" transform="translate(65.966797 0.015625)"/>
      <use xlink:href="#DejaVuSans-Oblique-78" transform="translate(104.980469 0.015625)"/>
      <use xlink:href="#DejaVuSans-29" transform="translate(164.160156 0.015625)"/>
     </g>
    </g>
   </g>
   <g id="PolyCollection_1">
    <defs>
     <path id="mcb89ffd744" d="M 23.072727 -13.05 
L 23.072727 -13.05 
L 23.174182 -13.05 
L 23.275636 -13.05 
L 23.377091 -13.05 
L 23.478545 -13.05 
L 23.58 -13.05 
L 23.681455 -13.05 
L 23.782909 -13.05 
L 23.884364 -13.05 
L 23.985818 -13.05 
L 24.087273 -13.05 
L 24.188727 -13.05 
L 24.290182 -13.05 
L 24.391636 -13.05 
L 24.493091 -13.05 
L 24.594545 -13.05 
L 24.696 -13.05 
L 24.797455 -13.05 
L 24.898909 -13.05 
L 25.000364 -13.05 
L 25.101818 -13.05 
L 25.203273 -13.05 
L 25.304727 -13.05 
L 25.406182 -13.05 
L 25.507636 -13.05 
L 25.609091 -13.05 
L 25.710545 -13.05 
L 25.812 -13.05 
L 25.913455 -13.05 
L 26.014909 -13.05 
L 26.116364 -13.05 
L 26.217818 -13.05 
L 26.319273 -13.05 
L 26.420727 -13.05 
L 26.522182 -13.05 
L 26.623636 -13.05 
L 26.725091 -13.05 
L 26.826545 -13.05 
L 26.928 -13.05 
L 27.029455 -13.05 
L 27.130909 -13.05 
L 27.232364 -13.05 
L 27.333818 -13.05 
L 27.435273 -13.05 
L 27.536727 -13.05 
L 27.638182 -13.05 
L 27.739636 -13.05 
L 27.841091 -13.05 
L 27.942545 -13.05 
L 28.044 -13.05 
L 28.145455 -13.05 
L 28.246909 -13.05 
L 28.348364 -13.05 
L 28.449818 -13.05 
L 28.551273 -13.05 
L 28.652727 -13.05 
L 28.754182 -13.05 
L 28.855636 -13.05 
L 28.957091 -13.05 
L 29.058545 -13.05 
L 29.16 -13.05 
L 29.261455 -13.05 
L 29.362909 -13.05 
L 29.464364 -13.05 
L 29.565818 -13.05 
L 29.667273 -13.05 
L 29.768727 -13.05 
L 29.870182 -13.05 
L 29.971636 -13.05 
L 30.073091 -13.05 
L 30.174545 -13.05 
L 30.276 -13.05 
L 30.377455 -13.05 
L 30.478909 -13.05 
L 30.580364 -13.05 
L 30.681818 -13.05 
L 30.783273 -13.05 
L 30.884727 -13.05 
L 30.986182 -13.05 
L 31.087636 -13.05 
L 31.189091 -13.05 
L 31.290545 -13.05 
L 31.392 -13.05 
L 31.493455 -13.05 
L 31.594909 -13.05 
L 31.696364 -13.05 
L 31.797818 -13.05 
L 31.899273 -13.05 
L 32.000727 -13.05 
L 32.102182 -13.05 
L 32.203636 -13.05 
L 32.305091 -13.05 
L 32.406545 -13.05 
L 32.508 -13.05 
L 32.609455 -13.05 
L 32.710909 -13.05 
L 32.812364 -13.05 
L 32.913818 -13.05 
L 33.015273 -13.05 
L 33.116727 -13.05 
L 33.218182 -13.05 
L 33.319636 -13.05 
L 33.421091 -13.05 
L 33.522545 -13.05 
L 33.624 -13.05 
L 33.725455 -13.05 
L 33.826909 -13.05 
L 33.928364 -13.05 
L 34.029818 -13.05 
L 34.131273 -13.05 
L 34.232727 -13.05 
L 34.334182 -13.05 
L 34.435636 -13.05 
L 34.537091 -13.05 
L 34.638545 -13.05 
L 34.74 -13.05 
L 34.841455 -13.05 
L 34.942909 -13.05 
L 35.044364 -13.05 
L 35.145818 -13.05 
L 35.247273 -13.05 
L 35.348727 -13.05 
L 35.450182 -13.05 
L 35.551636 -13.05 
L 35.653091 -13.05 
L 35.754545 -13.05 
L 35.856 -13.05 
L 35.957455 -13.05 
L 36.058909 -13.05 
L 36.160364 -13.05 
L 36.261818 -13.05 
L 36.363273 -13.05 
L 36.464727 -13.05 
L 36.566182 -13.05 
L 36.667636 -13.05 
L 36.769091 -13.05 
L 36.870545 -13.05 
L 36.972 -13.05 
L 37.073455 -13.05 
L 37.174909 -13.05 
L 37.276364 -13.05 
L 37.377818 -13.05 
L 37.479273 -13.05 
L 37.580727 -13.05 
L 37.682182 -13.05 
L 37.783636 -13.05 
L 37.885091 -13.05 
L 37.986545 -13.05 
L 38.088 -13.05 
L 38.189455 -13.05 
L 38.290909 -13.05 
L 38.392364 -13.05 
L 38.493818 -13.05 
L 38.595273 -13.05 
L 38.696727 -13.05 
L 38.798182 -13.05 
L 38.899636 -13.05 
L 39.001091 -13.05 
L 39.102545 -13.05 
L 39.204 -13.05 
L 39.305455 -13.05 
L 39.406909 -13.05 
L 39.508364 -13.05 
L 39.609818 -13.05 
L 39.711273 -13.05 
L 39.812727 -13.05 
L 39.914182 -13.05 
L 40.015636 -13.05 
L 40.117091 -13.05 
L 40.218545 -13.05 
L 40.32 -13.05 
L 40.421455 -13.05 
L 40.522909 -13.05 
L 40.624364 -13.05 
L 40.725818 -13.05 
L 40.827273 -13.05 
L 40.928727 -13.05 
L 41.030182 -13.05 
L 41.131636 -13.05 
L 41.233091 -13.05 
L 41.334545 -13.05 
L 41.436 -13.05 
L 41.537455 -13.05 
L 41.638909 -13.05 
L 41.740364 -13.05 
L 41.841818 -13.05 
L 41.943273 -13.05 
L 42.044727 -13.05 
L 42.146182 -13.05 
L 42.247636 -13.05 
L 42.349091 -13.05 
L 42.450545 -13.05 
L 42.552 -13.05 
L 42.653455 -13.05 
L 42.754909 -13.05 
L 42.856364 -13.05 
L 42.957818 -13.05 
L 43.059273 -13.05 
L 43.160727 -13.05 
L 43.262182 -13.05 
L 43.363636 -13.05 
L 43.465091 -13.05 
L 43.566545 -13.05 
L 43.668 -13.05 
L 43.769455 -13.05 
L 43.870909 -13.05 
L 43.972364 -13.05 
L 44.073818 -13.05 
L 44.175273 -13.05 
L 44.276727 -13.05 
L 44.378182 -13.05 
L 44.479636 -13.05 
L 44.581091 -13.05 
L 44.682545 -13.05 
L 44.784 -13.05 
L 44.885455 -13.05 
L 44.986909 -13.05 
L 45.088364 -13.05 
L 45.189818 -13.05 
L 45.291273 -13.05 
L 45.392727 -13.05 
L 45.494182 -13.05 
L 45.595636 -13.05 
L 45.697091 -13.05 
L 45.798545 -13.05 
L 45.9 -13.05 
L 46.001455 -13.05 
L 46.102909 -13.05 
L 46.204364 -13.05 
L 46.305818 -13.05 
L 46.407273 -13.05 
L 46.508727 -13.05 
L 46.610182 -13.05 
L 46.711636 -13.05 
L 46.813091 -13.05 
L 46.914545 -13.05 
L 47.016 -13.05 
L 47.117455 -13.05 
L 47.218909 -13.05 
L 47.320364 -13.05 
L 47.421818 -13.05 
L 47.523273 -13.05 
L 47.624727 -13.05 
L 47.726182 -13.05 
L 47.827636 -13.05 
L 47.929091 -13.05 
L 48.030545 -13.05 
L 48.132 -13.05 
L 48.233455 -13.05 
L 48.334909 -13.05 
L 48.436364 -13.05 
L 48.537818 -13.05 
L 48.639273 -13.05 
L 48.740727 -13.05 
L 48.842182 -13.05 
L 48.943636 -13.05 
L 49.045091 -13.05 
L 49.146545 -13.05 
L 49.248 -13.05 
L 49.349455 -13.05 
L 49.450909 -13.05 
L 49.552364 -13.05 
L 49.653818 -13.05 
L 49.755273 -13.05 
L 49.856727 -13.05 
L 49.958182 -13.05 
L 50.059636 -13.05 
L 50.161091 -13.05 
L 50.262545 -13.05 
L 50.364 -13.05 
L 50.465455 -13.05 
L 50.566909 -13.05 
L 50.668364 -13.05 
L 50.769818 -13.05 
L 50.871273 -13.05 
L 50.972727 -13.05 
L 51.074182 -13.05 
L 51.175636 -13.05 
L 51.277091 -13.05 
L 51.378545 -13.05 
L 51.48 -13.05 
L 51.581455 -13.05 
L 51.682909 -13.05 
L 51.784364 -13.05 
L 51.885818 -13.05 
L 51.987273 -13.05 
L 52.088727 -13.05 
L 52.190182 -13.05 
L 52.291636 -13.05 
L 52.393091 -13.05 
L 52.494545 -13.05 
L 52.596 -13.05 
L 52.697455 -13.05 
L 52.798909 -13.05 
L 52.900364 -13.05 
L 53.001818 -13.05 
L 53.103273 -13.05 
L 53.204727 -13.05 
L 53.306182 -13.05 
L 53.407636 -13.05 
L 53.509091 -13.05 
L 53.610545 -13.05 
L 53.712 -13.05 
L 53.813455 -13.05 
L 53.914909 -13.05 
L 54.016364 -13.05 
L 54.117818 -13.05 
L 54.219273 -13.05 
L 54.320727 -13.05 
L 54.422182 -13.05 
L 54.523636 -13.05 
L 54.625091 -13.05 
L 54.726545 -13.05 
L 54.828 -13.05 
L 54.929455 -13.05 
L 55.030909 -13.05 
L 55.132364 -13.05 
L 55.233818 -13.05 
L 55.335273 -13.05 
L 55.436727 -13.05 
L 55.538182 -13.05 
L 55.639636 -13.05 
L 55.741091 -13.05 
L 55.842545 -13.05 
L 55.944 -13.05 
L 56.045455 -13.05 
L 56.146909 -13.05 
L 56.248364 -13.05 
L 56.349818 -13.05 
L 56.451273 -13.05 
L 56.552727 -13.05 
L 56.654182 -13.05 
L 56.755636 -13.05 
L 56.857091 -13.05 
L 56.958545 -13.05 
L 57.06 -13.05 
L 57.161455 -13.05 
L 57.262909 -13.05 
L 57.364364 -13.05 
L 57.465818 -13.05 
L 57.567273 -13.05 
L 57.668727 -13.05 
L 57.770182 -13.05 
L 57.871636 -13.05 
L 57.973091 -13.05 
L 58.074545 -13.05 
L 58.176 -13.05 
L 58.277455 -13.05 
L 58.378909 -13.05 
L 58.480364 -13.05 
L 58.581818 -13.05 
L 58.683273 -13.05 
L 58.784727 -13.05 
L 58.886182 -13.05 
L 58.987636 -13.05 
L 59.089091 -13.05 
L 59.190545 -13.05 
L 59.292 -13.05 
L 59.393455 -13.05 
L 59.494909 -13.05 
L 59.596364 -13.05 
L 59.697818 -13.05 
L 59.799273 -13.05 
L 59.900727 -13.05 
L 60.002182 -13.05 
L 60.103636 -13.05 
L 60.205091 -13.05 
L 60.306545 -13.05 
L 60.408 -13.05 
L 60.509455 -13.05 
L 60.610909 -13.05 
L 60.712364 -13.05 
L 60.813818 -13.05 
L 60.915273 -13.05 
L 61.016727 -13.05 
L 61.118182 -13.05 
L 61.219636 -13.05 
L 61.321091 -13.05 
L 61.422545 -13.05 
L 61.524 -13.05 
L 61.625455 -13.05 
L 61.726909 -13.05 
L 61.828364 -13.05 
L 61.929818 -13.05 
L 62.031273 -13.05 
L 62.132727 -13.05 
L 62.234182 -13.05 
L 62.335636 -13.05 
L 62.437091 -13.05 
L 62.538545 -13.05 
L 62.64 -13.05 
L 62.741455 -13.05 
L 62.842909 -13.05 
L 62.944364 -13.05 
L 63.045818 -13.05 
L 63.147273 -13.05 
L 63.248727 -13.05 
L 63.350182 -13.05 
L 63.451636 -13.05 
L 63.553091 -13.05 
L 63.654545 -13.05 
L 63.756 -13.05 
L 63.857455 -13.05 
L 63.958909 -13.05 
L 64.060364 -13.05 
L 64.161818 -13.05 
L 64.263273 -13.05 
L 64.364727 -13.05 
L 64.466182 -13.05 
L 64.567636 -13.05 
L 64.669091 -13.05 
L 64.770545 -13.05 
L 64.872 -13.05 
L 64.973455 -13.05 
L 65.074909 -13.05 
L 65.176364 -13.05 
L 65.277818 -13.05 
L 65.379273 -13.05 
L 65.480727 -13.05 
L 65.582182 -13.05 
L 65.683636 -13.05 
L 65.785091 -13.05 
L 65.886545 -13.05 
L 65.988 -13.05 
L 66.089455 -13.05 
L 66.190909 -13.05 
L 66.292364 -13.05 
L 66.393818 -13.05 
L 66.495273 -13.05 
L 66.596727 -13.05 
L 66.698182 -13.05 
L 66.799636 -13.05 
L 66.901091 -13.05 
L 67.002545 -13.05 
L 67.104 -13.05 
L 67.205455 -13.05 
L 67.306909 -13.05 
L 67.408364 -13.05 
L 67.509818 -13.05 
L 67.611273 -13.05 
L 67.712727 -13.05 
L 67.814182 -13.05 
L 67.915636 -13.05 
L 68.017091 -13.05 
L 68.118545 -13.05 
L 68.22 -13.05 
L 68.321455 -13.05 
L 68.422909 -13.05 
L 68.524364 -13.05 
L 68.625818 -13.05 
L 68.727273 -13.05 
L 68.828727 -13.05 
L 68.930182 -13.05 
L 69.031636 -13.05 
L 69.133091 -13.05 
L 69.234545 -13.05 
L 69.336 -13.05 
L 69.437455 -13.05 
L 69.538909 -13.05 
L 69.640364 -13.05 
L 69.741818 -13.05 
L 69.843273 -13.05 
L 69.944727 -13.05 
L 70.046182 -13.05 
L 70.147636 -13.05 
L 70.249091 -13.05 
L 70.350545 -13.05 
L 70.452 -13.05 
L 70.553455 -13.05 
L 70.654909 -13.05 
L 70.756364 -13.05 
L 70.857818 -13.05 
L 70.959273 -13.05 
L 71.060727 -13.05 
L 71.162182 -13.05 
L 71.263636 -13.05 
L 71.365091 -13.05 
L 71.466545 -13.05 
L 71.568 -13.05 
L 71.669455 -13.05 
L 71.770909 -13.05 
L 71.872364 -13.05 
L 71.973818 -13.05 
L 72.075273 -13.05 
L 72.176727 -13.05 
L 72.278182 -13.05 
L 72.379636 -13.05 
L 72.481091 -13.05 
L 72.582545 -13.05 
L 72.684 -13.05 
L 72.785455 -13.05 
L 72.886909 -13.05 
L 72.988364 -13.05 
L 73.089818 -13.05 
L 73.191273 -13.05 
L 73.292727 -13.05 
L 73.394182 -13.05 
L 73.495636 -13.05 
L 73.597091 -13.05 
L 73.698545 -13.05 
L 73.8 -13.05 
L 73.901455 -13.05 
L 74.002909 -13.05 
L 74.104364 -13.05 
L 74.205818 -13.05 
L 74.307273 -13.05 
L 74.408727 -13.05 
L 74.510182 -13.05 
L 74.611636 -13.05 
L 74.713091 -13.05 
L 74.814545 -13.05 
L 74.916 -13.05 
L 75.017455 -13.05 
L 75.118909 -13.05 
L 75.220364 -13.05 
L 75.321818 -13.05 
L 75.423273 -13.05 
L 75.524727 -13.05 
L 75.626182 -13.05 
L 75.727636 -13.05 
L 75.829091 -13.05 
L 75.930545 -13.05 
L 76.032 -13.05 
L 76.133455 -13.05 
L 76.234909 -13.05 
L 76.336364 -13.05 
L 76.437818 -13.05 
L 76.539273 -13.05 
L 76.640727 -13.05 
L 76.742182 -13.05 
L 76.843636 -13.05 
L 76.945091 -13.05 
L 77.046545 -13.05 
L 77.148 -13.05 
L 77.249455 -13.05 
L 77.350909 -13.05 
L 77.452364 -13.05 
L 77.553818 -13.05 
L 77.655273 -13.05 
L 77.756727 -13.05 
L 77.858182 -13.05 
L 77.959636 -13.05 
L 78.061091 -13.05 
L 78.162545 -13.05 
L 78.264 -13.05 
L 78.365455 -13.05 
L 78.466909 -13.05 
L 78.568364 -13.05 
L 78.669818 -13.05 
L 78.771273 -13.05 
L 78.872727 -13.05 
L 78.974182 -13.05 
L 79.075636 -13.05 
L 79.177091 -13.05 
L 79.278545 -13.05 
L 79.38 -13.05 
L 79.481455 -13.05 
L 79.582909 -13.05 
L 79.684364 -13.05 
L 79.785818 -13.05 
L 79.887273 -13.05 
L 79.988727 -13.05 
L 80.090182 -13.05 
L 80.191636 -13.05 
L 80.293091 -13.05 
L 80.394545 -13.05 
L 80.496 -13.05 
L 80.597455 -13.05 
L 80.698909 -13.05 
L 80.800364 -13.05 
L 80.901818 -13.05 
L 81.003273 -13.05 
L 81.104727 -13.05 
L 81.206182 -13.05 
L 81.307636 -13.05 
L 81.409091 -13.05 
L 81.510545 -13.05 
L 81.612 -13.05 
L 81.713455 -13.05 
L 81.814909 -13.05 
L 81.916364 -13.05 
L 82.017818 -13.05 
L 82.119273 -13.05 
L 82.220727 -13.05 
L 82.322182 -13.05 
L 82.423636 -13.05 
L 82.525091 -13.05 
L 82.626545 -13.05 
L 82.728 -13.05 
L 82.829455 -13.05 
L 82.930909 -13.05 
L 83.032364 -13.05 
L 83.133818 -13.05 
L 83.235273 -13.05 
L 83.336727 -13.05 
L 83.438182 -13.05 
L 83.539636 -13.05 
L 83.641091 -13.05 
L 83.742545 -13.050001 
L 83.844 -13.050001 
L 83.945455 -13.050001 
L 84.046909 -13.050001 
L 84.148364 -13.050001 
L 84.249818 -13.050002 
L 84.351273 -13.050002 
L 84.452727 -13.050003 
L 84.554182 -13.050003 
L 84.655636 -13.050004 
L 84.757091 -13.050005 
L 84.858545 -13.050007 
L 84.96 -13.050008 
L 85.061455 -13.05001 
L 85.162909 -13.050013 
L 85.264364 -13.050016 
L 85.365818 -13.05002 
L 85.467273 -13.050025 
L 85.568727 -13.050031 
L 85.670182 -13.050039 
L 85.771636 -13.050048 
L 85.873091 -13.050059 
L 85.974545 -13.050073 
L 86.076 -13.050089 
L 86.177455 -13.05011 
L 86.278909 -13.050135 
L 86.380364 -13.050165 
L 86.481818 -13.050202 
L 86.583273 -13.050246 
L 86.684727 -13.0503 
L 86.786182 -13.050365 
L 86.887636 -13.050443 
L 86.989091 -13.050537 
L 87.090545 -13.05065 
L 87.192 -13.050786 
L 87.293455 -13.050949 
L 87.394909 -13.051143 
L 87.496364 -13.051375 
L 87.597818 -13.051651 
L 87.699273 -13.05198 
L 87.800727 -13.052371 
L 87.902182 -13.052834 
L 88.003636 -13.053382 
L 88.105091 -13.054029 
L 88.206545 -13.054793 
L 88.308 -13.055693 
L 88.409455 -13.056751 
L 88.510909 -13.057992 
L 88.612364 -13.059446 
L 88.713818 -13.061148 
L 88.815273 -13.063134 
L 88.916727 -13.06545 
L 89.018182 -13.068145 
L 89.119636 -13.071277 
L 89.221091 -13.074909 
L 89.322545 -13.079114 
L 89.424 -13.083975 
L 89.525455 -13.089584 
L 89.626909 -13.096045 
L 89.728364 -13.103475 
L 89.829818 -13.112005 
L 89.931273 -13.121781 
L 90.032727 -13.132965 
L 90.134182 -13.145739 
L 90.235636 -13.160302 
L 90.337091 -13.176877 
L 90.438545 -13.19571 
L 90.54 -13.217071 
L 90.641455 -13.241258 
L 90.742909 -13.268595 
L 90.844364 -13.299441 
L 90.945818 -13.334184 
L 91.047273 -13.373248 
L 91.148727 -13.417095 
L 91.250182 -13.466223 
L 91.351636 -13.521171 
L 91.453091 -13.58252 
L 91.554545 -13.650895 
L 91.656 -13.726966 
L 91.757455 -13.811447 
L 91.858909 -13.905102 
L 91.960364 -14.008741 
L 92.061818 -14.123222 
L 92.163273 -14.249453 
L 92.264727 -14.388387 
L 92.366182 -14.541028 
L 92.467636 -14.70842 
L 92.569091 -14.891657 
L 92.670545 -15.091869 
L 92.772 -15.310228 
L 92.873455 -15.547938 
L 92.974909 -15.806235 
L 93.076364 -16.086379 
L 93.177818 -16.389648 
L 93.279273 -16.717336 
L 93.380727 -17.070738 
L 93.482182 -17.451149 
L 93.583636 -17.859848 
L 93.685091 -18.298097 
L 93.786545 -18.767122 
L 93.888 -19.268107 
L 93.989455 -19.802181 
L 94.090909 -20.370404 
L 94.192364 -20.973758 
L 94.293818 -21.613128 
L 94.395273 -22.289295 
L 94.496727 -23.002916 
L 94.598182 -23.754514 
L 94.699636 -24.544464 
L 94.801091 -25.372977 
L 94.902545 -26.240087 
L 95.004 -27.14564 
L 95.105455 -28.089281 
L 95.206909 -29.070442 
L 95.308364 -30.08833 
L 95.409818 -31.141922 
L 95.511273 -32.229951 
L 95.612727 -33.350906 
L 95.714182 -34.503022 
L 95.815636 -35.684279 
L 95.917091 -36.892401 
L 96.018545 -38.124854 
L 96.12 -39.378856 
L 96.221455 -40.651373 
L 96.322909 -41.939134 
L 96.424364 -43.238635 
L 96.525818 -44.546157 
L 96.627273 -45.857775 
L 96.728727 -47.169379 
L 96.830182 -48.476691 
L 96.931636 -49.775287 
L 97.033091 -51.060618 
L 97.134545 -52.328038 
L 97.236 -53.57283 
L 97.337455 -54.790235 
L 97.438909 -55.975477 
L 97.540364 -57.123801 
L 97.641818 -58.230498 
L 97.743273 -59.290939 
L 97.844727 -60.300608 
L 97.946182 -61.255134 
L 98.047636 -62.150319 
L 98.149091 -62.982172 
L 98.250545 -63.746939 
L 98.352 -64.441127 
L 98.453455 -65.061535 
L 98.554909 -65.605278 
L 98.656364 -66.069805 
L 98.757818 -66.452926 
L 98.859273 -66.752821 
L 98.960727 -66.968062 
L 99.062182 -67.097621 
L 99.163636 -67.140876 
L 99.265091 -67.097621 
L 99.366545 -66.968062 
L 99.468 -66.752821 
L 99.569455 -66.452926 
L 99.670909 -66.069805 
L 99.772364 -65.605278 
L 99.873818 -65.061535 
L 99.975273 -64.441127 
L 100.076727 -63.746939 
L 100.178182 -62.982172 
L 100.279636 -62.150319 
L 100.381091 -61.255134 
L 100.482545 -60.300608 
L 100.584 -59.290939 
L 100.685455 -58.230498 
L 100.786909 -57.123801 
L 100.888364 -55.975477 
L 100.989818 -54.790235 
L 101.091273 -53.57283 
L 101.192727 -52.328038 
L 101.294182 -51.060618 
L 101.395636 -49.775287 
L 101.497091 -48.476691 
L 101.598545 -47.169379 
L 101.7 -45.857775 
L 101.801455 -44.546157 
L 101.902909 -43.238635 
L 102.004364 -41.939134 
L 102.105818 -40.651373 
L 102.207273 -39.378856 
L 102.308727 -38.124854 
L 102.410182 -36.892401 
L 102.511636 -35.684279 
L 102.613091 -34.503022 
L 102.714545 -33.350906 
L 102.816 -32.229951 
L 102.917455 -31.141922 
L 103.018909 -30.08833 
L 103.120364 -29.070442 
L 103.221818 -28.089281 
L 103.323273 -27.14564 
L 103.424727 -26.240087 
L 103.526182 -25.372977 
L 103.627636 -24.544464 
L 103.729091 -23.754514 
L 103.830545 -23.002916 
L 103.932 -22.289295 
L 104.033455 -21.613128 
L 104.134909 -20.973758 
L 104.236364 -20.370404 
L 104.337818 -19.802181 
L 104.439273 -19.268107 
L 104.540727 -18.767122 
L 104.642182 -18.298097 
L 104.743636 -17.859848 
L 104.845091 -17.451149 
L 104.946545 -17.070738 
L 105.048 -16.717336 
L 105.149455 -16.389648 
L 105.250909 -16.086379 
L 105.352364 -15.806235 
L 105.453818 -15.547938 
L 105.555273 -15.310228 
L 105.656727 -15.091869 
L 105.758182 -14.891657 
L 105.859636 -14.70842 
L 105.961091 -14.541028 
L 106.062545 -14.388387 
L 106.164 -14.249453 
L 106.265455 -14.123222 
L 106.366909 -14.008741 
L 106.468364 -13.905102 
L 106.569818 -13.811447 
L 106.671273 -13.726966 
L 106.772727 -13.650895 
L 106.874182 -13.58252 
L 106.975636 -13.521171 
L 107.077091 -13.466223 
L 107.178545 -13.417095 
L 107.28 -13.373248 
L 107.381455 -13.334184 
L 107.482909 -13.299441 
L 107.584364 -13.268595 
L 107.685818 -13.241258 
L 107.787273 -13.217071 
L 107.888727 -13.19571 
L 107.990182 -13.176877 
L 108.091636 -13.160302 
L 108.193091 -13.145739 
L 108.294545 -13.132965 
L 108.396 -13.121781 
L 108.497455 -13.112005 
L 108.598909 -13.103475 
L 108.700364 -13.096045 
L 108.801818 -13.089584 
L 108.903273 -13.083975 
L 109.004727 -13.079114 
L 109.106182 -13.074909 
L 109.207636 -13.071277 
L 109.309091 -13.068145 
L 109.410545 -13.06545 
L 109.512 -13.063134 
L 109.613455 -13.061148 
L 109.714909 -13.059446 
L 109.816364 -13.057992 
L 109.917818 -13.056751 
L 110.019273 -13.055693 
L 110.120727 -13.054793 
L 110.222182 -13.054029 
L 110.323636 -13.053382 
L 110.425091 -13.052834 
L 110.526545 -13.052371 
L 110.628 -13.05198 
L 110.729455 -13.051651 
L 110.830909 -13.051375 
L 110.932364 -13.051143 
L 111.033818 -13.050949 
L 111.135273 -13.050786 
L 111.236727 -13.05065 
L 111.338182 -13.050537 
L 111.439636 -13.050443 
L 111.541091 -13.050365 
L 111.642545 -13.0503 
L 111.744 -13.050246 
L 111.845455 -13.050202 
L 111.946909 -13.050165 
L 112.048364 -13.050135 
L 112.149818 -13.05011 
L 112.251273 -13.050089 
L 112.352727 -13.050073 
L 112.454182 -13.050059 
L 112.555636 -13.050048 
L 112.657091 -13.050039 
L 112.758545 -13.050031 
L 112.86 -13.050025 
L 112.961455 -13.05002 
L 113.062909 -13.050016 
L 113.164364 -13.050013 
L 113.265818 -13.05001 
L 113.367273 -13.050008 
L 113.468727 -13.050007 
L 113.570182 -13.050005 
L 113.671636 -13.050004 
L 113.773091 -13.050003 
L 113.874545 -13.050003 
L 113.976 -13.050002 
L 114.077455 -13.050002 
L 114.178909 -13.050001 
L 114.280364 -13.050001 
L 114.381818 -13.050001 
L 114.483273 -13.050001 
L 114.584727 -13.050001 
L 114.686182 -13.05 
L 114.787636 -13.05 
L 114.889091 -13.05 
L 114.990545 -13.05 
L 115.092 -13.05 
L 115.193455 -13.05 
L 115.294909 -13.05 
L 115.396364 -13.05 
L 115.497818 -13.05 
L 115.599273 -13.05 
L 115.700727 -13.05 
L 115.802182 -13.05 
L 115.903636 -13.05 
L 116.005091 -13.05 
L 116.106545 -13.05 
L 116.208 -13.05 
L 116.309455 -13.05 
L 116.410909 -13.05 
L 116.512364 -13.05 
L 116.613818 -13.05 
L 116.715273 -13.05 
L 116.816727 -13.05 
L 116.918182 -13.05 
L 117.019636 -13.05 
L 117.121091 -13.05 
L 117.222545 -13.05 
L 117.324 -13.05 
L 117.425455 -13.05 
L 117.526909 -13.05 
L 117.628364 -13.05 
L 117.729818 -13.05 
L 117.831273 -13.05 
L 117.932727 -13.05 
L 118.034182 -13.05 
L 118.135636 -13.05 
L 118.237091 -13.05 
L 118.338545 -13.05 
L 118.44 -13.05 
L 118.541455 -13.05 
L 118.642909 -13.05 
L 118.744364 -13.05 
L 118.845818 -13.05 
L 118.947273 -13.05 
L 119.048727 -13.05 
L 119.150182 -13.05 
L 119.251636 -13.05 
L 119.353091 -13.05 
L 119.454545 -13.05 
L 119.556 -13.05 
L 119.657455 -13.05 
L 119.758909 -13.05 
L 119.860364 -13.05 
L 119.961818 -13.05 
L 120.063273 -13.05 
L 120.164727 -13.05 
L 120.266182 -13.05 
L 120.367636 -13.05 
L 120.469091 -13.05 
L 120.570545 -13.05 
L 120.672 -13.05 
L 120.773455 -13.05 
L 120.874909 -13.05 
L 120.976364 -13.05 
L 121.077818 -13.05 
L 121.179273 -13.05 
L 121.280727 -13.05 
L 121.382182 -13.05 
L 121.483636 -13.05 
L 121.585091 -13.05 
L 121.686545 -13.05 
L 121.788 -13.05 
L 121.889455 -13.05 
L 121.990909 -13.05 
L 122.092364 -13.05 
L 122.193818 -13.05 
L 122.295273 -13.05 
L 122.396727 -13.05 
L 122.498182 -13.05 
L 122.599636 -13.05 
L 122.701091 -13.05 
L 122.802545 -13.05 
L 122.904 -13.05 
L 123.005455 -13.05 
L 123.106909 -13.05 
L 123.208364 -13.05 
L 123.309818 -13.05 
L 123.411273 -13.05 
L 123.512727 -13.05 
L 123.614182 -13.05 
L 123.715636 -13.05 
L 123.817091 -13.05 
L 123.918545 -13.05 
L 124.02 -13.05 
L 124.121455 -13.05 
L 124.222909 -13.05 
L 124.324364 -13.05 
L 124.425818 -13.05 
L 124.527273 -13.05 
L 124.527273 -13.05 
L 124.527273 -13.05 
L 124.425818 -13.05 
L 124.324364 -13.05 
L 124.222909 -13.05 
L 124.121455 -13.05 
L 124.02 -13.05 
L 123.918545 -13.05 
L 123.817091 -13.05 
L 123.715636 -13.05 
L 123.614182 -13.05 
L 123.512727 -13.05 
L 123.411273 -13.05 
L 123.309818 -13.05 
L 123.208364 -13.05 
L 123.106909 -13.05 
L 123.005455 -13.05 
L 122.904 -13.05 
L 122.802545 -13.05 
L 122.701091 -13.05 
L 122.599636 -13.05 
L 122.498182 -13.05 
L 122.396727 -13.05 
L 122.295273 -13.05 
L 122.193818 -13.05 
L 122.092364 -13.05 
L 121.990909 -13.05 
L 121.889455 -13.05 
L 121.788 -13.05 
L 121.686545 -13.05 
L 121.585091 -13.05 
L 121.483636 -13.05 
L 121.382182 -13.05 
L 121.280727 -13.05 
L 121.179273 -13.05 
L 121.077818 -13.05 
L 120.976364 -13.05 
L 120.874909 -13.05 
L 120.773455 -13.05 
L 120.672 -13.05 
L 120.570545 -13.05 
L 120.469091 -13.05 
L 120.367636 -13.05 
L 120.266182 -13.05 
L 120.164727 -13.05 
L 120.063273 -13.05 
L 119.961818 -13.05 
L 119.860364 -13.05 
L 119.758909 -13.05 
L 119.657455 -13.05 
L 119.556 -13.05 
L 119.454545 -13.05 
L 119.353091 -13.05 
L 119.251636 -13.05 
L 119.150182 -13.05 
L 119.048727 -13.05 
L 118.947273 -13.05 
L 118.845818 -13.05 
L 118.744364 -13.05 
L 118.642909 -13.05 
L 118.541455 -13.05 
L 118.44 -13.05 
L 118.338545 -13.05 
L 118.237091 -13.05 
L 118.135636 -13.05 
L 118.034182 -13.05 
L 117.932727 -13.05 
L 117.831273 -13.05 
L 117.729818 -13.05 
L 117.628364 -13.05 
L 117.526909 -13.05 
L 117.425455 -13.05 
L 117.324 -13.05 
L 117.222545 -13.05 
L 117.121091 -13.05 
L 117.019636 -13.05 
L 116.918182 -13.05 
L 116.816727 -13.05 
L 116.715273 -13.05 
L 116.613818 -13.05 
L 116.512364 -13.05 
L 116.410909 -13.05 
L 116.309455 -13.05 
L 116.208 -13.05 
L 116.106545 -13.05 
L 116.005091 -13.05 
L 115.903636 -13.05 
L 115.802182 -13.05 
L 115.700727 -13.05 
L 115.599273 -13.05 
L 115.497818 -13.05 
L 115.396364 -13.05 
L 115.294909 -13.05 
L 115.193455 -13.05 
L 115.092 -13.05 
L 114.990545 -13.05 
L 114.889091 -13.05 
L 114.787636 -13.05 
L 114.686182 -13.05 
L 114.584727 -13.05 
L 114.483273 -13.05 
L 114.381818 -13.05 
L 114.280364 -13.05 
L 114.178909 -13.05 
L 114.077455 -13.05 
L 113.976 -13.05 
L 113.874545 -13.05 
L 113.773091 -13.05 
L 113.671636 -13.05 
L 113.570182 -13.05 
L 113.468727 -13.05 
L 113.367273 -13.05 
L 113.265818 -13.05 
L 113.164364 -13.05 
L 113.062909 -13.05 
L 112.961455 -13.05 
L 112.86 -13.05 
L 112.758545 -13.05 
L 112.657091 -13.05 
L 112.555636 -13.05 
L 112.454182 -13.05 
L 112.352727 -13.05 
L 112.251273 -13.05 
L 112.149818 -13.05 
L 112.048364 -13.05 
L 111.946909 -13.05 
L 111.845455 -13.05 
L 111.744 -13.05 
L 111.642545 -13.05 
L 111.541091 -13.05 
L 111.439636 -13.05 
L 111.338182 -13.05 
L 111.236727 -13.05 
L 111.135273 -13.05 
L 111.033818 -13.05 
L 110.932364 -13.05 
L 110.830909 -13.05 
L 110.729455 -13.05 
L 110.628 -13.05 
L 110.526545 -13.05 
L 110.425091 -13.05 
L 110.323636 -13.05 
L 110.222182 -13.05 
L 110.120727 -13.05 
L 110.019273 -13.05 
L 109.917818 -13.05 
L 109.816364 -13.05 
L 109.714909 -13.05 
L 109.613455 -13.05 
L 109.512 -13.05 
L 109.410545 -13.05 
L 109.309091 -13.05 
L 109.207636 -13.05 
L 109.106182 -13.05 
L 109.004727 -13.05 
L 108.903273 -13.05 
L 108.801818 -13.05 
L 108.700364 -13.05 
L 108.598909 -13.05 
L 108.497455 -13.05 
L 108.396 -13.05 
L 108.294545 -13.05 
L 108.193091 -13.05 
L 108.091636 -13.05 
L 107.990182 -13.05 
L 107.888727 -13.05 
L 107.787273 -13.05 
L 107.685818 -13.05 
L 107.584364 -13.05 
L 107.482909 -13.05 
L 107.381455 -13.05 
L 107.28 -13.05 
L 107.178545 -13.05 
L 107.077091 -13.05 
L 106.975636 -13.05 
L 106.874182 -13.05 
L 106.772727 -13.05 
L 106.671273 -13.05 
L 106.569818 -13.05 
L 106.468364 -13.05 
L 106.366909 -13.05 
L 106.265455 -13.05 
L 106.164 -13.05 
L 106.062545 -13.05 
L 105.961091 -13.05 
L 105.859636 -13.05 
L 105.758182 -13.05 
L 105.656727 -13.05 
L 105.555273 -13.05 
L 105.453818 -13.05 
L 105.352364 -13.05 
L 105.250909 -13.05 
L 105.149455 -13.05 
L 105.048 -13.05 
L 104.946545 -13.05 
L 104.845091 -13.05 
L 104.743636 -13.05 
L 104.642182 -13.05 
L 104.540727 -13.05 
L 104.439273 -13.05 
L 104.337818 -13.05 
L 104.236364 -13.05 
L 104.134909 -13.05 
L 104.033455 -13.05 
L 103.932 -13.05 
L 103.830545 -13.05 
L 103.729091 -13.05 
L 103.627636 -13.05 
L 103.526182 -13.05 
L 103.424727 -13.05 
L 103.323273 -13.05 
L 103.221818 -13.05 
L 103.120364 -13.05 
L 103.018909 -13.05 
L 102.917455 -13.05 
L 102.816 -13.05 
L 102.714545 -13.05 
L 102.613091 -13.05 
L 102.511636 -13.05 
L 102.410182 -13.05 
L 102.308727 -13.05 
L 102.207273 -13.05 
L 102.105818 -13.05 
L 102.004364 -13.05 
L 101.902909 -13.05 
L 101.801455 -13.05 
L 101.7 -13.05 
L 101.598545 -13.05 
L 101.497091 -13.05 
L 101.395636 -13.05 
L 101.294182 -13.05 
L 101.192727 -13.05 
L 101.091273 -13.05 
L 100.989818 -13.05 
L 100.888364 -13.05 
L 100.786909 -13.05 
L 100.685455 -13.05 
L 100.584 -13.05 
L 100.482545 -13.05 
L 100.381091 -13.05 
L 100.279636 -13.05 
L 100.178182 -13.05 
L 100.076727 -13.05 
L 99.975273 -13.05 
L 99.873818 -13.05 
L 99.772364 -13.05 
L 99.670909 -13.05 
L 99.569455 -13.05 
L 99.468 -13.05 
L 99.366545 -13.05 
L 99.265091 -13.05 
L 99.163636 -13.05 
L 99.062182 -13.05 
L 98.960727 -13.05 
L 98.859273 -13.05 
L 98.757818 -13.05 
L 98.656364 -13.05 
L 98.554909 -13.05 
L 98.453455 -13.05 
L 98.352 -13.05 
L 98.250545 -13.05 
L 98.149091 -13.05 
L 98.047636 -13.05 
L 97.946182 -13.05 
L 97.844727 -13.05 
L 97.743273 -13.05 
L 97.641818 -13.05 
L 97.540364 -13.05 
L 97.438909 -13.05 
L 97.337455 -13.05 
L 97.236 -13.05 
L 97.134545 -13.05 
L 97.033091 -13.05 
L 96.931636 -13.05 
L 96.830182 -13.05 
L 96.728727 -13.05 
L 96.627273 -13.05 
L 96.525818 -13.05 
L 96.424364 -13.05 
L 96.322909 -13.05 
L 96.221455 -13.05 
L 96.12 -13.05 
L 96.018545 -13.05 
L 95.917091 -13.05 
L 95.815636 -13.05 
L 95.714182 -13.05 
L 95.612727 -13.05 
L 95.511273 -13.05 
L 95.409818 -13.05 
L 95.308364 -13.05 
L 95.206909 -13.05 
L 95.105455 -13.05 
L 95.004 -13.05 
L 94.902545 -13.05 
L 94.801091 -13.05 
L 94.699636 -13.05 
L 94.598182 -13.05 
L 94.496727 -13.05 
L 94.395273 -13.05 
L 94.293818 -13.05 
L 94.192364 -13.05 
L 94.090909 -13.05 
L 93.989455 -13.05 
L 93.888 -13.05 
L 93.786545 -13.05 
L 93.685091 -13.05 
L 93.583636 -13.05 
L 93.482182 -13.05 
L 93.380727 -13.05 
L 93.279273 -13.05 
L 93.177818 -13.05 
L 93.076364 -13.05 
L 92.974909 -13.05 
L 92.873455 -13.05 
L 92.772 -13.05 
L 92.670545 -13.05 
L 92.569091 -13.05 
L 92.467636 -13.05 
L 92.366182 -13.05 
L 92.264727 -13.05 
L 92.163273 -13.05 
L 92.061818 -13.05 
L 91.960364 -13.05 
L 91.858909 -13.05 
L 91.757455 -13.05 
L 91.656 -13.05 
L 91.554545 -13.05 
L 91.453091 -13.05 
L 91.351636 -13.05 
L 91.250182 -13.05 
L 91.148727 -13.05 
L 91.047273 -13.05 
L 90.945818 -13.05 
L 90.844364 -13.05 
L 90.742909 -13.05 
L 90.641455 -13.05 
L 90.54 -13.05 
L 90.438545 -13.05 
L 90.337091 -13.05 
L 90.235636 -13.05 
L 90.134182 -13.05 
L 90.032727 -13.05 
L 89.931273 -13.05 
L 89.829818 -13.05 
L 89.728364 -13.05 
L 89.626909 -13.05 
L 89.525455 -13.05 
L 89.424 -13.05 
L 89.322545 -13.05 
L 89.221091 -13.05 
L 89.119636 -13.05 
L 89.018182 -13.05 
L 88.916727 -13.05 
L 88.815273 -13.05 
L 88.713818 -13.05 
L 88.612364 -13.05 
L 88.510909 -13.05 
L 88.409455 -13.05 
L 88.308 -13.05 
L 88.206545 -13.05 
L 88.105091 -13.05 
L 88.003636 -13.05 
L 87.902182 -13.05 
L 87.800727 -13.05 
L 87.699273 -13.05 
L 87.597818 -13.05 
L 87.496364 -13.05 
L 87.394909 -13.05 
L 87.293455 -13.05 
L 87.192 -13.05 
L 87.090545 -13.05 
L 86.989091 -13.05 
L 86.887636 -13.05 
L 86.786182 -13.05 
L 86.684727 -13.05 
L 86.583273 -13.05 
L 86.481818 -13.05 
L 86.380364 -13.05 
L 86.278909 -13.05 
L 86.177455 -13.05 
L 86.076 -13.05 
L 85.974545 -13.05 
L 85.873091 -13.05 
L 85.771636 -13.05 
L 85.670182 -13.05 
L 85.568727 -13.05 
L 85.467273 -13.05 
L 85.365818 -13.05 
L 85.264364 -13.05 
L 85.162909 -13.05 
L 85.061455 -13.05 
L 84.96 -13.05 
L 84.858545 -13.05 
L 84.757091 -13.05 
L 84.655636 -13.05 
L 84.554182 -13.05 
L 84.452727 -13.05 
L 84.351273 -13.05 
L 84.249818 -13.05 
L 84.148364 -13.05 
L 84.046909 -13.05 
L 83.945455 -13.05 
L 83.844 -13.05 
L 83.742545 -13.05 
L 83.641091 -13.05 
L 83.539636 -13.05 
L 83.438182 -13.05 
L 83.336727 -13.05 
L 83.235273 -13.05 
L 83.133818 -13.05 
L 83.032364 -13.05 
L 82.930909 -13.05 
L 82.829455 -13.05 
L 82.728 -13.05 
L 82.626545 -13.05 
L 82.525091 -13.05 
L 82.423636 -13.05 
L 82.322182 -13.05 
L 82.220727 -13.05 
L 82.119273 -13.05 
L 82.017818 -13.05 
L 81.916364 -13.05 
L 81.814909 -13.05 
L 81.713455 -13.05 
L 81.612 -13.05 
L 81.510545 -13.05 
L 81.409091 -13.05 
L 81.307636 -13.05 
L 81.206182 -13.05 
L 81.104727 -13.05 
L 81.003273 -13.05 
L 80.901818 -13.05 
L 80.800364 -13.05 
L 80.698909 -13.05 
L 80.597455 -13.05 
L 80.496 -13.05 
L 80.394545 -13.05 
L 80.293091 -13.05 
L 80.191636 -13.05 
L 80.090182 -13.05 
L 79.988727 -13.05 
L 79.887273 -13.05 
L 79.785818 -13.05 
L 79.684364 -13.05 
L 79.582909 -13.05 
L 79.481455 -13.05 
L 79.38 -13.05 
L 79.278545 -13.05 
L 79.177091 -13.05 
L 79.075636 -13.05 
L 78.974182 -13.05 
L 78.872727 -13.05 
L 78.771273 -13.05 
L 78.669818 -13.05 
L 78.568364 -13.05 
L 78.466909 -13.05 
L 78.365455 -13.05 
L 78.264 -13.05 
L 78.162545 -13.05 
L 78.061091 -13.05 
L 77.959636 -13.05 
L 77.858182 -13.05 
L 77.756727 -13.05 
L 77.655273 -13.05 
L 77.553818 -13.05 
L 77.452364 -13.05 
L 77.350909 -13.05 
L 77.249455 -13.05 
L 77.148 -13.05 
L 77.046545 -13.05 
L 76.945091 -13.05 
L 76.843636 -13.05 
L 76.742182 -13.05 
L 76.640727 -13.05 
L 76.539273 -13.05 
L 76.437818 -13.05 
L 76.336364 -13.05 
L 76.234909 -13.05 
L 76.133455 -13.05 
L 76.032 -13.05 
L 75.930545 -13.05 
L 75.829091 -13.05 
L 75.727636 -13.05 
L 75.626182 -13.05 
L 75.524727 -13.05 
L 75.423273 -13.05 
L 75.321818 -13.05 
L 75.220364 -13.05 
L 75.118909 -13.05 
L 75.017455 -13.05 
L 74.916 -13.05 
L 74.814545 -13.05 
L 74.713091 -13.05 
L 74.611636 -13.05 
L 74.510182 -13.05 
L 74.408727 -13.05 
L 74.307273 -13.05 
L 74.205818 -13.05 
L 74.104364 -13.05 
L 74.002909 -13.05 
L 73.901455 -13.05 
L 73.8 -13.05 
L 73.698545 -13.05 
L 73.597091 -13.05 
L 73.495636 -13.05 
L 73.394182 -13.05 
L 73.292727 -13.05 
L 73.191273 -13.05 
L 73.089818 -13.05 
L 72.988364 -13.05 
L 72.886909 -13.05 
L 72.785455 -13.05 
L 72.684 -13.05 
L 72.582545 -13.05 
L 72.481091 -13.05 
L 72.379636 -13.05 
L 72.278182 -13.05 
L 72.176727 -13.05 
L 72.075273 -13.05 
L 71.973818 -13.05 
L 71.872364 -13.05 
L 71.770909 -13.05 
L 71.669455 -13.05 
L 71.568 -13.05 
L 71.466545 -13.05 
L 71.365091 -13.05 
L 71.263636 -13.05 
L 71.162182 -13.05 
L 71.060727 -13.05 
L 70.959273 -13.05 
L 70.857818 -13.05 
L 70.756364 -13.05 
L 70.654909 -13.05 
L 70.553455 -13.05 
L 70.452 -13.05 
L 70.350545 -13.05 
L 70.249091 -13.05 
L 70.147636 -13.05 
L 70.046182 -13.05 
L 69.944727 -13.05 
L 69.843273 -13.05 
L 69.741818 -13.05 
L 69.640364 -13.05 
L 69.538909 -13.05 
L 69.437455 -13.05 
L 69.336 -13.05 
L 69.234545 -13.05 
L 69.133091 -13.05 
L 69.031636 -13.05 
L 68.930182 -13.05 
L 68.828727 -13.05 
L 68.727273 -13.05 
L 68.625818 -13.05 
L 68.524364 -13.05 
L 68.422909 -13.05 
L 68.321455 -13.05 
L 68.22 -13.05 
L 68.118545 -13.05 
L 68.017091 -13.05 
L 67.915636 -13.05 
L 67.814182 -13.05 
L 67.712727 -13.05 
L 67.611273 -13.05 
L 67.509818 -13.05 
L 67.408364 -13.05 
L 67.306909 -13.05 
L 67.205455 -13.05 
L 67.104 -13.05 
L 67.002545 -13.05 
L 66.901091 -13.05 
L 66.799636 -13.05 
L 66.698182 -13.05 
L 66.596727 -13.05 
L 66.495273 -13.05 
L 66.393818 -13.05 
L 66.292364 -13.05 
L 66.190909 -13.05 
L 66.089455 -13.05 
L 65.988 -13.05 
L 65.886545 -13.05 
L 65.785091 -13.05 
L 65.683636 -13.05 
L 65.582182 -13.05 
L 65.480727 -13.05 
L 65.379273 -13.05 
L 65.277818 -13.05 
L 65.176364 -13.05 
L 65.074909 -13.05 
L 64.973455 -13.05 
L 64.872 -13.05 
L 64.770545 -13.05 
L 64.669091 -13.05 
L 64.567636 -13.05 
L 64.466182 -13.05 
L 64.364727 -13.05 
L 64.263273 -13.05 
L 64.161818 -13.05 
L 64.060364 -13.05 
L 63.958909 -13.05 
L 63.857455 -13.05 
L 63.756 -13.05 
L 63.654545 -13.05 
L 63.553091 -13.05 
L 63.451636 -13.05 
L 63.350182 -13.05 
L 63.248727 -13.05 
L 63.147273 -13.05 
L 63.045818 -13.05 
L 62.944364 -13.05 
L 62.842909 -13.05 
L 62.741455 -13.05 
L 62.64 -13.05 
L 62.538545 -13.05 
L 62.437091 -13.05 
L 62.335636 -13.05 
L 62.234182 -13.05 
L 62.132727 -13.05 
L 62.031273 -13.05 
L 61.929818 -13.05 
L 61.828364 -13.05 
L 61.726909 -13.05 
L 61.625455 -13.05 
L 61.524 -13.05 
L 61.422545 -13.05 
L 61.321091 -13.05 
L 61.219636 -13.05 
L 61.118182 -13.05 
L 61.016727 -13.05 
L 60.915273 -13.05 
L 60.813818 -13.05 
L 60.712364 -13.05 
L 60.610909 -13.05 
L 60.509455 -13.05 
L 60.408 -13.05 
L 60.306545 -13.05 
L 60.205091 -13.05 
L 60.103636 -13.05 
L 60.002182 -13.05 
L 59.900727 -13.05 
L 59.799273 -13.05 
L 59.697818 -13.05 
L 59.596364 -13.05 
L 59.494909 -13.05 
L 59.393455 -13.05 
L 59.292 -13.05 
L 59.190545 -13.05 
L 59.089091 -13.05 
L 58.987636 -13.05 
L 58.886182 -13.05 
L 58.784727 -13.05 
L 58.683273 -13.05 
L 58.581818 -13.05 
L 58.480364 -13.05 
L 58.378909 -13.05 
L 58.277455 -13.05 
L 58.176 -13.05 
L 58.074545 -13.05 
L 57.973091 -13.05 
L 57.871636 -13.05 
L 57.770182 -13.05 
L 57.668727 -13.05 
L 57.567273 -13.05 
L 57.465818 -13.05 
L 57.364364 -13.05 
L 57.262909 -13.05 
L 57.161455 -13.05 
L 57.06 -13.05 
L 56.958545 -13.05 
L 56.857091 -13.05 
L 56.755636 -13.05 
L 56.654182 -13.05 
L 56.552727 -13.05 
L 56.451273 -13.05 
L 56.349818 -13.05 
L 56.248364 -13.05 
L 56.146909 -13.05 
L 56.045455 -13.05 
L 55.944 -13.05 
L 55.842545 -13.05 
L 55.741091 -13.05 
L 55.639636 -13.05 
L 55.538182 -13.05 
L 55.436727 -13.05 
L 55.335273 -13.05 
L 55.233818 -13.05 
L 55.132364 -13.05 
L 55.030909 -13.05 
L 54.929455 -13.05 
L 54.828 -13.05 
L 54.726545 -13.05 
L 54.625091 -13.05 
L 54.523636 -13.05 
L 54.422182 -13.05 
L 54.320727 -13.05 
L 54.219273 -13.05 
L 54.117818 -13.05 
L 54.016364 -13.05 
L 53.914909 -13.05 
L 53.813455 -13.05 
L 53.712 -13.05 
L 53.610545 -13.05 
L 53.509091 -13.05 
L 53.407636 -13.05 
L 53.306182 -13.05 
L 53.204727 -13.05 
L 53.103273 -13.05 
L 53.001818 -13.05 
L 52.900364 -13.05 
L 52.798909 -13.05 
L 52.697455 -13.05 
L 52.596 -13.05 
L 52.494545 -13.05 
L 52.393091 -13.05 
L 52.291636 -13.05 
L 52.190182 -13.05 
L 52.088727 -13.05 
L 51.987273 -13.05 
L 51.885818 -13.05 
L 51.784364 -13.05 
L 51.682909 -13.05 
L 51.581455 -13.05 
L 51.48 -13.05 
L 51.378545 -13.05 
L 51.277091 -13.05 
L 51.175636 -13.05 
L 51.074182 -13.05 
L 50.972727 -13.05 
L 50.871273 -13.05 
L 50.769818 -13.05 
L 50.668364 -13.05 
L 50.566909 -13.05 
L 50.465455 -13.05 
L 50.364 -13.05 
L 50.262545 -13.05 
L 50.161091 -13.05 
L 50.059636 -13.05 
L 49.958182 -13.05 
L 49.856727 -13.05 
L 49.755273 -13.05 
L 49.653818 -13.05 
L 49.552364 -13.05 
L 49.450909 -13.05 
L 49.349455 -13.05 
L 49.248 -13.05 
L 49.146545 -13.05 
L 49.045091 -13.05 
L 48.943636 -13.05 
L 48.842182 -13.05 
L 48.740727 -13.05 
L 48.639273 -13.05 
L 48.537818 -13.05 
L 48.436364 -13.05 
L 48.334909 -13.05 
L 48.233455 -13.05 
L 48.132 -13.05 
L 48.030545 -13.05 
L 47.929091 -13.05 
L 47.827636 -13.05 
L 47.726182 -13.05 
L 47.624727 -13.05 
L 47.523273 -13.05 
L 47.421818 -13.05 
L 47.320364 -13.05 
L 47.218909 -13.05 
L 47.117455 -13.05 
L 47.016 -13.05 
L 46.914545 -13.05 
L 46.813091 -13.05 
L 46.711636 -13.05 
L 46.610182 -13.05 
L 46.508727 -13.05 
L 46.407273 -13.05 
L 46.305818 -13.05 
L 46.204364 -13.05 
L 46.102909 -13.05 
L 46.001455 -13.05 
L 45.9 -13.05 
L 45.798545 -13.05 
L 45.697091 -13.05 
L 45.595636 -13.05 
L 45.494182 -13.05 
L 45.392727 -13.05 
L 45.291273 -13.05 
L 45.189818 -13.05 
L 45.088364 -13.05 
L 44.986909 -13.05 
L 44.885455 -13.05 
L 44.784 -13.05 
L 44.682545 -13.05 
L 44.581091 -13.05 
L 44.479636 -13.05 
L 44.378182 -13.05 
L 44.276727 -13.05 
L 44.175273 -13.05 
L 44.073818 -13.05 
L 43.972364 -13.05 
L 43.870909 -13.05 
L 43.769455 -13.05 
L 43.668 -13.05 
L 43.566545 -13.05 
L 43.465091 -13.05 
L 43.363636 -13.05 
L 43.262182 -13.05 
L 43.160727 -13.05 
L 43.059273 -13.05 
L 42.957818 -13.05 
L 42.856364 -13.05 
L 42.754909 -13.05 
L 42.653455 -13.05 
L 42.552 -13.05 
L 42.450545 -13.05 
L 42.349091 -13.05 
L 42.247636 -13.05 
L 42.146182 -13.05 
L 42.044727 -13.05 
L 41.943273 -13.05 
L 41.841818 -13.05 
L 41.740364 -13.05 
L 41.638909 -13.05 
L 41.537455 -13.05 
L 41.436 -13.05 
L 41.334545 -13.05 
L 41.233091 -13.05 
L 41.131636 -13.05 
L 41.030182 -13.05 
L 40.928727 -13.05 
L 40.827273 -13.05 
L 40.725818 -13.05 
L 40.624364 -13.05 
L 40.522909 -13.05 
L 40.421455 -13.05 
L 40.32 -13.05 
L 40.218545 -13.05 
L 40.117091 -13.05 
L 40.015636 -13.05 
L 39.914182 -13.05 
L 39.812727 -13.05 
L 39.711273 -13.05 
L 39.609818 -13.05 
L 39.508364 -13.05 
L 39.406909 -13.05 
L 39.305455 -13.05 
L 39.204 -13.05 
L 39.102545 -13.05 
L 39.001091 -13.05 
L 38.899636 -13.05 
L 38.798182 -13.05 
L 38.696727 -13.05 
L 38.595273 -13.05 
L 38.493818 -13.05 
L 38.392364 -13.05 
L 38.290909 -13.05 
L 38.189455 -13.05 
L 38.088 -13.05 
L 37.986545 -13.05 
L 37.885091 -13.05 
L 37.783636 -13.05 
L 37.682182 -13.05 
L 37.580727 -13.05 
L 37.479273 -13.05 
L 37.377818 -13.05 
L 37.276364 -13.05 
L 37.174909 -13.05 
L 37.073455 -13.05 
L 36.972 -13.05 
L 36.870545 -13.05 
L 36.769091 -13.05 
L 36.667636 -13.05 
L 36.566182 -13.05 
L 36.464727 -13.05 
L 36.363273 -13.05 
L 36.261818 -13.05 
L 36.160364 -13.05 
L 36.058909 -13.05 
L 35.957455 -13.05 
L 35.856 -13.05 
L 35.754545 -13.05 
L 35.653091 -13.05 
L 35.551636 -13.05 
L 35.450182 -13.05 
L 35.348727 -13.05 
L 35.247273 -13.05 
L 35.145818 -13.05 
L 35.044364 -13.05 
L 34.942909 -13.05 
L 34.841455 -13.05 
L 34.74 -13.05 
L 34.638545 -13.05 
L 34.537091 -13.05 
L 34.435636 -13.05 
L 34.334182 -13.05 
L 34.232727 -13.05 
L 34.131273 -13.05 
L 34.029818 -13.05 
L 33.928364 -13.05 
L 33.826909 -13.05 
L 33.725455 -13.05 
L 33.624 -13.05 
L 33.522545 -13.05 
L 33.421091 -13.05 
L 33.319636 -13.05 
L 33.218182 -13.05 
L 33.116727 -13.05 
L 33.015273 -13.05 
L 32.913818 -13.05 
L 32.812364 -13.05 
L 32.710909 -13.05 
L 32.609455 -13.05 
L 32.508 -13.05 
L 32.406545 -13.05 
L 32.305091 -13.05 
L 32.203636 -13.05 
L 32.102182 -13.05 
L 32.000727 -13.05 
L 31.899273 -13.05 
L 31.797818 -13.05 
L 31.696364 -13.05 
L 31.594909 -13.05 
L 31.493455 -13.05 
L 31.392 -13.05 
L 31.290545 -13.05 
L 31.189091 -13.05 
L 31.087636 -13.05 
L 30.986182 -13.05 
L 30.884727 -13.05 
L 30.783273 -13.05 
L 30.681818 -13.05 
L 30.580364 -13.05 
L 30.478909 -13.05 
L 30.377455 -13.05 
L 30.276 -13.05 
L 30.174545 -13.05 
L 30.073091 -13.05 
L 29.971636 -13.05 
L 29.870182 -13.05 
L 29.768727 -13.05 
L 29.667273 -13.05 
L 29.565818 -13.05 
L 29.464364 -13.05 
L 29.362909 -13.05 
L 29.261455 -13.05 
L 29.16 -13.05 
L 29.058545 -13.05 
L 28.957091 -13.05 
L 28.855636 -13.05 
L 28.754182 -13.05 
L 28.652727 -13.05 
L 28.551273 -13.05 
L 28.449818 -13.05 
L 28.348364 -13.05 
L 28.246909 -13.05 
L 28.145455 -13.05 
L 28.044 -13.05 
L 27.942545 -13.05 
L 27.841091 -13.05 
L 27.739636 -13.05 
L 27.638182 -13.05 
L 27.536727 -13.05 
L 27.435273 -13.05 
L 27.333818 -13.05 
L 27.232364 -13.05 
L 27.130909 -13.05 
L 27.029455 -13.05 
L 26.928 -13.05 
L 26.826545 -13.05 
L 26.725091 -13.05 
L 26.623636 -13.05 
L 26.522182 -13.05 
L 26.420727 -13.05 
L 26.319273 -13.05 
L 26.217818 -13.05 
L 26.116364 -13.05 
L 26.014909 -13.05 
L 25.913455 -13.05 
L 25.812 -13.05 
L 25.710545 -13.05 
L 25.609091 -13.05 
L 25.507636 -13.05 
L 25.406182 -13.05 
L 25.304727 -13.05 
L 25.203273 -13.05 
L 25.101818 -13.05 
L 25.000364 -13.05 
L 24.898909 -13.05 
L 24.797455 -13.05 
L 24.696 -13.05 
L 24.594545 -13.05 
L 24.493091 -13.05 
L 24.391636 -13.05 
L 24.290182 -13.05 
L 24.188727 -13.05 
L 24.087273 -13.05 
L 23.985818 -13.05 
L 23.884364 -13.05 
L 23.782909 -13.05 
L 23.681455 -13.05 
L 23.58 -13.05 
L 23.478545 -13.05 
L 23.377091 -13.05 
L 23.275636 -13.05 
L 23.174182 -13.05 
L 23.072727 -13.05 
z
" style="stroke: #ff0000; stroke-opacity: 0.25"/>
    </defs>
    <g clip-path="url(#p4108e8faa7)">
     <use xlink:href="#mcb89ffd744" x="0" y="90" style="fill: #ff0000; fill-opacity: 0.25; stroke: #ff0000; stroke-opacity: 0.25"/>
    </g>
   </g>
   <g id="line2d_23">
    <path d="M 35.754545 80.1 
L 35.754545 10.8 
" clip-path="url(#p4108e8faa7)" style="fill: none; stroke-dasharray: 7.4,3.2; stroke-dashoffset: 0; stroke: #008000; stroke-width: 2"/>
   </g>
   <g id="LineCollection_1">
    <path d="M 23.072727 76.95 
L 124.527273 76.95 
" clip-path="url(#p4108e8faa7)" style="fill: none; stroke: #000000; stroke-width: 1.5"/>
   </g>
   <g id="patch_3">
    <path d="M 18 80.1 
L 18 10.8 
" style="fill: none; stroke: #000000; stroke-width: 0.8; stroke-linejoin: miter; stroke-linecap: square"/>
   </g>
   <g id="patch_4">
    <path d="M 129.6 80.1 
L 129.6 10.8 
" style="fill: none; stroke: #000000; stroke-width: 0.8; stroke-linejoin: miter; stroke-linecap: square"/>
   </g>
   <g id="patch_5">
    <path d="M 18 80.1 
L 129.6 80.1 
" style="fill: none; stroke: #000000; stroke-width: 0.8; stroke-linejoin: miter; stroke-linecap: square"/>
   </g>
   <g id="patch_6">
    <path d="M 18 10.8 
L 129.6 10.8 
" style="fill: none; stroke: #000000; stroke-width: 0.8; stroke-linejoin: miter; stroke-linecap: square"/>
   </g>
   <g id="text_9">
    <!-- $\Delta\alpha$ -->
    <g transform="translate(65.7 4.8) scale(0.12 -0.12)">
     <defs>
      <path id="DejaVuSans-394" d="M 2188 4044 
L 906 525 
L 3472 525 
L 2188 4044 
z
M 50 0 
L 1831 4666 
L 2547 4666 
L 4325 0 
L 50 0 
z
" transform="scale(0.015625)"/>
      <path id="DejaVuSans-Oblique-3b1" d="M 2619 1628 
L 2622 2350 
Q 2625 3088 2069 3091 
Q 1653 3094 1394 2747 
Q 1069 2319 959 1747 
Q 825 1059 994 731 
Q 1169 397 1547 397 
Q 1966 397 2319 1063 
L 2619 1628 
z
M 2166 3578 
Q 3141 3594 3128 2584 
Q 3128 2584 3616 3500 
L 4128 3500 
L 3119 1603 
L 3109 919 
Q 3109 766 3194 638 
Q 3291 488 3391 488 
L 3669 488 
L 3575 0 
L 3228 0 
Q 2934 0 2722 263 
Q 2622 394 2619 669 
Q 2416 334 2066 50 
Q 1900 -81 1453 -78 
Q 722 -72 456 397 
Q 184 884 353 1747 
Q 534 2675 1009 3097 
Q 1544 3569 2166 3578 
z
" transform="scale(0.015625)"/>
     </defs>
     <use xlink:href="#DejaVuSans-394" transform="translate(0 0.09375)"/>
     <use xlink:href="#DejaVuSans-Oblique-3b1" transform="translate(68.408203 0.09375)"/>
    </g>
   </g>
  </g>
  <g id="axes_2">
   <g id="matplotlib.axis_3">
    <g id="ytick_4">
     <g id="line2d_24">
      <defs>
       <path id="mcdaa9da6e5" d="M 0 0 
L 3.5 0 
" style="stroke: #000000; stroke-width: 0.8"/>
      </defs>
      <g>
       <use xlink:href="#mcdaa9da6e5" x="129.6" y="48.855678" style="stroke: #000000; stroke-width: 0.8"/>
      </g>
     </g>
     <g id="text_10">
      <!-- 1 -->
      <g transform="translate(136.6 52.654897) scale(0.1 -0.1)">
       <use xlink:href="#DejaVuSans-31"/>
      </g>
     </g>
    </g>
    <g id="ytick_5">
     <g id="line2d_25">
      <g>
       <use xlink:href="#mcdaa9da6e5" x="129.6" y="14.141551" style="stroke: #000000; stroke-width: 0.8"/>
      </g>
     </g>
     <g id="text_11">
      <!-- 2 -->
      <g transform="translate(136.6 17.94077) scale(0.1 -0.1)">
       <defs>
        <path id="DejaVuSans-32" d="M 1228 531 
L 3431 531 
L 3431 0 
L 469 0 
L 469 531 
Q 828 903 1448 1529 
Q 2069 2156 2228 2338 
Q 2531 2678 2651 2914 
Q 2772 3150 2772 3378 
Q 2772 3750 2511 3984 
Q 2250 4219 1831 4219 
Q 1534 4219 1204 4116 
Q 875 4013 500 3803 
L 500 4441 
Q 881 4594 1212 4672 
Q 1544 4750 1819 4750 
Q 2544 4750 2975 4387 
Q 3406 4025 3406 3419 
Q 3406 3131 3298 2873 
Q 3191 2616 2906 2266 
Q 2828 2175 2409 1742 
Q 1991 1309 1228 531 
z
" transform="scale(0.015625)"/>
       </defs>
       <use xlink:href="#DejaVuSans-32"/>
      </g>
     </g>
    </g>
    <g id="text_12">
     <!-- $d(x)$ -->
     <g transform="translate(154.560937 55.5) rotate(-90) scale(0.1 -0.1)">
      <defs>
       <path id="DejaVuSans-Oblique-64" d="M 2675 525 
Q 2444 222 2128 65 
Q 1813 -91 1428 -91 
Q 903 -91 598 267 
Q 294 625 294 1247 
Q 294 1766 478 2236 
Q 663 2706 1013 3078 
Q 1244 3325 1534 3454 
Q 1825 3584 2144 3584 
Q 2481 3584 2739 3421 
Q 2997 3259 3138 2956 
L 3513 4863 
L 4091 4863 
L 3144 0 
L 2566 0 
L 2675 525 
z
M 891 1350 
Q 891 897 1095 644 
Q 1300 391 1663 391 
Q 1931 391 2161 520 
Q 2391 650 2566 903 
Q 2750 1166 2856 1509 
Q 2963 1853 2963 2188 
Q 2963 2622 2758 2865 
Q 2553 3109 2194 3109 
Q 1922 3109 1687 2981 
Q 1453 2853 1288 2613 
Q 1106 2353 998 2009 
Q 891 1666 891 1350 
z
" transform="scale(0.015625)"/>
      </defs>
      <use xlink:href="#DejaVuSans-Oblique-64" transform="translate(0 0.015625)"/>
      <use xlink:href="#DejaVuSans-28" transform="translate(63.476562 0.015625)"/>
      <use xlink:href="#DejaVuSans-Oblique-78" transform="translate(102.490234 0.015625)"/>
      <use xlink:href="#DejaVuSans-29" transform="translate(161.669922 0.015625)"/>
     </g>
    </g>
   </g>
   <g id="line2d_26">
    <path d="M 23.072727 74.450495 
L 24.797455 71.591412 
L 26.623636 68.094787 
L 28.652727 63.691983 
L 34.029818 51.64514 
L 35.247273 49.642393 
L 36.261818 48.374691 
L 37.174909 47.560566 
L 38.088 47.034968 
L 39.102545 46.728762 
L 40.32 46.611931 
L 43.059273 46.425478 
L 44.276727 46.077757 
L 45.697091 45.430504 
L 48.740727 43.94646 
L 49.856727 43.68502 
L 50.972727 43.656499 
L 52.291636 43.864924 
L 54.828 44.320332 
L 55.842545 44.229391 
L 56.755636 43.918823 
L 57.668727 43.38017 
L 58.784727 42.455677 
L 62.538545 39.085012 
L 63.451636 38.708911 
L 64.263273 38.621236 
L 65.074909 38.762936 
L 65.988 39.159322 
L 67.205455 39.950753 
L 69.538909 41.518775 
L 70.553455 41.919157 
L 71.466545 42.041009 
L 72.379636 41.921803 
L 73.292727 41.575687 
L 74.408727 40.896719 
L 75.829091 39.752223 
L 78.162545 37.541146 
L 80.191636 35.357978 
L 81.612 33.52857 
L 82.930909 31.475787 
L 84.351273 28.825325 
L 86.076 25.095771 
L 89.119636 18.447001 
L 90.337091 16.365478 
L 91.250182 15.190008 
L 92.061818 14.462982 
L 92.772 14.084841 
L 93.482182 13.95 
L 94.192364 14.055294 
L 94.902545 14.394103 
L 95.714182 15.056398 
L 96.627273 16.136183 
L 97.641818 17.730102 
L 98.757818 19.936256 
L 99.975273 22.85286 
L 101.395636 26.884861 
L 102.917455 31.893145 
L 104.845091 39.081479 
L 110.120727 59.377332 
L 111.541091 63.656795 
L 112.758545 66.653582 
L 113.874545 68.859459 
L 114.990545 70.594791 
L 116.106545 71.930614 
L 117.324 73.028956 
L 118.642909 73.917953 
L 120.469091 74.861234 
L 124.02 76.645442 
L 124.527273 76.95 
L 124.527273 76.95 
" clip-path="url(#p4108e8faa7)" style="fill: none; stroke: #000000; stroke-width: 1.5; stroke-linecap: square"/>
   </g>
   <g id="patch_7">
    <path d="M 18 80.1 
L 18 10.8 
" style="fill: none; stroke: #000000; stroke-width: 0.8; stroke-linejoin: miter; stroke-linecap: square"/>
   </g>
   <g id="patch_8">
    <path d="M 129.6 80.1 
L 129.6 10.8 
" style="fill: none; stroke: #000000; stroke-width: 0.8; stroke-linejoin: miter; stroke-linecap: square"/>
   </g>
   <g id="patch_9">
    <path d="M 18 80.1 
L 129.6 80.1 
" style="fill: none; stroke: #000000; stroke-width: 0.8; stroke-linejoin: miter; stroke-linecap: square"/>
   </g>
   <g id="patch_10">
    <path d="M 18 10.8 
L 129.6 10.8 
" style="fill: none; stroke: #000000; stroke-width: 0.8; stroke-linejoin: miter; stroke-linecap: square"/>
   </g>
  </g>
 </g>
 <defs>
  <clipPath id="p4108e8faa7">
   <rect x="18" y="10.8" width="111.6" height="69.3"/>
  </clipPath>
 </defs>
</svg>
