<?xml version="1.0" encoding="utf-8" standalone="no"?>
<!DOCTYPE svg PUBLIC "-//W3C//DTD SVG 1.1//EN"
  "http://www.w3.org/Graphics/SVG/1.1/DTD/svg11.dtd">
<svg xmlns:xlink="http://www.w3.org/1999/xlink" width="144pt" height="90pt" viewBox="0 0 144 90" xmlns="http://www.w3.org/2000/svg" version="1.1">
 <metadata>
  <rdf:RDF xmlns:dc="http://purl.org/dc/elements/1.1/" xmlns:cc="http://creativecommons.org/ns#" xmlns:rdf="http://www.w3.org/1999/02/22-rdf-syntax-ns#">
   <cc:Work>
    <dc:type rdf:resource="http://purl.org/dc/dcmitype/StillImage"/>
    <dc:date>2024-08-26T15:46:58.384726</dc:date>
    <dc:format>image/svg+xml</dc:format>
    <dc:creator>
     <cc:Agent>
      <dc:title>Matplotlib v3.7.3, https://matplotlib.org/</dc:title>
     </cc:Agent>
    </dc:creator>
   </cc:Work>
  </rdf:RDF>
 </metadata>
 <defs>
  <style type="text/css">*{stroke-linejoin: round; stroke-linecap: butt}</style>
 </defs>
 <g id="figure_1">
  <g id="patch_1">
   <path d="M 0 90 
L 144 90 
L 144 0 
L 0 0 
z
" style="fill: #ffffff"/>
  </g>
  <g id="axes_1">
   <g id="patch_2">
    <path d="M 18 80.1 
L 129.6 80.1 
L 129.6 10.8 
L 18 10.8 
z
" style="fill: #ffffff"/>
   </g>
   <g id="line2d_1">
    <path d="M 23.072727 69.770643 
L 23.985818 69.844707 
L 24.898909 70.142193 
L 26.014909 70.767049 
L 27.435273 71.849877 
L 31.189091 74.847698 
L 32.609455 75.646697 
L 34.029818 76.202955 
L 35.653091 76.590724 
L 37.682182 76.825408 
L 40.827273 76.93241 
L 51.784364 76.949999 
L 124.527273 76.95 
L 124.527273 76.95 
" clip-path="url(#pe3a4bf004a)" style="fill: none; stroke: #440154; stroke-width: 1.5; stroke-linecap: square"/>
   </g>
   <g id="line2d_2">
    <path d="M 23.072727 76.730611 
L 24.696 76.418563 
L 26.014909 75.938656 
L 27.130909 75.296428 
L 28.145455 74.470891 
L 29.261455 73.254348 
L 30.377455 71.701119 
L 31.797818 69.301106 
L 35.348727 63.03557 
L 36.261818 61.956874 
L 36.972 61.412369 
L 37.580727 61.177911 
L 38.189455 61.168809 
L 38.798182 61.385453 
L 39.508364 61.91067 
L 40.32 62.832177 
L 41.334545 64.366335 
L 42.957818 67.317546 
L 45.189818 71.306788 
L 46.508727 73.193441 
L 47.624727 74.424697 
L 48.740727 75.332602 
L 49.856727 75.963038 
L 51.074182 76.405109 
L 52.596 76.710865 
L 54.726545 76.8851 
L 58.886182 76.946941 
L 106.468364 76.95 
L 124.527273 76.95 
L 124.527273 76.95 
" clip-path="url(#pe3a4bf004a)" style="fill: none; stroke: #48186a; stroke-width: 1.5; stroke-linecap: square"/>
   </g>
   <g id="line2d_3">
    <path d="M 23.072727 76.836544 
L 25.203273 76.581969 
L 26.725091 76.184365 
L 28.044 75.606851 
L 29.261455 74.824839 
L 30.478909 73.775728 
L 31.899273 72.236735 
L 36.261818 67.228649 
L 37.174909 66.648931 
L 37.986545 66.395684 
L 38.696727 66.393031 
L 39.406909 66.595332 
L 40.218545 67.061973 
L 41.131636 67.844781 
L 42.349091 69.193908 
L 46.407273 73.952092 
L 47.726182 75.032195 
L 48.943636 75.754204 
L 50.262545 76.278285 
L 51.784364 76.632533 
L 53.712 76.84203 
L 56.958545 76.937333 
L 70.857818 76.95 
L 124.527273 76.95 
L 124.527273 76.95 
" clip-path="url(#pe3a4bf004a)" style="fill: none; stroke: #472d7b; stroke-width: 1.5; stroke-linecap: square"/>
   </g>
   <g id="line2d_4">
    <path d="M 23.072727 76.885678 
L 25.609091 76.676821 
L 27.333818 76.316817 
L 28.754182 75.789917 
L 30.073091 75.052515 
L 31.392 74.049257 
L 32.913818 72.597708 
L 36.566182 68.967368 
L 37.580727 68.332813 
L 38.493818 68.029071 
L 39.305455 67.996966 
L 40.117091 68.191849 
L 41.030182 68.663512 
L 42.044727 69.448397 
L 43.566545 70.95544 
L 46.508727 73.939594 
L 47.929091 75.036065 
L 49.248 75.778366 
L 50.668364 76.309633 
L 52.291636 76.658329 
L 54.422182 76.861052 
L 58.074545 76.942295 
L 79.582909 76.95 
L 124.527273 76.95 
L 124.527273 76.95 
" clip-path="url(#pe3a4bf004a)" style="fill: none; stroke: #424086; stroke-width: 1.5; stroke-linecap: square"/>
   </g>
   <g id="line2d_5">
    <path d="M 23.072727 76.949935 
L 32.203636 76.844081 
L 34.232727 76.597545 
L 35.653091 76.206554 
L 36.769091 75.68512 
L 37.783636 74.983805 
L 38.798182 74.013484 
L 39.812727 72.736274 
L 40.928727 70.964242 
L 42.247636 68.434879 
L 46.001455 60.91137 
L 46.914545 59.727593 
L 47.624727 59.150014 
L 48.233455 58.92298 
L 48.842182 58.954067 
L 49.450909 59.241941 
L 50.059636 59.774329 
L 50.871273 60.824649 
L 51.885818 62.574633 
L 53.407636 65.724351 
L 55.741091 70.499323 
L 56.958545 72.507873 
L 58.074545 73.95013 
L 59.190545 75.019836 
L 60.306545 75.766779 
L 61.524 76.293486 
L 62.944364 76.642979 
L 64.770545 76.84702 
L 67.915636 76.938418 
L 82.423636 76.95 
L 124.527273 76.95 
L 124.527273 76.95 
" clip-path="url(#pe3a4bf004a)" style="fill: none; stroke: #3b528b; stroke-width: 1.5; stroke-linecap: square"/>
   </g>
   <g id="line2d_6">
    <path d="M 23.072727 76.95 
L 40.624364 76.842718 
L 42.754909 76.592673 
L 44.276727 76.192459 
L 45.494182 75.654804 
L 46.610182 74.936837 
L 47.726182 73.968721 
L 48.943636 72.620326 
L 50.465455 70.584344 
L 53.407636 66.559704 
L 54.422182 65.5704 
L 55.233818 65.058994 
L 55.944 64.849494 
L 56.654182 64.875301 
L 57.364364 65.134913 
L 58.176 65.698097 
L 59.089091 66.62062 
L 60.306545 68.187053 
L 64.161818 73.390065 
L 65.379273 74.574324 
L 66.596727 75.453361 
L 67.814182 76.059915 
L 69.133091 76.474982 
L 70.756364 76.750129 
L 73.089818 76.901872 
L 78.162545 76.94895 
L 124.527273 76.95 
L 124.527273 76.95 
" clip-path="url(#pe3a4bf004a)" style="fill: none; stroke: #33638d; stroke-width: 1.5; stroke-linecap: square"/>
   </g>
   <g id="line2d_7">
    <path d="M 23.072727 76.95 
L 47.016 76.840062 
L 48.943636 76.592181 
L 50.262545 76.211756 
L 51.378545 75.657546 
L 52.393091 74.888044 
L 53.306182 73.916077 
L 54.219273 72.628261 
L 55.233818 70.785724 
L 56.349818 68.251117 
L 57.668727 64.671607 
L 61.118182 54.981179 
L 62.031273 53.232205 
L 62.741455 52.333806 
L 63.350182 51.930085 
L 63.857455 51.866043 
L 64.364727 52.052067 
L 64.872 52.482611 
L 65.480727 53.30365 
L 66.190909 54.636595 
L 67.104 56.828497 
L 68.524364 60.886545 
L 70.959273 67.85234 
L 72.176727 70.67011 
L 73.292727 72.699756 
L 74.307273 74.092094 
L 75.321818 75.103666 
L 76.336364 75.803958 
L 77.452364 76.302387 
L 78.771273 76.640072 
L 80.597455 76.850083 
L 83.742545 76.939504 
L 99.163636 76.95 
L 124.527273 76.95 
L 124.527273 76.95 
" clip-path="url(#pe3a4bf004a)" style="fill: none; stroke: #2c728e; stroke-width: 1.5; stroke-linecap: square"/>
   </g>
   <g id="line2d_8">
    <path d="M 23.072727 76.95 
L 64.567636 76.842139 
L 66.799636 76.58634 
L 68.321455 76.204626 
L 69.640364 75.659142 
L 70.959273 74.860587 
L 72.278182 73.789091 
L 73.901455 72.155023 
L 76.945091 69.002168 
L 78.061091 68.20933 
L 78.974182 67.836235 
L 79.785818 67.745057 
L 80.597455 67.88795 
L 81.409091 68.254114 
L 82.423636 68.983116 
L 83.742545 70.252932 
L 87.699273 74.298305 
L 89.018182 75.24907 
L 90.337091 75.930256 
L 91.757455 76.405032 
L 93.380727 76.708073 
L 95.612727 76.882992 
L 99.873818 76.946625 
L 124.527273 76.95 
L 124.527273 76.95 
" clip-path="url(#pe3a4bf004a)" style="fill: none; stroke: #26828e; stroke-width: 1.5; stroke-linecap: square"/>
   </g>
   <g id="line2d_9">
    <path d="M 23.072727 76.95 
L 56.552727 76.838977 
L 58.581818 76.597096 
L 60.103636 76.193626 
L 61.321091 75.645456 
L 62.437091 74.906011 
L 63.553091 73.898745 
L 64.770545 72.479834 
L 66.190909 70.460772 
L 69.640364 65.374212 
L 70.553455 64.462601 
L 71.365091 63.950619 
L 72.075273 63.765252 
L 72.785455 63.836796 
L 73.495636 64.161087 
L 74.307273 64.816621 
L 75.220364 65.858659 
L 76.539273 67.749481 
L 79.887273 72.724197 
L 81.104727 74.091543 
L 82.322182 75.124682 
L 83.539636 75.849652 
L 84.858545 76.354097 
L 86.380364 76.680001 
L 88.409455 76.868315 
L 92.061818 76.943655 
L 116.918182 76.95 
L 124.527273 76.95 
L 124.527273 76.95 
" clip-path="url(#pe3a4bf004a)" style="fill: none; stroke: #21918c; stroke-width: 1.5; stroke-linecap: square"/>
   </g>
   <g id="line2d_10">
    <path d="M 23.072727 76.95 
L 64.872 76.840351 
L 67.002545 76.589998 
L 68.524364 76.194583 
L 69.843273 75.614838 
L 71.060727 74.822856 
L 72.278182 73.750776 
L 73.597091 72.285193 
L 75.727636 69.512981 
L 77.452364 67.416127 
L 78.466909 66.496284 
L 79.278545 66.016377 
L 79.988727 65.814734 
L 80.698909 65.829484 
L 81.409091 66.059768 
L 82.220727 66.569268 
L 83.133818 67.410441 
L 84.452727 68.976005 
L 88.105091 73.539125 
L 89.424 74.740188 
L 90.641455 75.55592 
L 91.960364 76.156916 
L 93.380727 76.549434 
L 95.206909 76.801666 
L 97.946182 76.923784 
L 105.758182 76.949962 
L 124.527273 76.95 
L 124.527273 76.95 
" clip-path="url(#pe3a4bf004a)" style="fill: none; stroke: #1fa088; stroke-width: 1.5; stroke-linecap: square"/>
   </g>
   <g id="line2d_11">
    <path d="M 23.072727 76.95 
L 72.075273 76.842991 
L 74.104364 76.594679 
L 75.524727 76.201628 
L 76.640727 75.678235 
L 77.655273 74.97521 
L 78.669818 74.003794 
L 79.684364 72.72688 
L 80.800364 70.957936 
L 82.119273 68.437728 
L 85.771636 61.135759 
L 86.684727 59.923663 
L 87.394909 59.316498 
L 88.003636 59.060136 
L 88.612364 59.059534 
L 89.221091 59.314717 
L 89.829818 59.814793 
L 90.54 60.679161 
L 91.453091 62.15891 
L 92.772 64.778491 
L 95.714182 70.774063 
L 96.931636 72.72285 
L 98.047636 74.111177 
L 99.163636 75.133609 
L 100.279636 75.842713 
L 101.497091 76.339343 
L 102.917455 76.666443 
L 104.845091 76.861684 
L 108.294545 76.942362 
L 124.527273 76.95 
L 124.527273 76.95 
" clip-path="url(#pe3a4bf004a)" style="fill: none; stroke: #28ae80; stroke-width: 1.5; stroke-linecap: square"/>
   </g>
   <g id="line2d_12">
    <path d="M 23.072727 76.95 
L 79.785818 76.84317 
L 81.814909 76.601086 
L 83.235273 76.223574 
L 84.452727 75.670417 
L 85.568727 74.906004 
L 86.583273 73.949736 
L 87.699273 72.580393 
L 88.916727 70.718448 
L 90.641455 67.614033 
L 92.772 63.836519 
L 93.786545 62.460354 
L 94.598182 61.701682 
L 95.308364 61.336676 
L 95.917091 61.263495 
L 96.525818 61.41529 
L 97.134545 61.785563 
L 97.844727 62.472315 
L 98.757818 63.697017 
L 99.975273 65.749316 
L 103.526182 72.015496 
L 104.743636 73.62189 
L 105.859636 74.74489 
L 106.975636 75.557988 
L 108.193091 76.152519 
L 109.512 76.541297 
L 111.236727 76.796018 
L 113.874545 76.922331 
L 121.179273 76.949942 
L 124.527273 76.949998 
L 124.527273 76.949998 
" clip-path="url(#pe3a4bf004a)" style="fill: none; stroke: #3fbc73; stroke-width: 1.5; stroke-linecap: square"/>
   </g>
   <g id="line2d_13">
    <path d="M 23.072727 76.95 
L 85.771636 76.84282 
L 87.800727 76.601972 
L 89.221091 76.228362 
L 90.438545 75.683276 
L 91.554545 74.933002 
L 92.670545 73.890086 
L 93.786545 72.527244 
L 95.105455 70.528081 
L 97.236 66.780623 
L 98.859273 64.127505 
L 99.873818 62.879384 
L 100.685455 62.224234 
L 101.395636 61.944451 
L 102.004364 61.936458 
L 102.613091 62.14322 
L 103.323273 62.643607 
L 104.134909 63.521 
L 105.149455 64.981189 
L 106.772727 67.789284 
L 109.004727 71.584031 
L 110.323636 73.378339 
L 111.439636 74.549187 
L 112.555636 75.41246 
L 113.671636 76.011845 
L 114.990545 76.458398 
L 116.613818 76.747753 
L 118.947273 76.90285 
L 124.02 76.949041 
L 124.527273 76.949385 
L 124.527273 76.949385 
" clip-path="url(#pe3a4bf004a)" style="fill: none; stroke: #5ec962; stroke-width: 1.5; stroke-linecap: square"/>
   </g>
   <g id="line2d_14">
    <path d="M 23.072727 76.95 
L 84.96 76.842552 
L 87.090545 76.590974 
L 88.612364 76.18712 
L 89.829818 75.643292 
L 90.945818 74.915542 
L 92.061818 73.932141 
L 93.279273 72.559192 
L 94.801091 70.479717 
L 97.844727 66.224401 
L 98.859273 65.232254 
L 99.670909 64.72991 
L 100.381091 64.53617 
L 101.091273 64.584121 
L 101.801455 64.870972 
L 102.613091 65.469526 
L 103.526182 66.434276 
L 104.845091 68.201483 
L 108.294545 73.022174 
L 109.613455 74.39079 
L 110.830909 75.32702 
L 112.048364 75.978361 
L 113.367273 76.427724 
L 114.990545 76.728294 
L 117.222545 76.892258 
L 121.788 76.947984 
L 124.527273 76.949817 
L 124.527273 76.949817 
" clip-path="url(#pe3a4bf004a)" style="fill: none; stroke: #84d44b; stroke-width: 1.5; stroke-linecap: square"/>
   </g>
   <g id="line2d_15">
    <path d="M 23.072727 76.95 
L 102.714545 76.842022 
L 104.946545 76.590708 
L 106.569818 76.187296 
L 107.990182 75.595058 
L 109.309091 74.796367 
L 110.729455 73.660946 
L 112.657091 71.795484 
L 114.787636 69.790511 
L 115.903636 69.024034 
L 116.816727 68.640845 
L 117.628364 68.517227 
L 118.44 68.60808 
L 119.353091 68.957472 
L 120.367636 69.612731 
L 121.686545 70.766006 
L 124.527273 73.549062 
L 124.527273 73.549062 
" clip-path="url(#pe3a4bf004a)" style="fill: none; stroke: #addc30; stroke-width: 1.5; stroke-linecap: square"/>
   </g>
   <g id="line2d_16">
    <path d="M 23.072727 76.95 
L 109.613455 76.841649 
L 111.845455 76.591422 
L 113.468727 76.19182 
L 114.889091 75.607754 
L 116.208 74.823401 
L 117.628364 73.713467 
L 119.657455 71.802702 
L 121.686545 69.97424 
L 122.802545 69.248428 
L 123.715636 68.894052 
L 124.527273 68.790374 
L 124.527273 68.790374 
" clip-path="url(#pe3a4bf004a)" style="fill: none; stroke: #d8e219; stroke-width: 1.5; stroke-linecap: square"/>
   </g>
   <g id="matplotlib.axis_1">
    <g id="xtick_1">
     <g id="line2d_17">
      <defs>
       <path id="m1f2b5bccaf" d="M 0 0 
L 0 3.5 
" style="stroke: #000000; stroke-width: 0.8"/>
      </defs>
      <g>
       <use xlink:href="#m1f2b5bccaf" x="23.072727" y="80.1" style="stroke: #000000; stroke-width: 0.8"/>
      </g>
     </g>
     <g id="text_1">
      <!-- −1 -->
      <g transform="translate(15.701634 94.698437) scale(0.1 -0.1)">
       <defs>
        <path id="DejaVuSans-2212" d="M 678 2272 
L 4684 2272 
L 4684 1741 
L 678 1741 
L 678 2272 
z
" transform="scale(0.015625)"/>
        <path id="DejaVuSans-31" d="M 794 531 
L 1825 531 
L 1825 4091 
L 703 3866 
L 703 4441 
L 1819 4666 
L 2450 4666 
L 2450 531 
L 3481 531 
L 3481 0 
L 794 0 
L 794 531 
z
" transform="scale(0.015625)"/>
       </defs>
       <use xlink:href="#DejaVuSans-2212"/>
       <use xlink:href="#DejaVuSans-31" x="83.789062"/>
      </g>
     </g>
    </g>
    <g id="xtick_2">
     <g id="line2d_18">
      <g>
       <use xlink:href="#m1f2b5bccaf" x="73.8" y="80.1" style="stroke: #000000; stroke-width: 0.8"/>
      </g>
     </g>
     <g id="text_2">
      <!-- 0 -->
      <g transform="translate(70.61875 94.698437) scale(0.1 -0.1)">
       <defs>
        <path id="DejaVuSans-30" d="M 2034 4250 
Q 1547 4250 1301 3770 
Q 1056 3291 1056 2328 
Q 1056 1369 1301 889 
Q 1547 409 2034 409 
Q 2525 409 2770 889 
Q 3016 1369 3016 2328 
Q 3016 3291 2770 3770 
Q 2525 4250 2034 4250 
z
M 2034 4750 
Q 2819 4750 3233 4129 
Q 3647 3509 3647 2328 
Q 3647 1150 3233 529 
Q 2819 -91 2034 -91 
Q 1250 -91 836 529 
Q 422 1150 422 2328 
Q 422 3509 836 4129 
Q 1250 4750 2034 4750 
z
" transform="scale(0.015625)"/>
       </defs>
       <use xlink:href="#DejaVuSans-30"/>
      </g>
     </g>
    </g>
    <g id="xtick_3">
     <g id="line2d_19">
      <g>
       <use xlink:href="#m1f2b5bccaf" x="124.527273" y="80.1" style="stroke: #000000; stroke-width: 0.8"/>
      </g>
     </g>
     <g id="text_3">
      <!-- 1 -->
      <g transform="translate(121.346023 94.698437) scale(0.1 -0.1)">
       <use xlink:href="#DejaVuSans-31"/>
      </g>
     </g>
    </g>
    <g id="text_4">
     <!-- x -->
     <g transform="translate(70.840625 108.376563) scale(0.1 -0.1)">
      <defs>
       <path id="DejaVuSans-78" d="M 3513 3500 
L 2247 1797 
L 3578 0 
L 2900 0 
L 1881 1375 
L 863 0 
L 184 0 
L 1544 1831 
L 300 3500 
L 978 3500 
L 1906 2253 
L 2834 3500 
L 3513 3500 
z
" transform="scale(0.015625)"/>
      </defs>
      <use xlink:href="#DejaVuSans-78"/>
     </g>
    </g>
   </g>
   <g id="matplotlib.axis_2">
    <g id="ytick_1">
     <g id="line2d_20">
      <defs>
       <path id="m78377b9958" d="M 0 0 
L -3.5 0 
" style="stroke: #000000; stroke-width: 0.8"/>
      </defs>
      <g>
       <use xlink:href="#m78377b9958" x="18" y="76.95" style="stroke: #000000; stroke-width: 0.8"/>
      </g>
     </g>
     <g id="text_5">
      <!-- 0.0 -->
      <g transform="translate(-4.903125 80.749219) scale(0.1 -0.1)">
       <defs>
        <path id="DejaVuSans-2e" d="M 684 794 
L 1344 794 
L 1344 0 
L 684 0 
L 684 794 
z
" transform="scale(0.015625)"/>
       </defs>
       <use xlink:href="#DejaVuSans-30"/>
       <use xlink:href="#DejaVuSans-2e" x="63.623047"/>
       <use xlink:href="#DejaVuSans-30" x="95.410156"/>
      </g>
     </g>
    </g>
    <g id="ytick_2">
     <g id="line2d_21">
      <g>
       <use xlink:href="#m78377b9958" x="18" y="45.45" style="stroke: #000000; stroke-width: 0.8"/>
      </g>
     </g>
     <g id="text_6">
      <!-- 0.5 -->
      <g transform="translate(-4.903125 49.249219) scale(0.1 -0.1)">
       <defs>
        <path id="DejaVuSans-35" d="M 691 4666 
L 3169 4666 
L 3169 4134 
L 1269 4134 
L 1269 2991 
Q 1406 3038 1543 3061 
Q 1681 3084 1819 3084 
Q 2600 3084 3056 2656 
Q 3513 2228 3513 1497 
Q 3513 744 3044 326 
Q 2575 -91 1722 -91 
Q 1428 -91 1123 -41 
Q 819 9 494 109 
L 494 744 
Q 775 591 1075 516 
Q 1375 441 1709 441 
Q 2250 441 2565 725 
Q 2881 1009 2881 1497 
Q 2881 1984 2565 2268 
Q 2250 2553 1709 2553 
Q 1456 2553 1204 2497 
Q 953 2441 691 2322 
L 691 4666 
z
" transform="scale(0.015625)"/>
       </defs>
       <use xlink:href="#DejaVuSans-30"/>
       <use xlink:href="#DejaVuSans-2e" x="63.623047"/>
       <use xlink:href="#DejaVuSans-35" x="95.410156"/>
      </g>
     </g>
    </g>
    <g id="ytick_3">
     <g id="line2d_22">
      <g>
       <use xlink:href="#m78377b9958" x="18" y="13.95" style="stroke: #000000; stroke-width: 0.8"/>
      </g>
     </g>
     <g id="text_7">
      <!-- 1.0 -->
      <g transform="translate(-4.903125 17.749219) scale(0.1 -0.1)">
       <use xlink:href="#DejaVuSans-31"/>
       <use xlink:href="#DejaVuSans-2e" x="63.623047"/>
       <use xlink:href="#DejaVuSans-30" x="95.410156"/>
      </g>
     </g>
    </g>
    <g id="text_8">
     <!-- $\phi(x)$ -->
     <g transform="translate(-11.003125 55.65) rotate(-90) scale(0.1 -0.1)">
      <defs>
       <path id="DejaVuSans-Oblique-3d5" d="M 2991 4863 
L 2738 3572 
Q 3363 3572 3684 3094 
Q 4016 2606 3850 1747 
Q 3681 888 3159 400 
Q 2653 -78 2028 -78 
L 1784 -1331 
L 1213 -1331 
L 1456 -78 
Q 834 -78 509 400 
Q 178 888 347 1747 
Q 513 2606 1034 3094 
Q 1544 3572 2166 3572 
L 2419 4863 
L 2991 4863 
z
M 2128 434 
Q 2481 434 2784 756 
Q 3116 1116 3244 1747 
Q 3369 2372 3169 2738 
Q 2991 3059 2638 3059 
L 2128 434 
z
M 1556 434 
L 2066 3059 
Q 1716 3059 1413 2738 
Q 1072 2372 953 1747 
Q 834 1116 1028 756 
Q 1203 434 1556 434 
z
" transform="scale(0.015625)"/>
       <path id="DejaVuSans-28" d="M 1984 4856 
Q 1566 4138 1362 3434 
Q 1159 2731 1159 2009 
Q 1159 1288 1364 580 
Q 1569 -128 1984 -844 
L 1484 -844 
Q 1016 -109 783 600 
Q 550 1309 550 2009 
Q 550 2706 781 3412 
Q 1013 4119 1484 4856 
L 1984 4856 
z
" transform="scale(0.015625)"/>
       <path id="DejaVuSans-Oblique-78" d="M 3841 3500 
L 2234 1784 
L 3219 0 
L 2559 0 
L 1819 1388 
L 531 0 
L -166 0 
L 1556 1844 
L 641 3500 
L 1300 3500 
L 1972 2234 
L 3144 3500 
L 3841 3500 
z
" transform="scale(0.015625)"/>
       <path id="DejaVuSans-29" d="M 513 4856 
L 1013 4856 
Q 1481 4119 1714 3412 
Q 1947 2706 1947 2009 
Q 1947 1309 1714 600 
Q 1481 -109 1013 -844 
L 513 -844 
Q 928 -128 1133 580 
Q 1338 1288 1338 2009 
Q 1338 2731 1133 3434 
Q 928 4138 513 4856 
z
" transform="scale(0.015625)"/>
      </defs>
      <use xlink:href="#DejaVuSans-Oblique-3d5" transform="translate(0 0.015625)"/>
      <use xlink:href="#DejaVuSans-28" transform="translate(65.966797 0.015625)"/>
      <use xlink:href="#DejaVuSans-Oblique-78" transform="translate(104.980469 0.015625)"/>
      <use xlink:href="#DejaVuSans-29" transform="translate(164.160156 0.015625)"/>
     </g>
    </g>
   </g>
   <g id="PolyCollection_1">
    <defs>
     <path id="mbeaae24b34" d="M 23.072727 -13.05 
L 23.072727 -13.05 
L 23.174182 -13.05 
L 23.275636 -13.05 
L 23.377091 -13.05 
L 23.478545 -13.05 
L 23.58 -13.05 
L 23.681455 -13.05 
L 23.782909 -13.05 
L 23.884364 -13.05 
L 23.985818 -13.05 
L 24.087273 -13.05 
L 24.188727 -13.05 
L 24.290182 -13.05 
L 24.391636 -13.05 
L 24.493091 -13.05 
L 24.594545 -13.05 
L 24.696 -13.05 
L 24.797455 -13.05 
L 24.898909 -13.05 
L 25.000364 -13.05 
L 25.101818 -13.05 
L 25.203273 -13.05 
L 25.304727 -13.05 
L 25.406182 -13.05 
L 25.507636 -13.05 
L 25.609091 -13.05 
L 25.710545 -13.05 
L 25.812 -13.05 
L 25.913455 -13.05 
L 26.014909 -13.05 
L 26.116364 -13.05 
L 26.217818 -13.05 
L 26.319273 -13.05 
L 26.420727 -13.05 
L 26.522182 -13.05 
L 26.623636 -13.05 
L 26.725091 -13.05 
L 26.826545 -13.05 
L 26.928 -13.05 
L 27.029455 -13.05 
L 27.130909 -13.05 
L 27.232364 -13.05 
L 27.333818 -13.05 
L 27.435273 -13.05 
L 27.536727 -13.05 
L 27.638182 -13.05 
L 27.739636 -13.05 
L 27.841091 -13.05 
L 27.942545 -13.05 
L 28.044 -13.05 
L 28.145455 -13.05 
L 28.246909 -13.05 
L 28.348364 -13.05 
L 28.449818 -13.05 
L 28.551273 -13.05 
L 28.652727 -13.05 
L 28.754182 -13.05 
L 28.855636 -13.05 
L 28.957091 -13.05 
L 29.058545 -13.05 
L 29.16 -13.05 
L 29.261455 -13.05 
L 29.362909 -13.05 
L 29.464364 -13.05 
L 29.565818 -13.05 
L 29.667273 -13.05 
L 29.768727 -13.05 
L 29.870182 -13.05 
L 29.971636 -13.05 
L 30.073091 -13.05 
L 30.174545 -13.05 
L 30.276 -13.05 
L 30.377455 -13.05 
L 30.478909 -13.05 
L 30.580364 -13.05 
L 30.681818 -13.05 
L 30.783273 -13.05 
L 30.884727 -13.05 
L 30.986182 -13.05 
L 31.087636 -13.05 
L 31.189091 -13.05 
L 31.290545 -13.05 
L 31.392 -13.05 
L 31.493455 -13.05 
L 31.594909 -13.05 
L 31.696364 -13.05 
L 31.797818 -13.05 
L 31.899273 -13.05 
L 32.000727 -13.05 
L 32.102182 -13.05 
L 32.203636 -13.05 
L 32.305091 -13.05 
L 32.406545 -13.05 
L 32.508 -13.05 
L 32.609455 -13.05 
L 32.710909 -13.05 
L 32.812364 -13.05 
L 32.913818 -13.05 
L 33.015273 -13.05 
L 33.116727 -13.05 
L 33.218182 -13.05 
L 33.319636 -13.05 
L 33.421091 -13.05 
L 33.522545 -13.05 
L 33.624 -13.05 
L 33.725455 -13.05 
L 33.826909 -13.05 
L 33.928364 -13.05 
L 34.029818 -13.05 
L 34.131273 -13.05 
L 34.232727 -13.05 
L 34.334182 -13.05 
L 34.435636 -13.05 
L 34.537091 -13.05 
L 34.638545 -13.05 
L 34.74 -13.05 
L 34.841455 -13.05 
L 34.942909 -13.05 
L 35.044364 -13.05 
L 35.145818 -13.05 
L 35.247273 -13.05 
L 35.348727 -13.05 
L 35.450182 -13.05 
L 35.551636 -13.05 
L 35.653091 -13.05 
L 35.754545 -13.05 
L 35.856 -13.05 
L 35.957455 -13.05 
L 36.058909 -13.05 
L 36.160364 -13.05 
L 36.261818 -13.05 
L 36.363273 -13.05 
L 36.464727 -13.05 
L 36.566182 -13.05 
L 36.667636 -13.05 
L 36.769091 -13.05 
L 36.870545 -13.05 
L 36.972 -13.05 
L 37.073455 -13.05 
L 37.174909 -13.05 
L 37.276364 -13.05 
L 37.377818 -13.05 
L 37.479273 -13.05 
L 37.580727 -13.05 
L 37.682182 -13.05 
L 37.783636 -13.05 
L 37.885091 -13.05 
L 37.986545 -13.05 
L 38.088 -13.05 
L 38.189455 -13.05 
L 38.290909 -13.05 
L 38.392364 -13.05 
L 38.493818 -13.05 
L 38.595273 -13.05 
L 38.696727 -13.05 
L 38.798182 -13.05 
L 38.899636 -13.05 
L 39.001091 -13.05 
L 39.102545 -13.05 
L 39.204 -13.05 
L 39.305455 -13.05 
L 39.406909 -13.05 
L 39.508364 -13.05 
L 39.609818 -13.05 
L 39.711273 -13.05 
L 39.812727 -13.05 
L 39.914182 -13.05 
L 40.015636 -13.05 
L 40.117091 -13.05 
L 40.218545 -13.05 
L 40.32 -13.05 
L 40.421455 -13.05 
L 40.522909 -13.05 
L 40.624364 -13.05 
L 40.725818 -13.05 
L 40.827273 -13.05 
L 40.928727 -13.05 
L 41.030182 -13.05 
L 41.131636 -13.05 
L 41.233091 -13.05 
L 41.334545 -13.05 
L 41.436 -13.05 
L 41.537455 -13.05 
L 41.638909 -13.05 
L 41.740364 -13.05 
L 41.841818 -13.05 
L 41.943273 -13.05 
L 42.044727 -13.05 
L 42.146182 -13.05 
L 42.247636 -13.05 
L 42.349091 -13.05 
L 42.450545 -13.05 
L 42.552 -13.05 
L 42.653455 -13.05 
L 42.754909 -13.05 
L 42.856364 -13.05 
L 42.957818 -13.05 
L 43.059273 -13.05 
L 43.160727 -13.05 
L 43.262182 -13.05 
L 43.363636 -13.05 
L 43.465091 -13.05 
L 43.566545 -13.05 
L 43.668 -13.05 
L 43.769455 -13.05 
L 43.870909 -13.05 
L 43.972364 -13.05 
L 44.073818 -13.05 
L 44.175273 -13.05 
L 44.276727 -13.05 
L 44.378182 -13.05 
L 44.479636 -13.05 
L 44.581091 -13.05 
L 44.682545 -13.05 
L 44.784 -13.05 
L 44.885455 -13.05 
L 44.986909 -13.05 
L 45.088364 -13.05 
L 45.189818 -13.05 
L 45.291273 -13.05 
L 45.392727 -13.05 
L 45.494182 -13.05 
L 45.595636 -13.05 
L 45.697091 -13.05 
L 45.798545 -13.05 
L 45.9 -13.05 
L 46.001455 -13.05 
L 46.102909 -13.05 
L 46.204364 -13.05 
L 46.305818 -13.05 
L 46.407273 -13.05 
L 46.508727 -13.05 
L 46.610182 -13.05 
L 46.711636 -13.05 
L 46.813091 -13.05 
L 46.914545 -13.05 
L 47.016 -13.05 
L 47.117455 -13.05 
L 47.218909 -13.05 
L 47.320364 -13.05 
L 47.421818 -13.05 
L 47.523273 -13.05 
L 47.624727 -13.05 
L 47.726182 -13.05 
L 47.827636 -13.05 
L 47.929091 -13.05 
L 48.030545 -13.05 
L 48.132 -13.05 
L 48.233455 -13.05 
L 48.334909 -13.05 
L 48.436364 -13.05 
L 48.537818 -13.05 
L 48.639273 -13.05 
L 48.740727 -13.05 
L 48.842182 -13.05 
L 48.943636 -13.05 
L 49.045091 -13.05 
L 49.146545 -13.05 
L 49.248 -13.05 
L 49.349455 -13.05 
L 49.450909 -13.05 
L 49.552364 -13.05 
L 49.653818 -13.05 
L 49.755273 -13.05 
L 49.856727 -13.05 
L 49.958182 -13.05 
L 50.059636 -13.05 
L 50.161091 -13.05 
L 50.262545 -13.05 
L 50.364 -13.05 
L 50.465455 -13.05 
L 50.566909 -13.05 
L 50.668364 -13.05 
L 50.769818 -13.05 
L 50.871273 -13.05 
L 50.972727 -13.05 
L 51.074182 -13.05 
L 51.175636 -13.05 
L 51.277091 -13.05 
L 51.378545 -13.05 
L 51.48 -13.05 
L 51.581455 -13.05 
L 51.682909 -13.05 
L 51.784364 -13.05 
L 51.885818 -13.05 
L 51.987273 -13.05 
L 52.088727 -13.05 
L 52.190182 -13.05 
L 52.291636 -13.05 
L 52.393091 -13.05 
L 52.494545 -13.05 
L 52.596 -13.05 
L 52.697455 -13.05 
L 52.798909 -13.05 
L 52.900364 -13.05 
L 53.001818 -13.05 
L 53.103273 -13.05 
L 53.204727 -13.05 
L 53.306182 -13.05 
L 53.407636 -13.05 
L 53.509091 -13.05 
L 53.610545 -13.05 
L 53.712 -13.05 
L 53.813455 -13.05 
L 53.914909 -13.05 
L 54.016364 -13.05 
L 54.117818 -13.05 
L 54.219273 -13.05 
L 54.320727 -13.05 
L 54.422182 -13.05 
L 54.523636 -13.05 
L 54.625091 -13.05 
L 54.726545 -13.05 
L 54.828 -13.05 
L 54.929455 -13.05 
L 55.030909 -13.05 
L 55.132364 -13.05 
L 55.233818 -13.05 
L 55.335273 -13.05 
L 55.436727 -13.05 
L 55.538182 -13.05 
L 55.639636 -13.05 
L 55.741091 -13.05 
L 55.842545 -13.05 
L 55.944 -13.05 
L 56.045455 -13.05 
L 56.146909 -13.05 
L 56.248364 -13.05 
L 56.349818 -13.05 
L 56.451273 -13.05 
L 56.552727 -13.05 
L 56.654182 -13.05 
L 56.755636 -13.05 
L 56.857091 -13.05 
L 56.958545 -13.05 
L 57.06 -13.05 
L 57.161455 -13.05 
L 57.262909 -13.05 
L 57.364364 -13.05 
L 57.465818 -13.05 
L 57.567273 -13.05 
L 57.668727 -13.05 
L 57.770182 -13.05 
L 57.871636 -13.05 
L 57.973091 -13.05 
L 58.074545 -13.05 
L 58.176 -13.05 
L 58.277455 -13.05 
L 58.378909 -13.05 
L 58.480364 -13.05 
L 58.581818 -13.05 
L 58.683273 -13.05 
L 58.784727 -13.05 
L 58.886182 -13.05 
L 58.987636 -13.05 
L 59.089091 -13.05 
L 59.190545 -13.05 
L 59.292 -13.05 
L 59.393455 -13.05 
L 59.494909 -13.05 
L 59.596364 -13.05 
L 59.697818 -13.05 
L 59.799273 -13.05 
L 59.900727 -13.05 
L 60.002182 -13.05 
L 60.103636 -13.05 
L 60.205091 -13.05 
L 60.306545 -13.05 
L 60.408 -13.05 
L 60.509455 -13.05 
L 60.610909 -13.05 
L 60.712364 -13.05 
L 60.813818 -13.05 
L 60.915273 -13.05 
L 61.016727 -13.05 
L 61.118182 -13.05 
L 61.219636 -13.05 
L 61.321091 -13.05 
L 61.422545 -13.05 
L 61.524 -13.05 
L 61.625455 -13.05 
L 61.726909 -13.05 
L 61.828364 -13.05 
L 61.929818 -13.05 
L 62.031273 -13.05 
L 62.132727 -13.05 
L 62.234182 -13.05 
L 62.335636 -13.05 
L 62.437091 -13.05 
L 62.538545 -13.05 
L 62.64 -13.05 
L 62.741455 -13.05 
L 62.842909 -13.05 
L 62.944364 -13.05 
L 63.045818 -13.05 
L 63.147273 -13.05 
L 63.248727 -13.05 
L 63.350182 -13.05 
L 63.451636 -13.05 
L 63.553091 -13.05 
L 63.654545 -13.05 
L 63.756 -13.05 
L 63.857455 -13.05 
L 63.958909 -13.05 
L 64.060364 -13.05 
L 64.161818 -13.05 
L 64.263273 -13.05 
L 64.364727 -13.05 
L 64.466182 -13.05 
L 64.567636 -13.05 
L 64.669091 -13.05 
L 64.770545 -13.05 
L 64.872 -13.05 
L 64.973455 -13.05 
L 65.074909 -13.05 
L 65.176364 -13.05 
L 65.277818 -13.05 
L 65.379273 -13.05 
L 65.480727 -13.05 
L 65.582182 -13.05 
L 65.683636 -13.05 
L 65.785091 -13.05 
L 65.886545 -13.05 
L 65.988 -13.05 
L 66.089455 -13.05 
L 66.190909 -13.05 
L 66.292364 -13.05 
L 66.393818 -13.05 
L 66.495273 -13.05 
L 66.596727 -13.05 
L 66.698182 -13.05 
L 66.799636 -13.05 
L 66.901091 -13.05 
L 67.002545 -13.05 
L 67.104 -13.05 
L 67.205455 -13.05 
L 67.306909 -13.05 
L 67.408364 -13.05 
L 67.509818 -13.05 
L 67.611273 -13.05 
L 67.712727 -13.05 
L 67.814182 -13.05 
L 67.915636 -13.05 
L 68.017091 -13.05 
L 68.118545 -13.05 
L 68.22 -13.05 
L 68.321455 -13.05 
L 68.422909 -13.05 
L 68.524364 -13.05 
L 68.625818 -13.05 
L 68.727273 -13.05 
L 68.828727 -13.05 
L 68.930182 -13.05 
L 69.031636 -13.05 
L 69.133091 -13.05 
L 69.234545 -13.05 
L 69.336 -13.05 
L 69.437455 -13.05 
L 69.538909 -13.05 
L 69.640364 -13.05 
L 69.741818 -13.05 
L 69.843273 -13.05 
L 69.944727 -13.05 
L 70.046182 -13.05 
L 70.147636 -13.05 
L 70.249091 -13.05 
L 70.350545 -13.05 
L 70.452 -13.05 
L 70.553455 -13.05 
L 70.654909 -13.05 
L 70.756364 -13.05 
L 70.857818 -13.05 
L 70.959273 -13.05 
L 71.060727 -13.05 
L 71.162182 -13.05 
L 71.263636 -13.05 
L 71.365091 -13.05 
L 71.466545 -13.05 
L 71.568 -13.05 
L 71.669455 -13.05 
L 71.770909 -13.05 
L 71.872364 -13.05 
L 71.973818 -13.05 
L 72.075273 -13.05 
L 72.176727 -13.05 
L 72.278182 -13.05 
L 72.379636 -13.05 
L 72.481091 -13.05 
L 72.582545 -13.05 
L 72.684 -13.05 
L 72.785455 -13.05 
L 72.886909 -13.05 
L 72.988364 -13.05 
L 73.089818 -13.05 
L 73.191273 -13.05 
L 73.292727 -13.05 
L 73.394182 -13.05 
L 73.495636 -13.05 
L 73.597091 -13.05 
L 73.698545 -13.05 
L 73.8 -13.05 
L 73.901455 -13.05 
L 74.002909 -13.05 
L 74.104364 -13.05 
L 74.205818 -13.05 
L 74.307273 -13.05 
L 74.408727 -13.05 
L 74.510182 -13.05 
L 74.611636 -13.05 
L 74.713091 -13.05 
L 74.814545 -13.05 
L 74.916 -13.05 
L 75.017455 -13.05 
L 75.118909 -13.05 
L 75.220364 -13.05 
L 75.321818 -13.05 
L 75.423273 -13.05 
L 75.524727 -13.05 
L 75.626182 -13.05 
L 75.727636 -13.05 
L 75.829091 -13.05 
L 75.930545 -13.05 
L 76.032 -13.05 
L 76.133455 -13.05 
L 76.234909 -13.05 
L 76.336364 -13.05 
L 76.437818 -13.05 
L 76.539273 -13.05 
L 76.640727 -13.05 
L 76.742182 -13.05 
L 76.843636 -13.05 
L 76.945091 -13.05 
L 77.046545 -13.05 
L 77.148 -13.05 
L 77.249455 -13.05 
L 77.350909 -13.05 
L 77.452364 -13.05 
L 77.553818 -13.05 
L 77.655273 -13.05 
L 77.756727 -13.05 
L 77.858182 -13.05 
L 77.959636 -13.05 
L 78.061091 -13.05 
L 78.162545 -13.05 
L 78.264 -13.05 
L 78.365455 -13.05 
L 78.466909 -13.05 
L 78.568364 -13.05 
L 78.669818 -13.05 
L 78.771273 -13.05 
L 78.872727 -13.05 
L 78.974182 -13.05 
L 79.075636 -13.05 
L 79.177091 -13.05 
L 79.278545 -13.05 
L 79.38 -13.05 
L 79.481455 -13.05 
L 79.582909 -13.05 
L 79.684364 -13.05 
L 79.785818 -13.05 
L 79.887273 -13.05 
L 79.988727 -13.05 
L 80.090182 -13.05 
L 80.191636 -13.05 
L 80.293091 -13.05 
L 80.394545 -13.05 
L 80.496 -13.05 
L 80.597455 -13.05 
L 80.698909 -13.05 
L 80.800364 -13.05 
L 80.901818 -13.05 
L 81.003273 -13.05 
L 81.104727 -13.05 
L 81.206182 -13.05 
L 81.307636 -13.05 
L 81.409091 -13.05 
L 81.510545 -13.05 
L 81.612 -13.05 
L 81.713455 -13.05 
L 81.814909 -13.05 
L 81.916364 -13.05 
L 82.017818 -13.05 
L 82.119273 -13.05 
L 82.220727 -13.05 
L 82.322182 -13.05 
L 82.423636 -13.05 
L 82.525091 -13.05 
L 82.626545 -13.05 
L 82.728 -13.05 
L 82.829455 -13.05 
L 82.930909 -13.05 
L 83.032364 -13.05 
L 83.133818 -13.05 
L 83.235273 -13.05 
L 83.336727 -13.05 
L 83.438182 -13.05 
L 83.539636 -13.05 
L 83.641091 -13.05 
L 83.742545 -13.050001 
L 83.844 -13.050001 
L 83.945455 -13.050001 
L 84.046909 -13.050001 
L 84.148364 -13.050002 
L 84.249818 -13.050002 
L 84.351273 -13.050002 
L 84.452727 -13.050003 
L 84.554182 -13.050004 
L 84.655636 -13.050005 
L 84.757091 -13.050006 
L 84.858545 -13.050008 
L 84.96 -13.05001 
L 85.061455 -13.050012 
L 85.162909 -13.050015 
L 85.264364 -13.050019 
L 85.365818 -13.050024 
L 85.467273 -13.050029 
L 85.568727 -13.050036 
L 85.670182 -13.050045 
L 85.771636 -13.050056 
L 85.873091 -13.050069 
L 85.974545 -13.050085 
L 86.076 -13.050104 
L 86.177455 -13.050128 
L 86.278909 -13.050157 
L 86.380364 -13.050192 
L 86.481818 -13.050235 
L 86.583273 -13.050287 
L 86.684727 -13.050349 
L 86.786182 -13.050425 
L 86.887636 -13.050516 
L 86.989091 -13.050626 
L 87.090545 -13.050757 
L 87.192 -13.050915 
L 87.293455 -13.051105 
L 87.394909 -13.051331 
L 87.496364 -13.051601 
L 87.597818 -13.051923 
L 87.699273 -13.052306 
L 87.800727 -13.052761 
L 87.902182 -13.053301 
L 88.003636 -13.053939 
L 88.105091 -13.054693 
L 88.206545 -13.055583 
L 88.308 -13.056631 
L 88.409455 -13.057862 
L 88.510909 -13.059308 
L 88.612364 -13.061002 
L 88.713818 -13.062984 
L 88.815273 -13.065298 
L 88.916727 -13.067995 
L 89.018182 -13.071134 
L 89.119636 -13.074781 
L 89.221091 -13.079011 
L 89.322545 -13.083909 
L 89.424 -13.089571 
L 89.525455 -13.096104 
L 89.626909 -13.103629 
L 89.728364 -13.112283 
L 89.829818 -13.122218 
L 89.931273 -13.133604 
L 90.032727 -13.14663 
L 90.134182 -13.161507 
L 90.235636 -13.178469 
L 90.337091 -13.197775 
L 90.438545 -13.21971 
L 90.54 -13.244589 
L 90.641455 -13.272759 
L 90.742909 -13.304599 
L 90.844364 -13.340525 
L 90.945818 -13.380991 
L 91.047273 -13.426489 
L 91.148727 -13.477558 
L 91.250182 -13.534777 
L 91.351636 -13.598776 
L 91.453091 -13.67023 
L 91.554545 -13.749867 
L 91.656 -13.838467 
L 91.757455 -13.936863 
L 91.858909 -14.045943 
L 91.960364 -14.166652 
L 92.061818 -14.299989 
L 92.163273 -14.447011 
L 92.264727 -14.608829 
L 92.366182 -14.78661 
L 92.467636 -14.981573 
L 92.569091 -15.19499 
L 92.670545 -15.428178 
L 92.772 -15.682502 
L 92.873455 -15.959365 
L 92.974909 -16.260205 
L 93.076364 -16.58649 
L 93.177818 -16.93971 
L 93.279273 -17.32137 
L 93.380727 -17.73298 
L 93.482182 -18.176047 
L 93.583636 -18.652062 
L 93.685091 -19.162493 
L 93.786545 -19.70877 
L 93.888 -20.29227 
L 93.989455 -20.914309 
L 94.090909 -21.576123 
L 94.192364 -22.278853 
L 94.293818 -23.023531 
L 94.395273 -23.811067 
L 94.496727 -24.642226 
L 94.598182 -25.517618 
L 94.699636 -26.437678 
L 94.801091 -27.402652 
L 94.902545 -28.412581 
L 95.004 -29.467285 
L 95.105455 -30.56635 
L 95.206909 -31.709114 
L 95.308364 -32.894655 
L 95.409818 -34.12178 
L 95.511273 -35.389016 
L 95.612727 -36.694599 
L 95.714182 -38.036476 
L 95.815636 -39.412294 
L 95.917091 -40.819401 
L 96.018545 -42.254848 
L 96.12 -43.715392 
L 96.221455 -45.197501 
L 96.322909 -46.697364 
L 96.424364 -48.210902 
L 96.525818 -49.733781 
L 96.627273 -51.261432 
L 96.728727 -52.789066 
L 96.830182 -54.311701 
L 96.931636 -55.824183 
L 97.033091 -57.321217 
L 97.134545 -58.797389 
L 97.236 -60.247207 
L 97.337455 -61.665126 
L 97.438909 -63.045586 
L 97.540364 -64.383047 
L 97.641818 -65.672023 
L 97.743273 -66.907126 
L 97.844727 -68.083095 
L 97.946182 -69.194837 
L 98.047636 -70.237465 
L 98.149091 -71.20633 
L 98.250545 -72.097058 
L 98.352 -72.905584 
L 98.453455 -73.628178 
L 98.554909 -74.261478 
L 98.656364 -74.802516 
L 98.757818 -75.248739 
L 98.859273 -75.598029 
L 98.960727 -75.848722 
L 99.062182 -75.99962 
L 99.163636 -76.05 
L 99.265091 -75.99962 
L 99.366545 -75.848722 
L 99.468 -75.598029 
L 99.569455 -75.248739 
L 99.670909 -74.802516 
L 99.772364 -74.261478 
L 99.873818 -73.628178 
L 99.975273 -72.905584 
L 100.076727 -72.097058 
L 100.178182 -71.20633 
L 100.279636 -70.237465 
L 100.381091 -69.194837 
L 100.482545 -68.083095 
L 100.584 -66.907126 
L 100.685455 -65.672023 
L 100.786909 -64.383047 
L 100.888364 -63.045586 
L 100.989818 -61.665126 
L 101.091273 -60.247207 
L 101.192727 -58.797389 
L 101.294182 -57.321217 
L 101.395636 -55.824183 
L 101.497091 -54.311701 
L 101.598545 -52.789066 
L 101.7 -51.261432 
L 101.801455 -49.733781 
L 101.902909 -48.210902 
L 102.004364 -46.697364 
L 102.105818 -45.197501 
L 102.207273 -43.715392 
L 102.308727 -42.254848 
L 102.410182 -40.819401 
L 102.511636 -39.412294 
L 102.613091 -38.036476 
L 102.714545 -36.694599 
L 102.816 -35.389016 
L 102.917455 -34.12178 
L 103.018909 -32.894655 
L 103.120364 -31.709114 
L 103.221818 -30.56635 
L 103.323273 -29.467285 
L 103.424727 -28.412581 
L 103.526182 -27.402652 
L 103.627636 -26.437678 
L 103.729091 -25.517618 
L 103.830545 -24.642226 
L 103.932 -23.811067 
L 104.033455 -23.023531 
L 104.134909 -22.278853 
L 104.236364 -21.576123 
L 104.337818 -20.914309 
L 104.439273 -20.29227 
L 104.540727 -19.70877 
L 104.642182 -19.162493 
L 104.743636 -18.652062 
L 104.845091 -18.176047 
L 104.946545 -17.73298 
L 105.048 -17.32137 
L 105.149455 -16.93971 
L 105.250909 -16.58649 
L 105.352364 -16.260205 
L 105.453818 -15.959365 
L 105.555273 -15.682502 
L 105.656727 -15.428178 
L 105.758182 -15.19499 
L 105.859636 -14.981573 
L 105.961091 -14.78661 
L 106.062545 -14.608829 
L 106.164 -14.447011 
L 106.265455 -14.299989 
L 106.366909 -14.166652 
L 106.468364 -14.045943 
L 106.569818 -13.936863 
L 106.671273 -13.838467 
L 106.772727 -13.749867 
L 106.874182 -13.67023 
L 106.975636 -13.598776 
L 107.077091 -13.534777 
L 107.178545 -13.477558 
L 107.28 -13.426489 
L 107.381455 -13.380991 
L 107.482909 -13.340525 
L 107.584364 -13.304599 
L 107.685818 -13.272759 
L 107.787273 -13.244589 
L 107.888727 -13.21971 
L 107.990182 -13.197775 
L 108.091636 -13.178469 
L 108.193091 -13.161507 
L 108.294545 -13.14663 
L 108.396 -13.133604 
L 108.497455 -13.122218 
L 108.598909 -13.112283 
L 108.700364 -13.103629 
L 108.801818 -13.096104 
L 108.903273 -13.089571 
L 109.004727 -13.083909 
L 109.106182 -13.079011 
L 109.207636 -13.074781 
L 109.309091 -13.071134 
L 109.410545 -13.067995 
L 109.512 -13.065298 
L 109.613455 -13.062984 
L 109.714909 -13.061002 
L 109.816364 -13.059308 
L 109.917818 -13.057862 
L 110.019273 -13.056631 
L 110.120727 -13.055583 
L 110.222182 -13.054693 
L 110.323636 -13.053939 
L 110.425091 -13.053301 
L 110.526545 -13.052761 
L 110.628 -13.052306 
L 110.729455 -13.051923 
L 110.830909 -13.051601 
L 110.932364 -13.051331 
L 111.033818 -13.051105 
L 111.135273 -13.050915 
L 111.236727 -13.050757 
L 111.338182 -13.050626 
L 111.439636 -13.050516 
L 111.541091 -13.050425 
L 111.642545 -13.050349 
L 111.744 -13.050287 
L 111.845455 -13.050235 
L 111.946909 -13.050192 
L 112.048364 -13.050157 
L 112.149818 -13.050128 
L 112.251273 -13.050104 
L 112.352727 -13.050085 
L 112.454182 -13.050069 
L 112.555636 -13.050056 
L 112.657091 -13.050045 
L 112.758545 -13.050036 
L 112.86 -13.050029 
L 112.961455 -13.050024 
L 113.062909 -13.050019 
L 113.164364 -13.050015 
L 113.265818 -13.050012 
L 113.367273 -13.05001 
L 113.468727 -13.050008 
L 113.570182 -13.050006 
L 113.671636 -13.050005 
L 113.773091 -13.050004 
L 113.874545 -13.050003 
L 113.976 -13.050002 
L 114.077455 -13.050002 
L 114.178909 -13.050002 
L 114.280364 -13.050001 
L 114.381818 -13.050001 
L 114.483273 -13.050001 
L 114.584727 -13.050001 
L 114.686182 -13.05 
L 114.787636 -13.05 
L 114.889091 -13.05 
L 114.990545 -13.05 
L 115.092 -13.05 
L 115.193455 -13.05 
L 115.294909 -13.05 
L 115.396364 -13.05 
L 115.497818 -13.05 
L 115.599273 -13.05 
L 115.700727 -13.05 
L 115.802182 -13.05 
L 115.903636 -13.05 
L 116.005091 -13.05 
L 116.106545 -13.05 
L 116.208 -13.05 
L 116.309455 -13.05 
L 116.410909 -13.05 
L 116.512364 -13.05 
L 116.613818 -13.05 
L 116.715273 -13.05 
L 116.816727 -13.05 
L 116.918182 -13.05 
L 117.019636 -13.05 
L 117.121091 -13.05 
L 117.222545 -13.05 
L 117.324 -13.05 
L 117.425455 -13.05 
L 117.526909 -13.05 
L 117.628364 -13.05 
L 117.729818 -13.05 
L 117.831273 -13.05 
L 117.932727 -13.05 
L 118.034182 -13.05 
L 118.135636 -13.05 
L 118.237091 -13.05 
L 118.338545 -13.05 
L 118.44 -13.05 
L 118.541455 -13.05 
L 118.642909 -13.05 
L 118.744364 -13.05 
L 118.845818 -13.05 
L 118.947273 -13.05 
L 119.048727 -13.05 
L 119.150182 -13.05 
L 119.251636 -13.05 
L 119.353091 -13.05 
L 119.454545 -13.05 
L 119.556 -13.05 
L 119.657455 -13.05 
L 119.758909 -13.05 
L 119.860364 -13.05 
L 119.961818 -13.05 
L 120.063273 -13.05 
L 120.164727 -13.05 
L 120.266182 -13.05 
L 120.367636 -13.05 
L 120.469091 -13.05 
L 120.570545 -13.05 
L 120.672 -13.05 
L 120.773455 -13.05 
L 120.874909 -13.05 
L 120.976364 -13.05 
L 121.077818 -13.05 
L 121.179273 -13.05 
L 121.280727 -13.05 
L 121.382182 -13.05 
L 121.483636 -13.05 
L 121.585091 -13.05 
L 121.686545 -13.05 
L 121.788 -13.05 
L 121.889455 -13.05 
L 121.990909 -13.05 
L 122.092364 -13.05 
L 122.193818 -13.05 
L 122.295273 -13.05 
L 122.396727 -13.05 
L 122.498182 -13.05 
L 122.599636 -13.05 
L 122.701091 -13.05 
L 122.802545 -13.05 
L 122.904 -13.05 
L 123.005455 -13.05 
L 123.106909 -13.05 
L 123.208364 -13.05 
L 123.309818 -13.05 
L 123.411273 -13.05 
L 123.512727 -13.05 
L 123.614182 -13.05 
L 123.715636 -13.05 
L 123.817091 -13.05 
L 123.918545 -13.05 
L 124.02 -13.05 
L 124.121455 -13.05 
L 124.222909 -13.05 
L 124.324364 -13.05 
L 124.425818 -13.05 
L 124.527273 -13.05 
L 124.527273 -13.05 
L 124.527273 -13.05 
L 124.425818 -13.05 
L 124.324364 -13.05 
L 124.222909 -13.05 
L 124.121455 -13.05 
L 124.02 -13.05 
L 123.918545 -13.05 
L 123.817091 -13.05 
L 123.715636 -13.05 
L 123.614182 -13.05 
L 123.512727 -13.05 
L 123.411273 -13.05 
L 123.309818 -13.05 
L 123.208364 -13.05 
L 123.106909 -13.05 
L 123.005455 -13.05 
L 122.904 -13.05 
L 122.802545 -13.05 
L 122.701091 -13.05 
L 122.599636 -13.05 
L 122.498182 -13.05 
L 122.396727 -13.05 
L 122.295273 -13.05 
L 122.193818 -13.05 
L 122.092364 -13.05 
L 121.990909 -13.05 
L 121.889455 -13.05 
L 121.788 -13.05 
L 121.686545 -13.05 
L 121.585091 -13.05 
L 121.483636 -13.05 
L 121.382182 -13.05 
L 121.280727 -13.05 
L 121.179273 -13.05 
L 121.077818 -13.05 
L 120.976364 -13.05 
L 120.874909 -13.05 
L 120.773455 -13.05 
L 120.672 -13.05 
L 120.570545 -13.05 
L 120.469091 -13.05 
L 120.367636 -13.05 
L 120.266182 -13.05 
L 120.164727 -13.05 
L 120.063273 -13.05 
L 119.961818 -13.05 
L 119.860364 -13.05 
L 119.758909 -13.05 
L 119.657455 -13.05 
L 119.556 -13.05 
L 119.454545 -13.05 
L 119.353091 -13.05 
L 119.251636 -13.05 
L 119.150182 -13.05 
L 119.048727 -13.05 
L 118.947273 -13.05 
L 118.845818 -13.05 
L 118.744364 -13.05 
L 118.642909 -13.05 
L 118.541455 -13.05 
L 118.44 -13.05 
L 118.338545 -13.05 
L 118.237091 -13.05 
L 118.135636 -13.05 
L 118.034182 -13.05 
L 117.932727 -13.05 
L 117.831273 -13.05 
L 117.729818 -13.05 
L 117.628364 -13.05 
L 117.526909 -13.05 
L 117.425455 -13.05 
L 117.324 -13.05 
L 117.222545 -13.05 
L 117.121091 -13.05 
L 117.019636 -13.05 
L 116.918182 -13.05 
L 116.816727 -13.05 
L 116.715273 -13.05 
L 116.613818 -13.05 
L 116.512364 -13.05 
L 116.410909 -13.05 
L 116.309455 -13.05 
L 116.208 -13.05 
L 116.106545 -13.05 
L 116.005091 -13.05 
L 115.903636 -13.05 
L 115.802182 -13.05 
L 115.700727 -13.05 
L 115.599273 -13.05 
L 115.497818 -13.05 
L 115.396364 -13.05 
L 115.294909 -13.05 
L 115.193455 -13.05 
L 115.092 -13.05 
L 114.990545 -13.05 
L 114.889091 -13.05 
L 114.787636 -13.05 
L 114.686182 -13.05 
L 114.584727 -13.05 
L 114.483273 -13.05 
L 114.381818 -13.05 
L 114.280364 -13.05 
L 114.178909 -13.05 
L 114.077455 -13.05 
L 113.976 -13.05 
L 113.874545 -13.05 
L 113.773091 -13.05 
L 113.671636 -13.05 
L 113.570182 -13.05 
L 113.468727 -13.05 
L 113.367273 -13.05 
L 113.265818 -13.05 
L 113.164364 -13.05 
L 113.062909 -13.05 
L 112.961455 -13.05 
L 112.86 -13.05 
L 112.758545 -13.05 
L 112.657091 -13.05 
L 112.555636 -13.05 
L 112.454182 -13.05 
L 112.352727 -13.05 
L 112.251273 -13.05 
L 112.149818 -13.05 
L 112.048364 -13.05 
L 111.946909 -13.05 
L 111.845455 -13.05 
L 111.744 -13.05 
L 111.642545 -13.05 
L 111.541091 -13.05 
L 111.439636 -13.05 
L 111.338182 -13.05 
L 111.236727 -13.05 
L 111.135273 -13.05 
L 111.033818 -13.05 
L 110.932364 -13.05 
L 110.830909 -13.05 
L 110.729455 -13.05 
L 110.628 -13.05 
L 110.526545 -13.05 
L 110.425091 -13.05 
L 110.323636 -13.05 
L 110.222182 -13.05 
L 110.120727 -13.05 
L 110.019273 -13.05 
L 109.917818 -13.05 
L 109.816364 -13.05 
L 109.714909 -13.05 
L 109.613455 -13.05 
L 109.512 -13.05 
L 109.410545 -13.05 
L 109.309091 -13.05 
L 109.207636 -13.05 
L 109.106182 -13.05 
L 109.004727 -13.05 
L 108.903273 -13.05 
L 108.801818 -13.05 
L 108.700364 -13.05 
L 108.598909 -13.05 
L 108.497455 -13.05 
L 108.396 -13.05 
L 108.294545 -13.05 
L 108.193091 -13.05 
L 108.091636 -13.05 
L 107.990182 -13.05 
L 107.888727 -13.05 
L 107.787273 -13.05 
L 107.685818 -13.05 
L 107.584364 -13.05 
L 107.482909 -13.05 
L 107.381455 -13.05 
L 107.28 -13.05 
L 107.178545 -13.05 
L 107.077091 -13.05 
L 106.975636 -13.05 
L 106.874182 -13.05 
L 106.772727 -13.05 
L 106.671273 -13.05 
L 106.569818 -13.05 
L 106.468364 -13.05 
L 106.366909 -13.05 
L 106.265455 -13.05 
L 106.164 -13.05 
L 106.062545 -13.05 
L 105.961091 -13.05 
L 105.859636 -13.05 
L 105.758182 -13.05 
L 105.656727 -13.05 
L 105.555273 -13.05 
L 105.453818 -13.05 
L 105.352364 -13.05 
L 105.250909 -13.05 
L 105.149455 -13.05 
L 105.048 -13.05 
L 104.946545 -13.05 
L 104.845091 -13.05 
L 104.743636 -13.05 
L 104.642182 -13.05 
L 104.540727 -13.05 
L 104.439273 -13.05 
L 104.337818 -13.05 
L 104.236364 -13.05 
L 104.134909 -13.05 
L 104.033455 -13.05 
L 103.932 -13.05 
L 103.830545 -13.05 
L 103.729091 -13.05 
L 103.627636 -13.05 
L 103.526182 -13.05 
L 103.424727 -13.05 
L 103.323273 -13.05 
L 103.221818 -13.05 
L 103.120364 -13.05 
L 103.018909 -13.05 
L 102.917455 -13.05 
L 102.816 -13.05 
L 102.714545 -13.05 
L 102.613091 -13.05 
L 102.511636 -13.05 
L 102.410182 -13.05 
L 102.308727 -13.05 
L 102.207273 -13.05 
L 102.105818 -13.05 
L 102.004364 -13.05 
L 101.902909 -13.05 
L 101.801455 -13.05 
L 101.7 -13.05 
L 101.598545 -13.05 
L 101.497091 -13.05 
L 101.395636 -13.05 
L 101.294182 -13.05 
L 101.192727 -13.05 
L 101.091273 -13.05 
L 100.989818 -13.05 
L 100.888364 -13.05 
L 100.786909 -13.05 
L 100.685455 -13.05 
L 100.584 -13.05 
L 100.482545 -13.05 
L 100.381091 -13.05 
L 100.279636 -13.05 
L 100.178182 -13.05 
L 100.076727 -13.05 
L 99.975273 -13.05 
L 99.873818 -13.05 
L 99.772364 -13.05 
L 99.670909 -13.05 
L 99.569455 -13.05 
L 99.468 -13.05 
L 99.366545 -13.05 
L 99.265091 -13.05 
L 99.163636 -13.05 
L 99.062182 -13.05 
L 98.960727 -13.05 
L 98.859273 -13.05 
L 98.757818 -13.05 
L 98.656364 -13.05 
L 98.554909 -13.05 
L 98.453455 -13.05 
L 98.352 -13.05 
L 98.250545 -13.05 
L 98.149091 -13.05 
L 98.047636 -13.05 
L 97.946182 -13.05 
L 97.844727 -13.05 
L 97.743273 -13.05 
L 97.641818 -13.05 
L 97.540364 -13.05 
L 97.438909 -13.05 
L 97.337455 -13.05 
L 97.236 -13.05 
L 97.134545 -13.05 
L 97.033091 -13.05 
L 96.931636 -13.05 
L 96.830182 -13.05 
L 96.728727 -13.05 
L 96.627273 -13.05 
L 96.525818 -13.05 
L 96.424364 -13.05 
L 96.322909 -13.05 
L 96.221455 -13.05 
L 96.12 -13.05 
L 96.018545 -13.05 
L 95.917091 -13.05 
L 95.815636 -13.05 
L 95.714182 -13.05 
L 95.612727 -13.05 
L 95.511273 -13.05 
L 95.409818 -13.05 
L 95.308364 -13.05 
L 95.206909 -13.05 
L 95.105455 -13.05 
L 95.004 -13.05 
L 94.902545 -13.05 
L 94.801091 -13.05 
L 94.699636 -13.05 
L 94.598182 -13.05 
L 94.496727 -13.05 
L 94.395273 -13.05 
L 94.293818 -13.05 
L 94.192364 -13.05 
L 94.090909 -13.05 
L 93.989455 -13.05 
L 93.888 -13.05 
L 93.786545 -13.05 
L 93.685091 -13.05 
L 93.583636 -13.05 
L 93.482182 -13.05 
L 93.380727 -13.05 
L 93.279273 -13.05 
L 93.177818 -13.05 
L 93.076364 -13.05 
L 92.974909 -13.05 
L 92.873455 -13.05 
L 92.772 -13.05 
L 92.670545 -13.05 
L 92.569091 -13.05 
L 92.467636 -13.05 
L 92.366182 -13.05 
L 92.264727 -13.05 
L 92.163273 -13.05 
L 92.061818 -13.05 
L 91.960364 -13.05 
L 91.858909 -13.05 
L 91.757455 -13.05 
L 91.656 -13.05 
L 91.554545 -13.05 
L 91.453091 -13.05 
L 91.351636 -13.05 
L 91.250182 -13.05 
L 91.148727 -13.05 
L 91.047273 -13.05 
L 90.945818 -13.05 
L 90.844364 -13.05 
L 90.742909 -13.05 
L 90.641455 -13.05 
L 90.54 -13.05 
L 90.438545 -13.05 
L 90.337091 -13.05 
L 90.235636 -13.05 
L 90.134182 -13.05 
L 90.032727 -13.05 
L 89.931273 -13.05 
L 89.829818 -13.05 
L 89.728364 -13.05 
L 89.626909 -13.05 
L 89.525455 -13.05 
L 89.424 -13.05 
L 89.322545 -13.05 
L 89.221091 -13.05 
L 89.119636 -13.05 
L 89.018182 -13.05 
L 88.916727 -13.05 
L 88.815273 -13.05 
L 88.713818 -13.05 
L 88.612364 -13.05 
L 88.510909 -13.05 
L 88.409455 -13.05 
L 88.308 -13.05 
L 88.206545 -13.05 
L 88.105091 -13.05 
L 88.003636 -13.05 
L 87.902182 -13.05 
L 87.800727 -13.05 
L 87.699273 -13.05 
L 87.597818 -13.05 
L 87.496364 -13.05 
L 87.394909 -13.05 
L 87.293455 -13.05 
L 87.192 -13.05 
L 87.090545 -13.05 
L 86.989091 -13.05 
L 86.887636 -13.05 
L 86.786182 -13.05 
L 86.684727 -13.05 
L 86.583273 -13.05 
L 86.481818 -13.05 
L 86.380364 -13.05 
L 86.278909 -13.05 
L 86.177455 -13.05 
L 86.076 -13.05 
L 85.974545 -13.05 
L 85.873091 -13.05 
L 85.771636 -13.05 
L 85.670182 -13.05 
L 85.568727 -13.05 
L 85.467273 -13.05 
L 85.365818 -13.05 
L 85.264364 -13.05 
L 85.162909 -13.05 
L 85.061455 -13.05 
L 84.96 -13.05 
L 84.858545 -13.05 
L 84.757091 -13.05 
L 84.655636 -13.05 
L 84.554182 -13.05 
L 84.452727 -13.05 
L 84.351273 -13.05 
L 84.249818 -13.05 
L 84.148364 -13.05 
L 84.046909 -13.05 
L 83.945455 -13.05 
L 83.844 -13.05 
L 83.742545 -13.05 
L 83.641091 -13.05 
L 83.539636 -13.05 
L 83.438182 -13.05 
L 83.336727 -13.05 
L 83.235273 -13.05 
L 83.133818 -13.05 
L 83.032364 -13.05 
L 82.930909 -13.05 
L 82.829455 -13.05 
L 82.728 -13.05 
L 82.626545 -13.05 
L 82.525091 -13.05 
L 82.423636 -13.05 
L 82.322182 -13.05 
L 82.220727 -13.05 
L 82.119273 -13.05 
L 82.017818 -13.05 
L 81.916364 -13.05 
L 81.814909 -13.05 
L 81.713455 -13.05 
L 81.612 -13.05 
L 81.510545 -13.05 
L 81.409091 -13.05 
L 81.307636 -13.05 
L 81.206182 -13.05 
L 81.104727 -13.05 
L 81.003273 -13.05 
L 80.901818 -13.05 
L 80.800364 -13.05 
L 80.698909 -13.05 
L 80.597455 -13.05 
L 80.496 -13.05 
L 80.394545 -13.05 
L 80.293091 -13.05 
L 80.191636 -13.05 
L 80.090182 -13.05 
L 79.988727 -13.05 
L 79.887273 -13.05 
L 79.785818 -13.05 
L 79.684364 -13.05 
L 79.582909 -13.05 
L 79.481455 -13.05 
L 79.38 -13.05 
L 79.278545 -13.05 
L 79.177091 -13.05 
L 79.075636 -13.05 
L 78.974182 -13.05 
L 78.872727 -13.05 
L 78.771273 -13.05 
L 78.669818 -13.05 
L 78.568364 -13.05 
L 78.466909 -13.05 
L 78.365455 -13.05 
L 78.264 -13.05 
L 78.162545 -13.05 
L 78.061091 -13.05 
L 77.959636 -13.05 
L 77.858182 -13.05 
L 77.756727 -13.05 
L 77.655273 -13.05 
L 77.553818 -13.05 
L 77.452364 -13.05 
L 77.350909 -13.05 
L 77.249455 -13.05 
L 77.148 -13.05 
L 77.046545 -13.05 
L 76.945091 -13.05 
L 76.843636 -13.05 
L 76.742182 -13.05 
L 76.640727 -13.05 
L 76.539273 -13.05 
L 76.437818 -13.05 
L 76.336364 -13.05 
L 76.234909 -13.05 
L 76.133455 -13.05 
L 76.032 -13.05 
L 75.930545 -13.05 
L 75.829091 -13.05 
L 75.727636 -13.05 
L 75.626182 -13.05 
L 75.524727 -13.05 
L 75.423273 -13.05 
L 75.321818 -13.05 
L 75.220364 -13.05 
L 75.118909 -13.05 
L 75.017455 -13.05 
L 74.916 -13.05 
L 74.814545 -13.05 
L 74.713091 -13.05 
L 74.611636 -13.05 
L 74.510182 -13.05 
L 74.408727 -13.05 
L 74.307273 -13.05 
L 74.205818 -13.05 
L 74.104364 -13.05 
L 74.002909 -13.05 
L 73.901455 -13.05 
L 73.8 -13.05 
L 73.698545 -13.05 
L 73.597091 -13.05 
L 73.495636 -13.05 
L 73.394182 -13.05 
L 73.292727 -13.05 
L 73.191273 -13.05 
L 73.089818 -13.05 
L 72.988364 -13.05 
L 72.886909 -13.05 
L 72.785455 -13.05 
L 72.684 -13.05 
L 72.582545 -13.05 
L 72.481091 -13.05 
L 72.379636 -13.05 
L 72.278182 -13.05 
L 72.176727 -13.05 
L 72.075273 -13.05 
L 71.973818 -13.05 
L 71.872364 -13.05 
L 71.770909 -13.05 
L 71.669455 -13.05 
L 71.568 -13.05 
L 71.466545 -13.05 
L 71.365091 -13.05 
L 71.263636 -13.05 
L 71.162182 -13.05 
L 71.060727 -13.05 
L 70.959273 -13.05 
L 70.857818 -13.05 
L 70.756364 -13.05 
L 70.654909 -13.05 
L 70.553455 -13.05 
L 70.452 -13.05 
L 70.350545 -13.05 
L 70.249091 -13.05 
L 70.147636 -13.05 
L 70.046182 -13.05 
L 69.944727 -13.05 
L 69.843273 -13.05 
L 69.741818 -13.05 
L 69.640364 -13.05 
L 69.538909 -13.05 
L 69.437455 -13.05 
L 69.336 -13.05 
L 69.234545 -13.05 
L 69.133091 -13.05 
L 69.031636 -13.05 
L 68.930182 -13.05 
L 68.828727 -13.05 
L 68.727273 -13.05 
L 68.625818 -13.05 
L 68.524364 -13.05 
L 68.422909 -13.05 
L 68.321455 -13.05 
L 68.22 -13.05 
L 68.118545 -13.05 
L 68.017091 -13.05 
L 67.915636 -13.05 
L 67.814182 -13.05 
L 67.712727 -13.05 
L 67.611273 -13.05 
L 67.509818 -13.05 
L 67.408364 -13.05 
L 67.306909 -13.05 
L 67.205455 -13.05 
L 67.104 -13.05 
L 67.002545 -13.05 
L 66.901091 -13.05 
L 66.799636 -13.05 
L 66.698182 -13.05 
L 66.596727 -13.05 
L 66.495273 -13.05 
L 66.393818 -13.05 
L 66.292364 -13.05 
L 66.190909 -13.05 
L 66.089455 -13.05 
L 65.988 -13.05 
L 65.886545 -13.05 
L 65.785091 -13.05 
L 65.683636 -13.05 
L 65.582182 -13.05 
L 65.480727 -13.05 
L 65.379273 -13.05 
L 65.277818 -13.05 
L 65.176364 -13.05 
L 65.074909 -13.05 
L 64.973455 -13.05 
L 64.872 -13.05 
L 64.770545 -13.05 
L 64.669091 -13.05 
L 64.567636 -13.05 
L 64.466182 -13.05 
L 64.364727 -13.05 
L 64.263273 -13.05 
L 64.161818 -13.05 
L 64.060364 -13.05 
L 63.958909 -13.05 
L 63.857455 -13.05 
L 63.756 -13.05 
L 63.654545 -13.05 
L 63.553091 -13.05 
L 63.451636 -13.05 
L 63.350182 -13.05 
L 63.248727 -13.05 
L 63.147273 -13.05 
L 63.045818 -13.05 
L 62.944364 -13.05 
L 62.842909 -13.05 
L 62.741455 -13.05 
L 62.64 -13.05 
L 62.538545 -13.05 
L 62.437091 -13.05 
L 62.335636 -13.05 
L 62.234182 -13.05 
L 62.132727 -13.05 
L 62.031273 -13.05 
L 61.929818 -13.05 
L 61.828364 -13.05 
L 61.726909 -13.05 
L 61.625455 -13.05 
L 61.524 -13.05 
L 61.422545 -13.05 
L 61.321091 -13.05 
L 61.219636 -13.05 
L 61.118182 -13.05 
L 61.016727 -13.05 
L 60.915273 -13.05 
L 60.813818 -13.05 
L 60.712364 -13.05 
L 60.610909 -13.05 
L 60.509455 -13.05 
L 60.408 -13.05 
L 60.306545 -13.05 
L 60.205091 -13.05 
L 60.103636 -13.05 
L 60.002182 -13.05 
L 59.900727 -13.05 
L 59.799273 -13.05 
L 59.697818 -13.05 
L 59.596364 -13.05 
L 59.494909 -13.05 
L 59.393455 -13.05 
L 59.292 -13.05 
L 59.190545 -13.05 
L 59.089091 -13.05 
L 58.987636 -13.05 
L 58.886182 -13.05 
L 58.784727 -13.05 
L 58.683273 -13.05 
L 58.581818 -13.05 
L 58.480364 -13.05 
L 58.378909 -13.05 
L 58.277455 -13.05 
L 58.176 -13.05 
L 58.074545 -13.05 
L 57.973091 -13.05 
L 57.871636 -13.05 
L 57.770182 -13.05 
L 57.668727 -13.05 
L 57.567273 -13.05 
L 57.465818 -13.05 
L 57.364364 -13.05 
L 57.262909 -13.05 
L 57.161455 -13.05 
L 57.06 -13.05 
L 56.958545 -13.05 
L 56.857091 -13.05 
L 56.755636 -13.05 
L 56.654182 -13.05 
L 56.552727 -13.05 
L 56.451273 -13.05 
L 56.349818 -13.05 
L 56.248364 -13.05 
L 56.146909 -13.05 
L 56.045455 -13.05 
L 55.944 -13.05 
L 55.842545 -13.05 
L 55.741091 -13.05 
L 55.639636 -13.05 
L 55.538182 -13.05 
L 55.436727 -13.05 
L 55.335273 -13.05 
L 55.233818 -13.05 
L 55.132364 -13.05 
L 55.030909 -13.05 
L 54.929455 -13.05 
L 54.828 -13.05 
L 54.726545 -13.05 
L 54.625091 -13.05 
L 54.523636 -13.05 
L 54.422182 -13.05 
L 54.320727 -13.05 
L 54.219273 -13.05 
L 54.117818 -13.05 
L 54.016364 -13.05 
L 53.914909 -13.05 
L 53.813455 -13.05 
L 53.712 -13.05 
L 53.610545 -13.05 
L 53.509091 -13.05 
L 53.407636 -13.05 
L 53.306182 -13.05 
L 53.204727 -13.05 
L 53.103273 -13.05 
L 53.001818 -13.05 
L 52.900364 -13.05 
L 52.798909 -13.05 
L 52.697455 -13.05 
L 52.596 -13.05 
L 52.494545 -13.05 
L 52.393091 -13.05 
L 52.291636 -13.05 
L 52.190182 -13.05 
L 52.088727 -13.05 
L 51.987273 -13.05 
L 51.885818 -13.05 
L 51.784364 -13.05 
L 51.682909 -13.05 
L 51.581455 -13.05 
L 51.48 -13.05 
L 51.378545 -13.05 
L 51.277091 -13.05 
L 51.175636 -13.05 
L 51.074182 -13.05 
L 50.972727 -13.05 
L 50.871273 -13.05 
L 50.769818 -13.05 
L 50.668364 -13.05 
L 50.566909 -13.05 
L 50.465455 -13.05 
L 50.364 -13.05 
L 50.262545 -13.05 
L 50.161091 -13.05 
L 50.059636 -13.05 
L 49.958182 -13.05 
L 49.856727 -13.05 
L 49.755273 -13.05 
L 49.653818 -13.05 
L 49.552364 -13.05 
L 49.450909 -13.05 
L 49.349455 -13.05 
L 49.248 -13.05 
L 49.146545 -13.05 
L 49.045091 -13.05 
L 48.943636 -13.05 
L 48.842182 -13.05 
L 48.740727 -13.05 
L 48.639273 -13.05 
L 48.537818 -13.05 
L 48.436364 -13.05 
L 48.334909 -13.05 
L 48.233455 -13.05 
L 48.132 -13.05 
L 48.030545 -13.05 
L 47.929091 -13.05 
L 47.827636 -13.05 
L 47.726182 -13.05 
L 47.624727 -13.05 
L 47.523273 -13.05 
L 47.421818 -13.05 
L 47.320364 -13.05 
L 47.218909 -13.05 
L 47.117455 -13.05 
L 47.016 -13.05 
L 46.914545 -13.05 
L 46.813091 -13.05 
L 46.711636 -13.05 
L 46.610182 -13.05 
L 46.508727 -13.05 
L 46.407273 -13.05 
L 46.305818 -13.05 
L 46.204364 -13.05 
L 46.102909 -13.05 
L 46.001455 -13.05 
L 45.9 -13.05 
L 45.798545 -13.05 
L 45.697091 -13.05 
L 45.595636 -13.05 
L 45.494182 -13.05 
L 45.392727 -13.05 
L 45.291273 -13.05 
L 45.189818 -13.05 
L 45.088364 -13.05 
L 44.986909 -13.05 
L 44.885455 -13.05 
L 44.784 -13.05 
L 44.682545 -13.05 
L 44.581091 -13.05 
L 44.479636 -13.05 
L 44.378182 -13.05 
L 44.276727 -13.05 
L 44.175273 -13.05 
L 44.073818 -13.05 
L 43.972364 -13.05 
L 43.870909 -13.05 
L 43.769455 -13.05 
L 43.668 -13.05 
L 43.566545 -13.05 
L 43.465091 -13.05 
L 43.363636 -13.05 
L 43.262182 -13.05 
L 43.160727 -13.05 
L 43.059273 -13.05 
L 42.957818 -13.05 
L 42.856364 -13.05 
L 42.754909 -13.05 
L 42.653455 -13.05 
L 42.552 -13.05 
L 42.450545 -13.05 
L 42.349091 -13.05 
L 42.247636 -13.05 
L 42.146182 -13.05 
L 42.044727 -13.05 
L 41.943273 -13.05 
L 41.841818 -13.05 
L 41.740364 -13.05 
L 41.638909 -13.05 
L 41.537455 -13.05 
L 41.436 -13.05 
L 41.334545 -13.05 
L 41.233091 -13.05 
L 41.131636 -13.05 
L 41.030182 -13.05 
L 40.928727 -13.05 
L 40.827273 -13.05 
L 40.725818 -13.05 
L 40.624364 -13.05 
L 40.522909 -13.05 
L 40.421455 -13.05 
L 40.32 -13.05 
L 40.218545 -13.05 
L 40.117091 -13.05 
L 40.015636 -13.05 
L 39.914182 -13.05 
L 39.812727 -13.05 
L 39.711273 -13.05 
L 39.609818 -13.05 
L 39.508364 -13.05 
L 39.406909 -13.05 
L 39.305455 -13.05 
L 39.204 -13.05 
L 39.102545 -13.05 
L 39.001091 -13.05 
L 38.899636 -13.05 
L 38.798182 -13.05 
L 38.696727 -13.05 
L 38.595273 -13.05 
L 38.493818 -13.05 
L 38.392364 -13.05 
L 38.290909 -13.05 
L 38.189455 -13.05 
L 38.088 -13.05 
L 37.986545 -13.05 
L 37.885091 -13.05 
L 37.783636 -13.05 
L 37.682182 -13.05 
L 37.580727 -13.05 
L 37.479273 -13.05 
L 37.377818 -13.05 
L 37.276364 -13.05 
L 37.174909 -13.05 
L 37.073455 -13.05 
L 36.972 -13.05 
L 36.870545 -13.05 
L 36.769091 -13.05 
L 36.667636 -13.05 
L 36.566182 -13.05 
L 36.464727 -13.05 
L 36.363273 -13.05 
L 36.261818 -13.05 
L 36.160364 -13.05 
L 36.058909 -13.05 
L 35.957455 -13.05 
L 35.856 -13.05 
L 35.754545 -13.05 
L 35.653091 -13.05 
L 35.551636 -13.05 
L 35.450182 -13.05 
L 35.348727 -13.05 
L 35.247273 -13.05 
L 35.145818 -13.05 
L 35.044364 -13.05 
L 34.942909 -13.05 
L 34.841455 -13.05 
L 34.74 -13.05 
L 34.638545 -13.05 
L 34.537091 -13.05 
L 34.435636 -13.05 
L 34.334182 -13.05 
L 34.232727 -13.05 
L 34.131273 -13.05 
L 34.029818 -13.05 
L 33.928364 -13.05 
L 33.826909 -13.05 
L 33.725455 -13.05 
L 33.624 -13.05 
L 33.522545 -13.05 
L 33.421091 -13.05 
L 33.319636 -13.05 
L 33.218182 -13.05 
L 33.116727 -13.05 
L 33.015273 -13.05 
L 32.913818 -13.05 
L 32.812364 -13.05 
L 32.710909 -13.05 
L 32.609455 -13.05 
L 32.508 -13.05 
L 32.406545 -13.05 
L 32.305091 -13.05 
L 32.203636 -13.05 
L 32.102182 -13.05 
L 32.000727 -13.05 
L 31.899273 -13.05 
L 31.797818 -13.05 
L 31.696364 -13.05 
L 31.594909 -13.05 
L 31.493455 -13.05 
L 31.392 -13.05 
L 31.290545 -13.05 
L 31.189091 -13.05 
L 31.087636 -13.05 
L 30.986182 -13.05 
L 30.884727 -13.05 
L 30.783273 -13.05 
L 30.681818 -13.05 
L 30.580364 -13.05 
L 30.478909 -13.05 
L 30.377455 -13.05 
L 30.276 -13.05 
L 30.174545 -13.05 
L 30.073091 -13.05 
L 29.971636 -13.05 
L 29.870182 -13.05 
L 29.768727 -13.05 
L 29.667273 -13.05 
L 29.565818 -13.05 
L 29.464364 -13.05 
L 29.362909 -13.05 
L 29.261455 -13.05 
L 29.16 -13.05 
L 29.058545 -13.05 
L 28.957091 -13.05 
L 28.855636 -13.05 
L 28.754182 -13.05 
L 28.652727 -13.05 
L 28.551273 -13.05 
L 28.449818 -13.05 
L 28.348364 -13.05 
L 28.246909 -13.05 
L 28.145455 -13.05 
L 28.044 -13.05 
L 27.942545 -13.05 
L 27.841091 -13.05 
L 27.739636 -13.05 
L 27.638182 -13.05 
L 27.536727 -13.05 
L 27.435273 -13.05 
L 27.333818 -13.05 
L 27.232364 -13.05 
L 27.130909 -13.05 
L 27.029455 -13.05 
L 26.928 -13.05 
L 26.826545 -13.05 
L 26.725091 -13.05 
L 26.623636 -13.05 
L 26.522182 -13.05 
L 26.420727 -13.05 
L 26.319273 -13.05 
L 26.217818 -13.05 
L 26.116364 -13.05 
L 26.014909 -13.05 
L 25.913455 -13.05 
L 25.812 -13.05 
L 25.710545 -13.05 
L 25.609091 -13.05 
L 25.507636 -13.05 
L 25.406182 -13.05 
L 25.304727 -13.05 
L 25.203273 -13.05 
L 25.101818 -13.05 
L 25.000364 -13.05 
L 24.898909 -13.05 
L 24.797455 -13.05 
L 24.696 -13.05 
L 24.594545 -13.05 
L 24.493091 -13.05 
L 24.391636 -13.05 
L 24.290182 -13.05 
L 24.188727 -13.05 
L 24.087273 -13.05 
L 23.985818 -13.05 
L 23.884364 -13.05 
L 23.782909 -13.05 
L 23.681455 -13.05 
L 23.58 -13.05 
L 23.478545 -13.05 
L 23.377091 -13.05 
L 23.275636 -13.05 
L 23.174182 -13.05 
L 23.072727 -13.05 
z
" style="stroke: #ff0000; stroke-opacity: 0.25"/>
    </defs>
    <g clip-path="url(#pe3a4bf004a)">
     <use xlink:href="#mbeaae24b34" x="0" y="90" style="fill: #ff0000; fill-opacity: 0.25; stroke: #ff0000; stroke-opacity: 0.25"/>
    </g>
   </g>
   <g id="line2d_23">
    <path d="M 35.754545 80.1 
L 35.754545 10.8 
" clip-path="url(#pe3a4bf004a)" style="fill: none; stroke-dasharray: 7.4,3.2; stroke-dashoffset: 0; stroke: #008000; stroke-width: 2"/>
   </g>
   <g id="LineCollection_1">
    <path d="M 23.072727 76.95 
L 124.527273 76.95 
" clip-path="url(#pe3a4bf004a)" style="fill: none; stroke: #000000; stroke-width: 1.5"/>
   </g>
   <g id="patch_3">
    <path d="M 18 80.1 
L 18 10.8 
" style="fill: none; stroke: #000000; stroke-width: 0.8; stroke-linejoin: miter; stroke-linecap: square"/>
   </g>
   <g id="patch_4">
    <path d="M 129.6 80.1 
L 129.6 10.8 
" style="fill: none; stroke: #000000; stroke-width: 0.8; stroke-linejoin: miter; stroke-linecap: square"/>
   </g>
   <g id="patch_5">
    <path d="M 18 80.1 
L 129.6 80.1 
" style="fill: none; stroke: #000000; stroke-width: 0.8; stroke-linejoin: miter; stroke-linecap: square"/>
   </g>
   <g id="patch_6">
    <path d="M 18 10.8 
L 129.6 10.8 
" style="fill: none; stroke: #000000; stroke-width: 0.8; stroke-linejoin: miter; stroke-linecap: square"/>
   </g>
   <g id="text_9">
    <!-- $\Delta\lambda$ -->
    <g transform="translate(66.12 4.8) scale(0.12 -0.12)">
     <defs>
      <path id="DejaVuSans-394" d="M 2188 4044 
L 906 525 
L 3472 525 
L 2188 4044 
z
M 50 0 
L 1831 4666 
L 2547 4666 
L 4325 0 
L 50 0 
z
" transform="scale(0.015625)"/>
      <path id="DejaVuSans-Oblique-3bb" d="M 2350 4316 
L 3125 0 
L 2516 0 
L 2038 2588 
L 328 0 
L -281 0 
L 1903 3356 
L 1794 3975 
Q 1725 4369 1391 4369 
L 1091 4369 
L 1184 4863 
L 1550 4856 
Q 2253 4847 2350 4316 
z
" transform="scale(0.015625)"/>
     </defs>
     <use xlink:href="#DejaVuSans-394" transform="translate(0 0.015625)"/>
     <use xlink:href="#DejaVuSans-Oblique-3bb" transform="translate(68.408203 0.015625)"/>
    </g>
   </g>
  </g>
  <g id="axes_2">
   <g id="matplotlib.axis_3">
    <g id="ytick_4">
     <g id="line2d_24">
      <defs>
       <path id="mbeb408c0cb" d="M 0 0 
L 3.5 0 
" style="stroke: #000000; stroke-width: 0.8"/>
      </defs>
      <g>
       <use xlink:href="#mbeb408c0cb" x="129.6" y="67.113767" style="stroke: #000000; stroke-width: 0.8"/>
      </g>
     </g>
     <g id="text_10">
      <!-- 0.2 -->
      <g transform="translate(136.6 70.912985) scale(0.1 -0.1)">
       <defs>
        <path id="DejaVuSans-32" d="M 1228 531 
L 3431 531 
L 3431 0 
L 469 0 
L 469 531 
Q 828 903 1448 1529 
Q 2069 2156 2228 2338 
Q 2531 2678 2651 2914 
Q 2772 3150 2772 3378 
Q 2772 3750 2511 3984 
Q 2250 4219 1831 4219 
Q 1534 4219 1204 4116 
Q 875 4013 500 3803 
L 500 4441 
Q 881 4594 1212 4672 
Q 1544 4750 1819 4750 
Q 2544 4750 2975 4387 
Q 3406 4025 3406 3419 
Q 3406 3131 3298 2873 
Q 3191 2616 2906 2266 
Q 2828 2175 2409 1742 
Q 1991 1309 1228 531 
z
" transform="scale(0.015625)"/>
       </defs>
       <use xlink:href="#DejaVuSans-30"/>
       <use xlink:href="#DejaVuSans-2e" x="63.623047"/>
       <use xlink:href="#DejaVuSans-32" x="95.410156"/>
      </g>
     </g>
    </g>
    <g id="ytick_5">
     <g id="line2d_25">
      <g>
       <use xlink:href="#mbeb408c0cb" x="129.6" y="42.441973" style="stroke: #000000; stroke-width: 0.8"/>
      </g>
     </g>
     <g id="text_11">
      <!-- 0.4 -->
      <g transform="translate(136.6 46.241192) scale(0.1 -0.1)">
       <defs>
        <path id="DejaVuSans-34" d="M 2419 4116 
L 825 1625 
L 2419 1625 
L 2419 4116 
z
M 2253 4666 
L 3047 4666 
L 3047 1625 
L 3713 1625 
L 3713 1100 
L 3047 1100 
L 3047 0 
L 2419 0 
L 2419 1100 
L 313 1100 
L 313 1709 
L 2253 4666 
z
" transform="scale(0.015625)"/>
       </defs>
       <use xlink:href="#DejaVuSans-30"/>
       <use xlink:href="#DejaVuSans-2e" x="63.623047"/>
       <use xlink:href="#DejaVuSans-34" x="95.410156"/>
      </g>
     </g>
    </g>
    <g id="ytick_6">
     <g id="line2d_26">
      <g>
       <use xlink:href="#mbeb408c0cb" x="129.6" y="17.77018" style="stroke: #000000; stroke-width: 0.8"/>
      </g>
     </g>
     <g id="text_12">
      <!-- 0.6 -->
      <g transform="translate(136.6 21.569399) scale(0.1 -0.1)">
       <defs>
        <path id="DejaVuSans-36" d="M 2113 2584 
Q 1688 2584 1439 2293 
Q 1191 2003 1191 1497 
Q 1191 994 1439 701 
Q 1688 409 2113 409 
Q 2538 409 2786 701 
Q 3034 994 3034 1497 
Q 3034 2003 2786 2293 
Q 2538 2584 2113 2584 
z
M 3366 4563 
L 3366 3988 
Q 3128 4100 2886 4159 
Q 2644 4219 2406 4219 
Q 1781 4219 1451 3797 
Q 1122 3375 1075 2522 
Q 1259 2794 1537 2939 
Q 1816 3084 2150 3084 
Q 2853 3084 3261 2657 
Q 3669 2231 3669 1497 
Q 3669 778 3244 343 
Q 2819 -91 2113 -91 
Q 1303 -91 875 529 
Q 447 1150 447 2328 
Q 447 3434 972 4092 
Q 1497 4750 2381 4750 
Q 2619 4750 2861 4703 
Q 3103 4656 3366 4563 
z
" transform="scale(0.015625)"/>
       </defs>
       <use xlink:href="#DejaVuSans-30"/>
       <use xlink:href="#DejaVuSans-2e" x="63.623047"/>
       <use xlink:href="#DejaVuSans-36" x="95.410156"/>
      </g>
     </g>
    </g>
    <g id="text_13">
     <!-- $d(x)$ -->
     <g transform="translate(164.101562 55.5) rotate(-90) scale(0.1 -0.1)">
      <defs>
       <path id="DejaVuSans-Oblique-64" d="M 2675 525 
Q 2444 222 2128 65 
Q 1813 -91 1428 -91 
Q 903 -91 598 267 
Q 294 625 294 1247 
Q 294 1766 478 2236 
Q 663 2706 1013 3078 
Q 1244 3325 1534 3454 
Q 1825 3584 2144 3584 
Q 2481 3584 2739 3421 
Q 2997 3259 3138 2956 
L 3513 4863 
L 4091 4863 
L 3144 0 
L 2566 0 
L 2675 525 
z
M 891 1350 
Q 891 897 1095 644 
Q 1300 391 1663 391 
Q 1931 391 2161 520 
Q 2391 650 2566 903 
Q 2750 1166 2856 1509 
Q 2963 1853 2963 2188 
Q 2963 2622 2758 2865 
Q 2553 3109 2194 3109 
Q 1922 3109 1687 2981 
Q 1453 2853 1288 2613 
Q 1106 2353 998 2009 
Q 891 1666 891 1350 
z
" transform="scale(0.015625)"/>
      </defs>
      <use xlink:href="#DejaVuSans-Oblique-64" transform="translate(0 0.015625)"/>
      <use xlink:href="#DejaVuSans-28" transform="translate(63.476562 0.015625)"/>
      <use xlink:href="#DejaVuSans-Oblique-78" transform="translate(102.490234 0.015625)"/>
      <use xlink:href="#DejaVuSans-29" transform="translate(161.669922 0.015625)"/>
     </g>
    </g>
   </g>
   <g id="line2d_27">
    <path d="M 23.072727 76.95 
L 24.087273 76.531322 
L 26.420727 75.740526 
L 27.130909 75.141726 
L 27.739636 74.333605 
L 28.348364 73.175697 
L 29.058545 71.297367 
L 29.768727 68.778246 
L 30.580364 65.064607 
L 31.493455 59.844977 
L 32.710909 51.453299 
L 36.261818 25.747377 
L 37.174909 21.234419 
L 37.885091 18.80804 
L 38.392364 17.697327 
L 38.899636 17.105885 
L 39.305455 16.993805 
L 39.711273 17.183453 
L 40.117091 17.650388 
L 40.624364 18.578311 
L 41.334545 20.398424 
L 42.450545 24.039091 
L 44.885455 32.188215 
L 46.001455 35.038872 
L 47.016 37.020666 
L 48.030545 38.527208 
L 49.248 39.910196 
L 50.668364 41.164487 
L 51.885818 41.961988 
L 52.798909 42.315102 
L 53.509091 42.384303 
L 54.219273 42.228829 
L 54.929455 41.815138 
L 55.639636 41.12289 
L 56.451273 39.988329 
L 57.364364 38.312429 
L 58.683273 35.355842 
L 60.915273 30.294815 
L 61.828364 28.79864 
L 62.538545 28.050495 
L 63.147273 27.747012 
L 63.654545 27.746231 
L 64.161818 27.975152 
L 64.770545 28.539886 
L 65.480727 29.55711 
L 66.393818 31.311446 
L 68.118545 35.2766 
L 69.538909 38.295101 
L 70.452 39.772928 
L 71.263636 40.675829 
L 71.973818 41.121961 
L 72.582545 41.249361 
L 73.191273 41.153696 
L 73.901455 40.788118 
L 74.713091 40.091471 
L 75.829091 38.797483 
L 78.771273 35.208421 
L 79.785818 34.401755 
L 80.698909 33.964348 
L 81.612 33.781069 
L 82.728 33.815369 
L 86.380364 34.162815 
L 87.394909 33.930349 
L 88.308 33.502898 
L 89.221091 32.824265 
L 90.134182 31.844561 
L 91.047273 30.513453 
L 91.960364 28.795607 
L 93.076364 26.176299 
L 94.598182 21.925422 
L 96.424364 16.891146 
L 97.236 15.208832 
L 97.844727 14.361981 
L 98.352 13.998505 
L 98.757818 13.964012 
L 99.163636 14.17829 
L 99.569455 14.656678 
L 100.076727 15.642357 
L 100.685455 17.406515 
L 101.395636 20.256944 
L 102.207273 24.488964 
L 103.221818 31.003517 
L 104.845091 43.153209 
L 107.077091 59.623938 
L 108.193091 66.27829 
L 109.106182 70.522371 
L 109.917818 73.301256 
L 110.628 74.96514 
L 111.236727 75.84879 
L 111.744 76.23163 
L 112.251273 76.323513 
L 112.758545 76.157489 
L 113.367273 75.668707 
L 114.077455 74.782164 
L 115.092 73.123731 
L 118.135636 67.890792 
L 119.048727 66.816085 
L 119.860364 66.183011 
L 120.570545 65.902394 
L 121.179273 65.873493 
L 121.788 66.04252 
L 122.498182 66.488245 
L 123.208364 67.194519 
L 124.02 68.303417 
L 124.527273 69.147499 
L 124.527273 69.147499 
" clip-path="url(#pe3a4bf004a)" style="fill: none; stroke: #000000; stroke-width: 1.5; stroke-linecap: square"/>
   </g>
   <g id="patch_7">
    <path d="M 18 80.1 
L 18 10.8 
" style="fill: none; stroke: #000000; stroke-width: 0.8; stroke-linejoin: miter; stroke-linecap: square"/>
   </g>
   <g id="patch_8">
    <path d="M 129.6 80.1 
L 129.6 10.8 
" style="fill: none; stroke: #000000; stroke-width: 0.8; stroke-linejoin: miter; stroke-linecap: square"/>
   </g>
   <g id="patch_9">
    <path d="M 18 80.1 
L 129.6 80.1 
" style="fill: none; stroke: #000000; stroke-width: 0.8; stroke-linejoin: miter; stroke-linecap: square"/>
   </g>
   <g id="patch_10">
    <path d="M 18 10.8 
L 129.6 10.8 
" style="fill: none; stroke: #000000; stroke-width: 0.8; stroke-linejoin: miter; stroke-linecap: square"/>
   </g>
  </g>
 </g>
 <defs>
  <clipPath id="pe3a4bf004a">
   <rect x="18" y="10.8" width="111.6" height="69.3"/>
  </clipPath>
 </defs>
</svg>
