<?xml version="1.0" encoding="utf-8" standalone="no"?>
<!DOCTYPE svg PUBLIC "-//W3C//DTD SVG 1.1//EN"
  "http://www.w3.org/Graphics/SVG/1.1/DTD/svg11.dtd">
<svg xmlns:xlink="http://www.w3.org/1999/xlink" width="144pt" height="90pt" viewBox="0 0 144 90" xmlns="http://www.w3.org/2000/svg" version="1.1">
 <metadata>
  <rdf:RDF xmlns:dc="http://purl.org/dc/elements/1.1/" xmlns:cc="http://creativecommons.org/ns#" xmlns:rdf="http://www.w3.org/1999/02/22-rdf-syntax-ns#">
   <cc:Work>
    <dc:type rdf:resource="http://purl.org/dc/dcmitype/StillImage"/>
    <dc:date>2024-08-24T18:12:29.449904</dc:date>
    <dc:format>image/svg+xml</dc:format>
    <dc:creator>
     <cc:Agent>
      <dc:title>Matplotlib v3.7.3, https://matplotlib.org/</dc:title>
     </cc:Agent>
    </dc:creator>
   </cc:Work>
  </rdf:RDF>
 </metadata>
 <defs>
  <style type="text/css">*{stroke-linejoin: round; stroke-linecap: butt}</style>
 </defs>
 <g id="figure_1">
  <g id="patch_1">
   <path d="M 0 90 
L 144 90 
L 144 0 
L 0 0 
z
" style="fill: #ffffff"/>
  </g>
  <g id="axes_1">
   <g id="patch_2">
    <path d="M 18 80.1 
L 129.6 80.1 
L 129.6 10.8 
L 18 10.8 
z
" style="fill: #ffffff"/>
   </g>
   <g id="line2d_1">
    <path d="M 23.072727 69.766876 
L 23.985818 69.882305 
L 24.898909 70.217582 
L 26.014909 70.878933 
L 27.536727 72.07298 
L 30.783273 74.687355 
L 32.305091 75.579008 
L 33.725455 76.158057 
L 35.348727 76.565751 
L 37.276364 76.807479 
L 40.218545 76.926257 
L 48.943636 76.949984 
L 124.527273 76.95 
L 124.527273 76.95 
" clip-path="url(#p5c871bbb0b)" style="fill: none; stroke: #440154; stroke-width: 1.5; stroke-linecap: square"/>
   </g>
   <g id="line2d_2">
    <path d="M 23.072727 70.452269 
L 24.898909 67.108059 
L 26.826545 63.695732 
L 27.841091 62.321286 
L 28.652727 61.569205 
L 29.362909 61.213446 
L 29.971636 61.150373 
L 30.580364 61.313838 
L 31.189091 61.696846 
L 31.899273 62.399098 
L 32.812364 63.643495 
L 34.029818 65.719279 
L 37.580727 72.021738 
L 38.798182 73.630592 
L 39.914182 74.75338 
L 41.030182 75.565065 
L 42.247636 76.157646 
L 43.566545 76.544519 
L 45.291273 76.797524 
L 47.929091 76.922682 
L 55.335273 76.949948 
L 124.527273 76.95 
L 124.527273 76.95 
" clip-path="url(#p5c871bbb0b)" style="fill: none; stroke: #48186a; stroke-width: 1.5; stroke-linecap: square"/>
   </g>
   <g id="line2d_3">
    <path d="M 23.072727 76.647733 
L 24.696 76.275855 
L 26.014909 75.750358 
L 27.232364 75.026737 
L 28.449818 74.039214 
L 29.768727 72.676827 
L 31.696364 70.31811 
L 33.624 68.041345 
L 34.74 67.056382 
L 35.653091 66.551205 
L 36.464727 66.372209 
L 37.174909 66.436187 
L 37.986545 66.756436 
L 38.899636 67.401763 
L 40.015636 68.514717 
L 41.740364 70.617533 
L 43.972364 73.269593 
L 45.291273 74.511565 
L 46.508727 75.379559 
L 47.827636 76.036352 
L 49.248 76.477276 
L 50.972727 76.758865 
L 53.407636 76.906281 
L 58.886182 76.949319 
L 124.527273 76.95 
L 124.527273 76.95 
" clip-path="url(#p5c871bbb0b)" style="fill: none; stroke: #472d7b; stroke-width: 1.5; stroke-linecap: square"/>
   </g>
   <g id="line2d_4">
    <path d="M 23.072727 76.946992 
L 28.551273 76.823758 
L 30.681818 76.555979 
L 32.203636 76.152562 
L 33.522545 75.584052 
L 34.841455 74.76318 
L 36.160364 73.677846 
L 37.885091 71.944945 
L 40.522909 69.283591 
L 41.638909 68.485776 
L 42.552 68.096186 
L 43.363636 67.982129 
L 44.175273 68.096186 
L 44.986909 68.429727 
L 46.001455 69.116195 
L 47.218909 70.231611 
L 51.682909 74.613046 
L 53.001818 75.475014 
L 54.320727 76.079904 
L 55.741091 76.493036 
L 57.465818 76.761857 
L 60.002182 76.908645 
L 65.785091 76.949487 
L 124.527273 76.95 
L 124.527273 76.95 
" clip-path="url(#p5c871bbb0b)" style="fill: none; stroke: #424086; stroke-width: 1.5; stroke-linecap: square"/>
   </g>
   <g id="line2d_5">
    <path d="M 23.072727 76.949988 
L 33.928364 76.839835 
L 35.957455 76.585214 
L 37.377818 76.183185 
L 38.493818 75.648883 
L 39.508364 74.932438 
L 40.522909 73.944161 
L 41.537455 72.647384 
L 42.653455 70.854464 
L 44.073818 68.095817 
L 47.523273 61.131872 
L 48.436364 59.879418 
L 49.146545 59.238338 
L 49.755273 58.952672 
L 50.364 58.923853 
L 50.972727 59.153118 
L 51.581455 59.630669 
L 52.291636 60.474244 
L 53.204727 61.937398 
L 54.523636 64.554213 
L 57.668727 70.973571 
L 58.886182 72.885774 
L 60.002182 74.236724 
L 61.118182 75.224201 
L 62.234182 75.904157 
L 63.451636 76.376947 
L 64.872 76.685904 
L 66.901091 76.873778 
L 70.654909 76.944983 
L 100.786909 76.95 
L 124.527273 76.95 
L 124.527273 76.95 
" clip-path="url(#p5c871bbb0b)" style="fill: none; stroke: #3b528b; stroke-width: 1.5; stroke-linecap: square"/>
   </g>
   <g id="line2d_6">
    <path d="M 23.072727 76.95 
L 41.334545 76.840022 
L 43.465091 76.584934 
L 44.986909 76.177927 
L 46.204364 75.632516 
L 47.320364 74.905833 
L 48.436364 73.928186 
L 49.653818 72.569963 
L 51.277091 70.38081 
L 54.016364 66.628898 
L 55.030909 65.619209 
L 55.842545 65.087401 
L 56.552727 64.858245 
L 57.262909 64.863886 
L 57.973091 65.103997 
L 58.784727 65.647124 
L 59.697818 66.551546 
L 60.915273 68.103188 
L 64.872 73.434938 
L 66.089455 74.608815 
L 67.306909 75.477948 
L 68.524364 76.076234 
L 69.944727 76.507925 
L 71.669455 76.776054 
L 74.205818 76.914231 
L 80.394545 76.949736 
L 124.527273 76.95 
L 124.527273 76.95 
" clip-path="url(#p5c871bbb0b)" style="fill: none; stroke: #33638d; stroke-width: 1.5; stroke-linecap: square"/>
   </g>
   <g id="line2d_7">
    <path d="M 23.072727 76.95 
L 46.914545 76.841659 
L 48.842182 76.596783 
L 50.161091 76.22041 
L 51.277091 75.671449 
L 52.291636 74.908414 
L 53.204727 73.943649 
L 54.117818 72.664115 
L 55.132364 70.831438 
L 56.248364 68.307196 
L 57.567273 64.736681 
L 61.016727 55.031587 
L 61.929818 53.267721 
L 62.64 52.355397 
L 63.248727 51.938717 
L 63.756 51.863571 
L 64.263273 52.038562 
L 64.770545 52.458477 
L 65.379273 53.267721 
L 66.089455 54.588806 
L 67.002545 56.769293 
L 68.422909 60.819256 
L 70.857818 67.794754 
L 72.075273 70.623627 
L 73.191273 72.664115 
L 74.205818 74.065571 
L 75.220364 75.084877 
L 76.234909 75.791267 
L 77.350909 76.294576 
L 78.669818 76.635972 
L 80.394545 76.841659 
L 83.336727 76.936495 
L 95.815636 76.95 
L 124.527273 76.95 
L 124.527273 76.95 
" clip-path="url(#p5c871bbb0b)" style="fill: none; stroke: #2c728e; stroke-width: 1.5; stroke-linecap: square"/>
   </g>
   <g id="line2d_8">
    <path d="M 23.072727 76.95 
L 55.335273 76.839247 
L 57.465818 76.596495 
L 59.089091 76.18966 
L 60.408 75.636262 
L 61.726909 74.828458 
L 63.045818 73.74789 
L 64.669091 72.106311 
L 67.712727 68.964108 
L 68.727273 68.24112 
L 69.640364 67.851194 
L 70.452 67.743806 
L 71.263636 67.870584 
L 72.075273 68.221939 
L 73.089818 68.935841 
L 74.307273 70.087925 
L 78.669818 74.498067 
L 79.988727 75.39707 
L 81.307636 76.030744 
L 82.728 76.465412 
L 84.452727 76.749577 
L 86.887636 76.902666 
L 92.163273 76.949058 
L 124.527273 76.95 
L 124.527273 76.95 
" clip-path="url(#p5c871bbb0b)" style="fill: none; stroke: #26828e; stroke-width: 1.5; stroke-linecap: square"/>
   </g>
   <g id="line2d_9">
    <path d="M 23.072727 76.95 
L 61.422545 76.844194 
L 63.553091 76.59283 
L 65.074909 76.185508 
L 66.292364 75.632868 
L 67.408364 74.888316 
L 68.524364 73.875354 
L 69.741818 72.450394 
L 71.162182 70.426203 
L 74.510182 65.467128 
L 75.524727 64.444234 
L 76.336364 63.940804 
L 77.046545 63.763549 
L 77.756727 63.843305 
L 78.466909 64.17543 
L 79.278545 64.838891 
L 80.191636 65.887919 
L 81.510545 67.784408 
L 84.757091 72.62452 
L 86.076 74.113824 
L 87.293455 75.140851 
L 88.510909 75.860568 
L 89.829818 76.360694 
L 91.351636 76.683348 
L 93.380727 76.869471 
L 97.134545 76.944235 
L 124.222909 76.95 
L 124.527273 76.95 
L 124.527273 76.95 
" clip-path="url(#p5c871bbb0b)" style="fill: none; stroke: #21918c; stroke-width: 1.5; stroke-linecap: square"/>
   </g>
   <g id="line2d_10">
    <path d="M 23.072727 76.95 
L 68.524364 76.840173 
L 70.654909 76.589495 
L 72.176727 76.19365 
L 73.495636 75.613373 
L 74.713091 74.820794 
L 75.930545 73.748084 
L 77.249455 72.281913 
L 79.38 69.509416 
L 81.104727 67.413283 
L 82.119273 66.494279 
L 82.930909 66.015212 
L 83.641091 65.814377 
L 84.351273 65.829956 
L 85.061455 66.061042 
L 85.873091 66.571366 
L 86.786182 67.413283 
L 88.105091 68.979484 
L 91.757455 73.541919 
L 93.076364 74.742304 
L 94.293818 75.557432 
L 95.612727 76.157887 
L 97.033091 76.549984 
L 98.859273 76.801898 
L 101.598545 76.923833 
L 109.410545 76.949962 
L 124.527273 76.95 
L 124.527273 76.95 
" clip-path="url(#p5c871bbb0b)" style="fill: none; stroke: #1fa088; stroke-width: 1.5; stroke-linecap: square"/>
   </g>
   <g id="line2d_11">
    <path d="M 23.072727 76.95 
L 74.510182 76.840588 
L 76.539273 76.587708 
L 77.959636 76.188428 
L 79.075636 75.657779 
L 80.090182 74.946233 
L 81.104727 73.964714 
L 82.119273 72.676803 
L 83.235273 70.896143 
L 84.655636 68.156358 
L 88.105091 61.240029 
L 89.018182 59.996139 
L 89.728364 59.359442 
L 90.337091 59.07573 
L 90.945818 59.047108 
L 91.554545 59.274805 
L 92.163273 59.749091 
L 92.873455 60.586898 
L 93.786545 62.040048 
L 95.105455 64.63897 
L 98.250545 71.014435 
L 99.468 72.913563 
L 100.584 74.255277 
L 101.7 75.236002 
L 102.816 75.911308 
L 104.033455 76.380865 
L 105.453818 76.68771 
L 107.482909 76.8743 
L 111.236727 76.945017 
L 124.527273 76.95 
L 124.527273 76.95 
" clip-path="url(#p5c871bbb0b)" style="fill: none; stroke: #28ae80; stroke-width: 1.5; stroke-linecap: square"/>
   </g>
   <g id="line2d_12">
    <path d="M 23.072727 76.95 
L 81.510545 76.838945 
L 83.539636 76.589068 
L 84.96 76.201138 
L 86.177455 75.634786 
L 87.293455 74.854764 
L 88.308 73.88208 
L 89.424 72.493934 
L 90.641455 70.613881 
L 92.467636 67.306671 
L 94.395273 63.897239 
L 95.409818 62.505221 
L 96.221455 61.730162 
L 96.931636 61.349031 
L 97.540364 61.26142 
L 98.149091 61.398874 
L 98.757818 61.755507 
L 99.468 62.427976 
L 100.381091 63.637993 
L 101.598545 65.678624 
L 105.250909 72.107329 
L 106.468364 73.693456 
L 107.584364 74.798139 
L 108.700364 75.595273 
L 109.917818 76.176168 
L 111.236727 76.554683 
L 112.961455 76.801683 
L 115.599273 76.923519 
L 123.208364 76.94996 
L 124.527273 76.94999 
L 124.527273 76.94999 
" clip-path="url(#p5c871bbb0b)" style="fill: none; stroke: #3fbc73; stroke-width: 1.5; stroke-linecap: square"/>
   </g>
   <g id="line2d_13">
    <path d="M 23.072727 76.95 
L 88.308 76.841315 
L 90.337091 76.597711 
L 91.757455 76.220433 
L 92.974909 75.670722 
L 94.090909 74.914999 
L 95.206909 73.865788 
L 96.322909 72.496474 
L 97.641818 70.49086 
L 99.873818 66.561534 
L 101.395636 64.095471 
L 102.410182 62.856747 
L 103.221818 62.211013 
L 103.932 61.940307 
L 104.540727 61.940307 
L 105.149455 62.154898 
L 105.859636 62.663769 
L 106.671273 63.549444 
L 107.685818 65.017137 
L 109.309091 67.829759 
L 111.541091 71.618161 
L 112.86 73.405149 
L 113.976 74.569534 
L 115.092 75.426979 
L 116.208 76.02161 
L 117.526909 76.464076 
L 119.150182 76.750373 
L 121.483636 76.903556 
L 124.527273 76.944956 
L 124.527273 76.944956 
" clip-path="url(#p5c871bbb0b)" style="fill: none; stroke: #5ec962; stroke-width: 1.5; stroke-linecap: square"/>
   </g>
   <g id="line2d_14">
    <path d="M 23.072727 76.95 
L 95.409818 76.839527 
L 97.540364 76.582261 
L 99.062182 76.170717 
L 100.279636 75.618083 
L 101.395636 74.880406 
L 102.511636 73.886108 
L 103.729091 72.50186 
L 105.250909 70.41295 
L 108.193091 66.288712 
L 109.207636 65.276913 
L 110.019273 64.755082 
L 110.729455 64.542688 
L 111.439636 64.571605 
L 112.149818 64.840149 
L 112.961455 65.419997 
L 113.874545 66.368019 
L 115.092 67.975811 
L 118.947273 73.308171 
L 120.164727 74.520499 
L 121.382182 75.419972 
L 122.599636 76.040367 
L 123.918545 76.464729 
L 124.527273 76.595075 
L 124.527273 76.595075 
" clip-path="url(#p5c871bbb0b)" style="fill: none; stroke: #84d44b; stroke-width: 1.5; stroke-linecap: square"/>
   </g>
   <g id="line2d_15">
    <path d="M 23.072727 76.95 
L 102.816 76.840214 
L 105.048 76.585594 
L 106.671273 76.177833 
L 108.091636 75.580409 
L 109.410545 74.776268 
L 110.830909 73.635481 
L 112.86 71.664438 
L 114.889091 69.767513 
L 116.005091 69.008419 
L 116.918182 68.632911 
L 117.729818 68.516777 
L 118.541455 68.615148 
L 119.454545 68.972335 
L 120.469091 69.63462 
L 121.788 70.793476 
L 124.527273 73.482921 
L 124.527273 73.482921 
" clip-path="url(#p5c871bbb0b)" style="fill: none; stroke: #addc30; stroke-width: 1.5; stroke-linecap: square"/>
   </g>
   <g id="line2d_16">
    <path d="M 23.072727 76.95 
L 109.613455 76.841673 
L 111.845455 76.591491 
L 113.468727 76.191947 
L 114.889091 75.60795 
L 116.208 74.823668 
L 117.628364 73.713805 
L 119.657455 71.80308 
L 121.686545 69.974539 
L 122.802545 69.248629 
L 123.715636 68.894151 
L 124.527273 68.790374 
L 124.527273 68.790374 
" clip-path="url(#p5c871bbb0b)" style="fill: none; stroke: #d8e219; stroke-width: 1.5; stroke-linecap: square"/>
   </g>
   <g id="matplotlib.axis_1">
    <g id="xtick_1">
     <g id="line2d_17">
      <defs>
       <path id="mc62b761843" d="M 0 0 
L 0 3.5 
" style="stroke: #000000; stroke-width: 0.8"/>
      </defs>
      <g>
       <use xlink:href="#mc62b761843" x="23.072727" y="80.1" style="stroke: #000000; stroke-width: 0.8"/>
      </g>
     </g>
     <g id="text_1">
      <!-- −1 -->
      <g transform="translate(15.701634 94.698437) scale(0.1 -0.1)">
       <defs>
        <path id="DejaVuSans-2212" d="M 678 2272 
L 4684 2272 
L 4684 1741 
L 678 1741 
L 678 2272 
z
" transform="scale(0.015625)"/>
        <path id="DejaVuSans-31" d="M 794 531 
L 1825 531 
L 1825 4091 
L 703 3866 
L 703 4441 
L 1819 4666 
L 2450 4666 
L 2450 531 
L 3481 531 
L 3481 0 
L 794 0 
L 794 531 
z
" transform="scale(0.015625)"/>
       </defs>
       <use xlink:href="#DejaVuSans-2212"/>
       <use xlink:href="#DejaVuSans-31" x="83.789062"/>
      </g>
     </g>
    </g>
    <g id="xtick_2">
     <g id="line2d_18">
      <g>
       <use xlink:href="#mc62b761843" x="73.8" y="80.1" style="stroke: #000000; stroke-width: 0.8"/>
      </g>
     </g>
     <g id="text_2">
      <!-- 0 -->
      <g transform="translate(70.61875 94.698437) scale(0.1 -0.1)">
       <defs>
        <path id="DejaVuSans-30" d="M 2034 4250 
Q 1547 4250 1301 3770 
Q 1056 3291 1056 2328 
Q 1056 1369 1301 889 
Q 1547 409 2034 409 
Q 2525 409 2770 889 
Q 3016 1369 3016 2328 
Q 3016 3291 2770 3770 
Q 2525 4250 2034 4250 
z
M 2034 4750 
Q 2819 4750 3233 4129 
Q 3647 3509 3647 2328 
Q 3647 1150 3233 529 
Q 2819 -91 2034 -91 
Q 1250 -91 836 529 
Q 422 1150 422 2328 
Q 422 3509 836 4129 
Q 1250 4750 2034 4750 
z
" transform="scale(0.015625)"/>
       </defs>
       <use xlink:href="#DejaVuSans-30"/>
      </g>
     </g>
    </g>
    <g id="xtick_3">
     <g id="line2d_19">
      <g>
       <use xlink:href="#mc62b761843" x="124.527273" y="80.1" style="stroke: #000000; stroke-width: 0.8"/>
      </g>
     </g>
     <g id="text_3">
      <!-- 1 -->
      <g transform="translate(121.346023 94.698437) scale(0.1 -0.1)">
       <use xlink:href="#DejaVuSans-31"/>
      </g>
     </g>
    </g>
    <g id="text_4">
     <!-- x -->
     <g transform="translate(70.840625 108.376563) scale(0.1 -0.1)">
      <defs>
       <path id="DejaVuSans-78" d="M 3513 3500 
L 2247 1797 
L 3578 0 
L 2900 0 
L 1881 1375 
L 863 0 
L 184 0 
L 1544 1831 
L 300 3500 
L 978 3500 
L 1906 2253 
L 2834 3500 
L 3513 3500 
z
" transform="scale(0.015625)"/>
      </defs>
      <use xlink:href="#DejaVuSans-78"/>
     </g>
    </g>
   </g>
   <g id="matplotlib.axis_2">
    <g id="ytick_1">
     <g id="line2d_20">
      <defs>
       <path id="mdafbc20ecb" d="M 0 0 
L -3.5 0 
" style="stroke: #000000; stroke-width: 0.8"/>
      </defs>
      <g>
       <use xlink:href="#mdafbc20ecb" x="18" y="76.95" style="stroke: #000000; stroke-width: 0.8"/>
      </g>
     </g>
     <g id="text_5">
      <!-- 0.0 -->
      <g transform="translate(-4.903125 80.749219) scale(0.1 -0.1)">
       <defs>
        <path id="DejaVuSans-2e" d="M 684 794 
L 1344 794 
L 1344 0 
L 684 0 
L 684 794 
z
" transform="scale(0.015625)"/>
       </defs>
       <use xlink:href="#DejaVuSans-30"/>
       <use xlink:href="#DejaVuSans-2e" x="63.623047"/>
       <use xlink:href="#DejaVuSans-30" x="95.410156"/>
      </g>
     </g>
    </g>
    <g id="ytick_2">
     <g id="line2d_21">
      <g>
       <use xlink:href="#mdafbc20ecb" x="18" y="45.45" style="stroke: #000000; stroke-width: 0.8"/>
      </g>
     </g>
     <g id="text_6">
      <!-- 0.5 -->
      <g transform="translate(-4.903125 49.249219) scale(0.1 -0.1)">
       <defs>
        <path id="DejaVuSans-35" d="M 691 4666 
L 3169 4666 
L 3169 4134 
L 1269 4134 
L 1269 2991 
Q 1406 3038 1543 3061 
Q 1681 3084 1819 3084 
Q 2600 3084 3056 2656 
Q 3513 2228 3513 1497 
Q 3513 744 3044 326 
Q 2575 -91 1722 -91 
Q 1428 -91 1123 -41 
Q 819 9 494 109 
L 494 744 
Q 775 591 1075 516 
Q 1375 441 1709 441 
Q 2250 441 2565 725 
Q 2881 1009 2881 1497 
Q 2881 1984 2565 2268 
Q 2250 2553 1709 2553 
Q 1456 2553 1204 2497 
Q 953 2441 691 2322 
L 691 4666 
z
" transform="scale(0.015625)"/>
       </defs>
       <use xlink:href="#DejaVuSans-30"/>
       <use xlink:href="#DejaVuSans-2e" x="63.623047"/>
       <use xlink:href="#DejaVuSans-35" x="95.410156"/>
      </g>
     </g>
    </g>
    <g id="ytick_3">
     <g id="line2d_22">
      <g>
       <use xlink:href="#mdafbc20ecb" x="18" y="13.95" style="stroke: #000000; stroke-width: 0.8"/>
      </g>
     </g>
     <g id="text_7">
      <!-- 1.0 -->
      <g transform="translate(-4.903125 17.749219) scale(0.1 -0.1)">
       <use xlink:href="#DejaVuSans-31"/>
       <use xlink:href="#DejaVuSans-2e" x="63.623047"/>
       <use xlink:href="#DejaVuSans-30" x="95.410156"/>
      </g>
     </g>
    </g>
    <g id="text_8">
     <!-- $\phi(x)$ -->
     <g transform="translate(-11.003125 55.65) rotate(-90) scale(0.1 -0.1)">
      <defs>
       <path id="DejaVuSans-Oblique-3d5" d="M 2991 4863 
L 2738 3572 
Q 3363 3572 3684 3094 
Q 4016 2606 3850 1747 
Q 3681 888 3159 400 
Q 2653 -78 2028 -78 
L 1784 -1331 
L 1213 -1331 
L 1456 -78 
Q 834 -78 509 400 
Q 178 888 347 1747 
Q 513 2606 1034 3094 
Q 1544 3572 2166 3572 
L 2419 4863 
L 2991 4863 
z
M 2128 434 
Q 2481 434 2784 756 
Q 3116 1116 3244 1747 
Q 3369 2372 3169 2738 
Q 2991 3059 2638 3059 
L 2128 434 
z
M 1556 434 
L 2066 3059 
Q 1716 3059 1413 2738 
Q 1072 2372 953 1747 
Q 834 1116 1028 756 
Q 1203 434 1556 434 
z
" transform="scale(0.015625)"/>
       <path id="DejaVuSans-28" d="M 1984 4856 
Q 1566 4138 1362 3434 
Q 1159 2731 1159 2009 
Q 1159 1288 1364 580 
Q 1569 -128 1984 -844 
L 1484 -844 
Q 1016 -109 783 600 
Q 550 1309 550 2009 
Q 550 2706 781 3412 
Q 1013 4119 1484 4856 
L 1984 4856 
z
" transform="scale(0.015625)"/>
       <path id="DejaVuSans-Oblique-78" d="M 3841 3500 
L 2234 1784 
L 3219 0 
L 2559 0 
L 1819 1388 
L 531 0 
L -166 0 
L 1556 1844 
L 641 3500 
L 1300 3500 
L 1972 2234 
L 3144 3500 
L 3841 3500 
z
" transform="scale(0.015625)"/>
       <path id="DejaVuSans-29" d="M 513 4856 
L 1013 4856 
Q 1481 4119 1714 3412 
Q 1947 2706 1947 2009 
Q 1947 1309 1714 600 
Q 1481 -109 1013 -844 
L 513 -844 
Q 928 -128 1133 580 
Q 1338 1288 1338 2009 
Q 1338 2731 1133 3434 
Q 928 4138 513 4856 
z
" transform="scale(0.015625)"/>
      </defs>
      <use xlink:href="#DejaVuSans-Oblique-3d5" transform="translate(0 0.015625)"/>
      <use xlink:href="#DejaVuSans-28" transform="translate(65.966797 0.015625)"/>
      <use xlink:href="#DejaVuSans-Oblique-78" transform="translate(104.980469 0.015625)"/>
      <use xlink:href="#DejaVuSans-29" transform="translate(164.160156 0.015625)"/>
     </g>
    </g>
   </g>
   <g id="PolyCollection_1">
    <defs>
     <path id="m0079a3a9a7" d="M 23.072727 -13.05 
L 23.072727 -13.05 
L 23.174182 -13.05 
L 23.275636 -13.05 
L 23.377091 -13.05 
L 23.478545 -13.05 
L 23.58 -13.05 
L 23.681455 -13.05 
L 23.782909 -13.05 
L 23.884364 -13.05 
L 23.985818 -13.05 
L 24.087273 -13.05 
L 24.188727 -13.05 
L 24.290182 -13.05 
L 24.391636 -13.05 
L 24.493091 -13.05 
L 24.594545 -13.05 
L 24.696 -13.05 
L 24.797455 -13.05 
L 24.898909 -13.05 
L 25.000364 -13.05 
L 25.101818 -13.05 
L 25.203273 -13.05 
L 25.304727 -13.05 
L 25.406182 -13.05 
L 25.507636 -13.05 
L 25.609091 -13.05 
L 25.710545 -13.05 
L 25.812 -13.05 
L 25.913455 -13.05 
L 26.014909 -13.05 
L 26.116364 -13.05 
L 26.217818 -13.05 
L 26.319273 -13.05 
L 26.420727 -13.05 
L 26.522182 -13.05 
L 26.623636 -13.05 
L 26.725091 -13.05 
L 26.826545 -13.05 
L 26.928 -13.05 
L 27.029455 -13.05 
L 27.130909 -13.05 
L 27.232364 -13.05 
L 27.333818 -13.05 
L 27.435273 -13.05 
L 27.536727 -13.05 
L 27.638182 -13.05 
L 27.739636 -13.05 
L 27.841091 -13.05 
L 27.942545 -13.05 
L 28.044 -13.05 
L 28.145455 -13.05 
L 28.246909 -13.05 
L 28.348364 -13.05 
L 28.449818 -13.05 
L 28.551273 -13.05 
L 28.652727 -13.05 
L 28.754182 -13.05 
L 28.855636 -13.05 
L 28.957091 -13.05 
L 29.058545 -13.05 
L 29.16 -13.05 
L 29.261455 -13.05 
L 29.362909 -13.05 
L 29.464364 -13.05 
L 29.565818 -13.05 
L 29.667273 -13.05 
L 29.768727 -13.05 
L 29.870182 -13.05 
L 29.971636 -13.05 
L 30.073091 -13.05 
L 30.174545 -13.05 
L 30.276 -13.05 
L 30.377455 -13.05 
L 30.478909 -13.05 
L 30.580364 -13.05 
L 30.681818 -13.05 
L 30.783273 -13.05 
L 30.884727 -13.05 
L 30.986182 -13.05 
L 31.087636 -13.05 
L 31.189091 -13.05 
L 31.290545 -13.05 
L 31.392 -13.05 
L 31.493455 -13.05 
L 31.594909 -13.05 
L 31.696364 -13.05 
L 31.797818 -13.05 
L 31.899273 -13.05 
L 32.000727 -13.05 
L 32.102182 -13.05 
L 32.203636 -13.05 
L 32.305091 -13.05 
L 32.406545 -13.05 
L 32.508 -13.05 
L 32.609455 -13.05 
L 32.710909 -13.05 
L 32.812364 -13.05 
L 32.913818 -13.05 
L 33.015273 -13.05 
L 33.116727 -13.05 
L 33.218182 -13.05 
L 33.319636 -13.05 
L 33.421091 -13.05 
L 33.522545 -13.05 
L 33.624 -13.05 
L 33.725455 -13.05 
L 33.826909 -13.05 
L 33.928364 -13.05 
L 34.029818 -13.05 
L 34.131273 -13.05 
L 34.232727 -13.05 
L 34.334182 -13.05 
L 34.435636 -13.05 
L 34.537091 -13.05 
L 34.638545 -13.05 
L 34.74 -13.05 
L 34.841455 -13.05 
L 34.942909 -13.05 
L 35.044364 -13.05 
L 35.145818 -13.05 
L 35.247273 -13.05 
L 35.348727 -13.05 
L 35.450182 -13.05 
L 35.551636 -13.05 
L 35.653091 -13.05 
L 35.754545 -13.05 
L 35.856 -13.05 
L 35.957455 -13.05 
L 36.058909 -13.05 
L 36.160364 -13.05 
L 36.261818 -13.05 
L 36.363273 -13.05 
L 36.464727 -13.05 
L 36.566182 -13.05 
L 36.667636 -13.05 
L 36.769091 -13.05 
L 36.870545 -13.05 
L 36.972 -13.05 
L 37.073455 -13.05 
L 37.174909 -13.05 
L 37.276364 -13.05 
L 37.377818 -13.05 
L 37.479273 -13.05 
L 37.580727 -13.05 
L 37.682182 -13.05 
L 37.783636 -13.05 
L 37.885091 -13.05 
L 37.986545 -13.05 
L 38.088 -13.05 
L 38.189455 -13.05 
L 38.290909 -13.05 
L 38.392364 -13.05 
L 38.493818 -13.05 
L 38.595273 -13.05 
L 38.696727 -13.05 
L 38.798182 -13.05 
L 38.899636 -13.05 
L 39.001091 -13.05 
L 39.102545 -13.05 
L 39.204 -13.05 
L 39.305455 -13.05 
L 39.406909 -13.05 
L 39.508364 -13.05 
L 39.609818 -13.05 
L 39.711273 -13.05 
L 39.812727 -13.05 
L 39.914182 -13.05 
L 40.015636 -13.05 
L 40.117091 -13.05 
L 40.218545 -13.05 
L 40.32 -13.05 
L 40.421455 -13.05 
L 40.522909 -13.05 
L 40.624364 -13.05 
L 40.725818 -13.05 
L 40.827273 -13.05 
L 40.928727 -13.05 
L 41.030182 -13.05 
L 41.131636 -13.05 
L 41.233091 -13.05 
L 41.334545 -13.05 
L 41.436 -13.05 
L 41.537455 -13.05 
L 41.638909 -13.05 
L 41.740364 -13.05 
L 41.841818 -13.05 
L 41.943273 -13.05 
L 42.044727 -13.05 
L 42.146182 -13.05 
L 42.247636 -13.05 
L 42.349091 -13.05 
L 42.450545 -13.05 
L 42.552 -13.05 
L 42.653455 -13.05 
L 42.754909 -13.05 
L 42.856364 -13.05 
L 42.957818 -13.05 
L 43.059273 -13.05 
L 43.160727 -13.05 
L 43.262182 -13.05 
L 43.363636 -13.05 
L 43.465091 -13.05 
L 43.566545 -13.05 
L 43.668 -13.05 
L 43.769455 -13.05 
L 43.870909 -13.05 
L 43.972364 -13.05 
L 44.073818 -13.05 
L 44.175273 -13.05 
L 44.276727 -13.05 
L 44.378182 -13.05 
L 44.479636 -13.05 
L 44.581091 -13.05 
L 44.682545 -13.05 
L 44.784 -13.05 
L 44.885455 -13.05 
L 44.986909 -13.05 
L 45.088364 -13.05 
L 45.189818 -13.05 
L 45.291273 -13.05 
L 45.392727 -13.05 
L 45.494182 -13.05 
L 45.595636 -13.05 
L 45.697091 -13.05 
L 45.798545 -13.05 
L 45.9 -13.05 
L 46.001455 -13.05 
L 46.102909 -13.05 
L 46.204364 -13.05 
L 46.305818 -13.05 
L 46.407273 -13.05 
L 46.508727 -13.05 
L 46.610182 -13.05 
L 46.711636 -13.05 
L 46.813091 -13.05 
L 46.914545 -13.05 
L 47.016 -13.05 
L 47.117455 -13.05 
L 47.218909 -13.05 
L 47.320364 -13.05 
L 47.421818 -13.05 
L 47.523273 -13.05 
L 47.624727 -13.05 
L 47.726182 -13.05 
L 47.827636 -13.05 
L 47.929091 -13.05 
L 48.030545 -13.05 
L 48.132 -13.05 
L 48.233455 -13.05 
L 48.334909 -13.05 
L 48.436364 -13.05 
L 48.537818 -13.05 
L 48.639273 -13.05 
L 48.740727 -13.05 
L 48.842182 -13.05 
L 48.943636 -13.05 
L 49.045091 -13.05 
L 49.146545 -13.05 
L 49.248 -13.05 
L 49.349455 -13.05 
L 49.450909 -13.05 
L 49.552364 -13.05 
L 49.653818 -13.05 
L 49.755273 -13.05 
L 49.856727 -13.05 
L 49.958182 -13.05 
L 50.059636 -13.05 
L 50.161091 -13.05 
L 50.262545 -13.05 
L 50.364 -13.05 
L 50.465455 -13.05 
L 50.566909 -13.05 
L 50.668364 -13.05 
L 50.769818 -13.05 
L 50.871273 -13.05 
L 50.972727 -13.05 
L 51.074182 -13.05 
L 51.175636 -13.05 
L 51.277091 -13.05 
L 51.378545 -13.05 
L 51.48 -13.05 
L 51.581455 -13.05 
L 51.682909 -13.05 
L 51.784364 -13.05 
L 51.885818 -13.05 
L 51.987273 -13.05 
L 52.088727 -13.05 
L 52.190182 -13.05 
L 52.291636 -13.05 
L 52.393091 -13.05 
L 52.494545 -13.05 
L 52.596 -13.05 
L 52.697455 -13.05 
L 52.798909 -13.05 
L 52.900364 -13.05 
L 53.001818 -13.05 
L 53.103273 -13.05 
L 53.204727 -13.05 
L 53.306182 -13.05 
L 53.407636 -13.05 
L 53.509091 -13.05 
L 53.610545 -13.05 
L 53.712 -13.05 
L 53.813455 -13.05 
L 53.914909 -13.05 
L 54.016364 -13.05 
L 54.117818 -13.05 
L 54.219273 -13.05 
L 54.320727 -13.05 
L 54.422182 -13.05 
L 54.523636 -13.05 
L 54.625091 -13.05 
L 54.726545 -13.05 
L 54.828 -13.05 
L 54.929455 -13.05 
L 55.030909 -13.05 
L 55.132364 -13.05 
L 55.233818 -13.05 
L 55.335273 -13.05 
L 55.436727 -13.05 
L 55.538182 -13.05 
L 55.639636 -13.05 
L 55.741091 -13.05 
L 55.842545 -13.05 
L 55.944 -13.05 
L 56.045455 -13.05 
L 56.146909 -13.05 
L 56.248364 -13.05 
L 56.349818 -13.05 
L 56.451273 -13.05 
L 56.552727 -13.05 
L 56.654182 -13.05 
L 56.755636 -13.05 
L 56.857091 -13.05 
L 56.958545 -13.05 
L 57.06 -13.05 
L 57.161455 -13.05 
L 57.262909 -13.05 
L 57.364364 -13.05 
L 57.465818 -13.05 
L 57.567273 -13.05 
L 57.668727 -13.05 
L 57.770182 -13.05 
L 57.871636 -13.05 
L 57.973091 -13.05 
L 58.074545 -13.05 
L 58.176 -13.05 
L 58.277455 -13.05 
L 58.378909 -13.05 
L 58.480364 -13.05 
L 58.581818 -13.05 
L 58.683273 -13.05 
L 58.784727 -13.05 
L 58.886182 -13.05 
L 58.987636 -13.05 
L 59.089091 -13.05 
L 59.190545 -13.05 
L 59.292 -13.05 
L 59.393455 -13.05 
L 59.494909 -13.05 
L 59.596364 -13.05 
L 59.697818 -13.05 
L 59.799273 -13.05 
L 59.900727 -13.05 
L 60.002182 -13.05 
L 60.103636 -13.05 
L 60.205091 -13.05 
L 60.306545 -13.05 
L 60.408 -13.05 
L 60.509455 -13.05 
L 60.610909 -13.05 
L 60.712364 -13.05 
L 60.813818 -13.05 
L 60.915273 -13.05 
L 61.016727 -13.05 
L 61.118182 -13.05 
L 61.219636 -13.05 
L 61.321091 -13.05 
L 61.422545 -13.05 
L 61.524 -13.05 
L 61.625455 -13.05 
L 61.726909 -13.05 
L 61.828364 -13.05 
L 61.929818 -13.05 
L 62.031273 -13.05 
L 62.132727 -13.05 
L 62.234182 -13.05 
L 62.335636 -13.05 
L 62.437091 -13.05 
L 62.538545 -13.05 
L 62.64 -13.05 
L 62.741455 -13.05 
L 62.842909 -13.05 
L 62.944364 -13.05 
L 63.045818 -13.05 
L 63.147273 -13.05 
L 63.248727 -13.05 
L 63.350182 -13.05 
L 63.451636 -13.05 
L 63.553091 -13.05 
L 63.654545 -13.05 
L 63.756 -13.05 
L 63.857455 -13.05 
L 63.958909 -13.05 
L 64.060364 -13.05 
L 64.161818 -13.05 
L 64.263273 -13.05 
L 64.364727 -13.05 
L 64.466182 -13.05 
L 64.567636 -13.05 
L 64.669091 -13.05 
L 64.770545 -13.05 
L 64.872 -13.05 
L 64.973455 -13.05 
L 65.074909 -13.05 
L 65.176364 -13.05 
L 65.277818 -13.05 
L 65.379273 -13.05 
L 65.480727 -13.05 
L 65.582182 -13.05 
L 65.683636 -13.05 
L 65.785091 -13.05 
L 65.886545 -13.05 
L 65.988 -13.05 
L 66.089455 -13.05 
L 66.190909 -13.05 
L 66.292364 -13.05 
L 66.393818 -13.05 
L 66.495273 -13.05 
L 66.596727 -13.05 
L 66.698182 -13.05 
L 66.799636 -13.05 
L 66.901091 -13.05 
L 67.002545 -13.05 
L 67.104 -13.05 
L 67.205455 -13.05 
L 67.306909 -13.05 
L 67.408364 -13.05 
L 67.509818 -13.05 
L 67.611273 -13.05 
L 67.712727 -13.05 
L 67.814182 -13.05 
L 67.915636 -13.05 
L 68.017091 -13.05 
L 68.118545 -13.05 
L 68.22 -13.05 
L 68.321455 -13.05 
L 68.422909 -13.05 
L 68.524364 -13.05 
L 68.625818 -13.05 
L 68.727273 -13.05 
L 68.828727 -13.05 
L 68.930182 -13.05 
L 69.031636 -13.05 
L 69.133091 -13.05 
L 69.234545 -13.05 
L 69.336 -13.05 
L 69.437455 -13.05 
L 69.538909 -13.05 
L 69.640364 -13.05 
L 69.741818 -13.05 
L 69.843273 -13.05 
L 69.944727 -13.05 
L 70.046182 -13.05 
L 70.147636 -13.05 
L 70.249091 -13.05 
L 70.350545 -13.05 
L 70.452 -13.05 
L 70.553455 -13.05 
L 70.654909 -13.05 
L 70.756364 -13.05 
L 70.857818 -13.05 
L 70.959273 -13.05 
L 71.060727 -13.05 
L 71.162182 -13.05 
L 71.263636 -13.05 
L 71.365091 -13.05 
L 71.466545 -13.05 
L 71.568 -13.05 
L 71.669455 -13.05 
L 71.770909 -13.05 
L 71.872364 -13.05 
L 71.973818 -13.05 
L 72.075273 -13.05 
L 72.176727 -13.05 
L 72.278182 -13.05 
L 72.379636 -13.05 
L 72.481091 -13.05 
L 72.582545 -13.05 
L 72.684 -13.05 
L 72.785455 -13.05 
L 72.886909 -13.05 
L 72.988364 -13.05 
L 73.089818 -13.05 
L 73.191273 -13.05 
L 73.292727 -13.05 
L 73.394182 -13.05 
L 73.495636 -13.05 
L 73.597091 -13.05 
L 73.698545 -13.05 
L 73.8 -13.05 
L 73.901455 -13.05 
L 74.002909 -13.05 
L 74.104364 -13.05 
L 74.205818 -13.05 
L 74.307273 -13.05 
L 74.408727 -13.05 
L 74.510182 -13.05 
L 74.611636 -13.05 
L 74.713091 -13.05 
L 74.814545 -13.05 
L 74.916 -13.05 
L 75.017455 -13.05 
L 75.118909 -13.05 
L 75.220364 -13.05 
L 75.321818 -13.05 
L 75.423273 -13.05 
L 75.524727 -13.05 
L 75.626182 -13.05 
L 75.727636 -13.05 
L 75.829091 -13.05 
L 75.930545 -13.05 
L 76.032 -13.05 
L 76.133455 -13.05 
L 76.234909 -13.05 
L 76.336364 -13.05 
L 76.437818 -13.05 
L 76.539273 -13.05 
L 76.640727 -13.05 
L 76.742182 -13.05 
L 76.843636 -13.05 
L 76.945091 -13.05 
L 77.046545 -13.05 
L 77.148 -13.05 
L 77.249455 -13.05 
L 77.350909 -13.05 
L 77.452364 -13.05 
L 77.553818 -13.05 
L 77.655273 -13.05 
L 77.756727 -13.05 
L 77.858182 -13.05 
L 77.959636 -13.05 
L 78.061091 -13.05 
L 78.162545 -13.05 
L 78.264 -13.05 
L 78.365455 -13.05 
L 78.466909 -13.05 
L 78.568364 -13.05 
L 78.669818 -13.05 
L 78.771273 -13.05 
L 78.872727 -13.05 
L 78.974182 -13.05 
L 79.075636 -13.05 
L 79.177091 -13.05 
L 79.278545 -13.05 
L 79.38 -13.05 
L 79.481455 -13.05 
L 79.582909 -13.05 
L 79.684364 -13.05 
L 79.785818 -13.05 
L 79.887273 -13.05 
L 79.988727 -13.05 
L 80.090182 -13.05 
L 80.191636 -13.05 
L 80.293091 -13.05 
L 80.394545 -13.05 
L 80.496 -13.05 
L 80.597455 -13.05 
L 80.698909 -13.05 
L 80.800364 -13.05 
L 80.901818 -13.05 
L 81.003273 -13.05 
L 81.104727 -13.05 
L 81.206182 -13.05 
L 81.307636 -13.05 
L 81.409091 -13.05 
L 81.510545 -13.05 
L 81.612 -13.05 
L 81.713455 -13.05 
L 81.814909 -13.05 
L 81.916364 -13.05 
L 82.017818 -13.05 
L 82.119273 -13.05 
L 82.220727 -13.05 
L 82.322182 -13.05 
L 82.423636 -13.05 
L 82.525091 -13.05 
L 82.626545 -13.05 
L 82.728 -13.05 
L 82.829455 -13.05 
L 82.930909 -13.05 
L 83.032364 -13.05 
L 83.133818 -13.05 
L 83.235273 -13.05 
L 83.336727 -13.05 
L 83.438182 -13.05 
L 83.539636 -13.05 
L 83.641091 -13.05 
L 83.742545 -13.050001 
L 83.844 -13.050001 
L 83.945455 -13.050001 
L 84.046909 -13.050001 
L 84.148364 -13.050002 
L 84.249818 -13.050002 
L 84.351273 -13.050002 
L 84.452727 -13.050003 
L 84.554182 -13.050004 
L 84.655636 -13.050005 
L 84.757091 -13.050006 
L 84.858545 -13.050008 
L 84.96 -13.05001 
L 85.061455 -13.050012 
L 85.162909 -13.050015 
L 85.264364 -13.050019 
L 85.365818 -13.050024 
L 85.467273 -13.050029 
L 85.568727 -13.050036 
L 85.670182 -13.050045 
L 85.771636 -13.050056 
L 85.873091 -13.050069 
L 85.974545 -13.050085 
L 86.076 -13.050104 
L 86.177455 -13.050128 
L 86.278909 -13.050157 
L 86.380364 -13.050192 
L 86.481818 -13.050235 
L 86.583273 -13.050287 
L 86.684727 -13.050349 
L 86.786182 -13.050425 
L 86.887636 -13.050516 
L 86.989091 -13.050626 
L 87.090545 -13.050757 
L 87.192 -13.050915 
L 87.293455 -13.051105 
L 87.394909 -13.051331 
L 87.496364 -13.051601 
L 87.597818 -13.051923 
L 87.699273 -13.052306 
L 87.800727 -13.052761 
L 87.902182 -13.053301 
L 88.003636 -13.053939 
L 88.105091 -13.054693 
L 88.206545 -13.055583 
L 88.308 -13.056631 
L 88.409455 -13.057862 
L 88.510909 -13.059308 
L 88.612364 -13.061002 
L 88.713818 -13.062984 
L 88.815273 -13.065298 
L 88.916727 -13.067995 
L 89.018182 -13.071134 
L 89.119636 -13.074781 
L 89.221091 -13.079011 
L 89.322545 -13.083909 
L 89.424 -13.089571 
L 89.525455 -13.096104 
L 89.626909 -13.103629 
L 89.728364 -13.112283 
L 89.829818 -13.122218 
L 89.931273 -13.133604 
L 90.032727 -13.14663 
L 90.134182 -13.161507 
L 90.235636 -13.178469 
L 90.337091 -13.197775 
L 90.438545 -13.21971 
L 90.54 -13.244589 
L 90.641455 -13.272759 
L 90.742909 -13.304599 
L 90.844364 -13.340525 
L 90.945818 -13.380991 
L 91.047273 -13.426489 
L 91.148727 -13.477558 
L 91.250182 -13.534777 
L 91.351636 -13.598776 
L 91.453091 -13.67023 
L 91.554545 -13.749867 
L 91.656 -13.838467 
L 91.757455 -13.936863 
L 91.858909 -14.045943 
L 91.960364 -14.166652 
L 92.061818 -14.299989 
L 92.163273 -14.447011 
L 92.264727 -14.608829 
L 92.366182 -14.78661 
L 92.467636 -14.981573 
L 92.569091 -15.19499 
L 92.670545 -15.428178 
L 92.772 -15.682502 
L 92.873455 -15.959365 
L 92.974909 -16.260205 
L 93.076364 -16.58649 
L 93.177818 -16.93971 
L 93.279273 -17.32137 
L 93.380727 -17.73298 
L 93.482182 -18.176047 
L 93.583636 -18.652062 
L 93.685091 -19.162493 
L 93.786545 -19.70877 
L 93.888 -20.29227 
L 93.989455 -20.914309 
L 94.090909 -21.576123 
L 94.192364 -22.278853 
L 94.293818 -23.023531 
L 94.395273 -23.811067 
L 94.496727 -24.642226 
L 94.598182 -25.517618 
L 94.699636 -26.437678 
L 94.801091 -27.402652 
L 94.902545 -28.412581 
L 95.004 -29.467285 
L 95.105455 -30.56635 
L 95.206909 -31.709114 
L 95.308364 -32.894655 
L 95.409818 -34.12178 
L 95.511273 -35.389016 
L 95.612727 -36.694599 
L 95.714182 -38.036476 
L 95.815636 -39.412294 
L 95.917091 -40.819401 
L 96.018545 -42.254848 
L 96.12 -43.715392 
L 96.221455 -45.197501 
L 96.322909 -46.697364 
L 96.424364 -48.210902 
L 96.525818 -49.733781 
L 96.627273 -51.261432 
L 96.728727 -52.789066 
L 96.830182 -54.311701 
L 96.931636 -55.824183 
L 97.033091 -57.321217 
L 97.134545 -58.797389 
L 97.236 -60.247207 
L 97.337455 -61.665126 
L 97.438909 -63.045586 
L 97.540364 -64.383047 
L 97.641818 -65.672023 
L 97.743273 -66.907126 
L 97.844727 -68.083095 
L 97.946182 -69.194837 
L 98.047636 -70.237465 
L 98.149091 -71.20633 
L 98.250545 -72.097058 
L 98.352 -72.905584 
L 98.453455 -73.628178 
L 98.554909 -74.261478 
L 98.656364 -74.802516 
L 98.757818 -75.248739 
L 98.859273 -75.598029 
L 98.960727 -75.848722 
L 99.062182 -75.99962 
L 99.163636 -76.05 
L 99.265091 -75.99962 
L 99.366545 -75.848722 
L 99.468 -75.598029 
L 99.569455 -75.248739 
L 99.670909 -74.802516 
L 99.772364 -74.261478 
L 99.873818 -73.628178 
L 99.975273 -72.905584 
L 100.076727 -72.097058 
L 100.178182 -71.20633 
L 100.279636 -70.237465 
L 100.381091 -69.194837 
L 100.482545 -68.083095 
L 100.584 -66.907126 
L 100.685455 -65.672023 
L 100.786909 -64.383047 
L 100.888364 -63.045586 
L 100.989818 -61.665126 
L 101.091273 -60.247207 
L 101.192727 -58.797389 
L 101.294182 -57.321217 
L 101.395636 -55.824183 
L 101.497091 -54.311701 
L 101.598545 -52.789066 
L 101.7 -51.261432 
L 101.801455 -49.733781 
L 101.902909 -48.210902 
L 102.004364 -46.697364 
L 102.105818 -45.197501 
L 102.207273 -43.715392 
L 102.308727 -42.254848 
L 102.410182 -40.819401 
L 102.511636 -39.412294 
L 102.613091 -38.036476 
L 102.714545 -36.694599 
L 102.816 -35.389016 
L 102.917455 -34.12178 
L 103.018909 -32.894655 
L 103.120364 -31.709114 
L 103.221818 -30.56635 
L 103.323273 -29.467285 
L 103.424727 -28.412581 
L 103.526182 -27.402652 
L 103.627636 -26.437678 
L 103.729091 -25.517618 
L 103.830545 -24.642226 
L 103.932 -23.811067 
L 104.033455 -23.023531 
L 104.134909 -22.278853 
L 104.236364 -21.576123 
L 104.337818 -20.914309 
L 104.439273 -20.29227 
L 104.540727 -19.70877 
L 104.642182 -19.162493 
L 104.743636 -18.652062 
L 104.845091 -18.176047 
L 104.946545 -17.73298 
L 105.048 -17.32137 
L 105.149455 -16.93971 
L 105.250909 -16.58649 
L 105.352364 -16.260205 
L 105.453818 -15.959365 
L 105.555273 -15.682502 
L 105.656727 -15.428178 
L 105.758182 -15.19499 
L 105.859636 -14.981573 
L 105.961091 -14.78661 
L 106.062545 -14.608829 
L 106.164 -14.447011 
L 106.265455 -14.299989 
L 106.366909 -14.166652 
L 106.468364 -14.045943 
L 106.569818 -13.936863 
L 106.671273 -13.838467 
L 106.772727 -13.749867 
L 106.874182 -13.67023 
L 106.975636 -13.598776 
L 107.077091 -13.534777 
L 107.178545 -13.477558 
L 107.28 -13.426489 
L 107.381455 -13.380991 
L 107.482909 -13.340525 
L 107.584364 -13.304599 
L 107.685818 -13.272759 
L 107.787273 -13.244589 
L 107.888727 -13.21971 
L 107.990182 -13.197775 
L 108.091636 -13.178469 
L 108.193091 -13.161507 
L 108.294545 -13.14663 
L 108.396 -13.133604 
L 108.497455 -13.122218 
L 108.598909 -13.112283 
L 108.700364 -13.103629 
L 108.801818 -13.096104 
L 108.903273 -13.089571 
L 109.004727 -13.083909 
L 109.106182 -13.079011 
L 109.207636 -13.074781 
L 109.309091 -13.071134 
L 109.410545 -13.067995 
L 109.512 -13.065298 
L 109.613455 -13.062984 
L 109.714909 -13.061002 
L 109.816364 -13.059308 
L 109.917818 -13.057862 
L 110.019273 -13.056631 
L 110.120727 -13.055583 
L 110.222182 -13.054693 
L 110.323636 -13.053939 
L 110.425091 -13.053301 
L 110.526545 -13.052761 
L 110.628 -13.052306 
L 110.729455 -13.051923 
L 110.830909 -13.051601 
L 110.932364 -13.051331 
L 111.033818 -13.051105 
L 111.135273 -13.050915 
L 111.236727 -13.050757 
L 111.338182 -13.050626 
L 111.439636 -13.050516 
L 111.541091 -13.050425 
L 111.642545 -13.050349 
L 111.744 -13.050287 
L 111.845455 -13.050235 
L 111.946909 -13.050192 
L 112.048364 -13.050157 
L 112.149818 -13.050128 
L 112.251273 -13.050104 
L 112.352727 -13.050085 
L 112.454182 -13.050069 
L 112.555636 -13.050056 
L 112.657091 -13.050045 
L 112.758545 -13.050036 
L 112.86 -13.050029 
L 112.961455 -13.050024 
L 113.062909 -13.050019 
L 113.164364 -13.050015 
L 113.265818 -13.050012 
L 113.367273 -13.05001 
L 113.468727 -13.050008 
L 113.570182 -13.050006 
L 113.671636 -13.050005 
L 113.773091 -13.050004 
L 113.874545 -13.050003 
L 113.976 -13.050002 
L 114.077455 -13.050002 
L 114.178909 -13.050002 
L 114.280364 -13.050001 
L 114.381818 -13.050001 
L 114.483273 -13.050001 
L 114.584727 -13.050001 
L 114.686182 -13.05 
L 114.787636 -13.05 
L 114.889091 -13.05 
L 114.990545 -13.05 
L 115.092 -13.05 
L 115.193455 -13.05 
L 115.294909 -13.05 
L 115.396364 -13.05 
L 115.497818 -13.05 
L 115.599273 -13.05 
L 115.700727 -13.05 
L 115.802182 -13.05 
L 115.903636 -13.05 
L 116.005091 -13.05 
L 116.106545 -13.05 
L 116.208 -13.05 
L 116.309455 -13.05 
L 116.410909 -13.05 
L 116.512364 -13.05 
L 116.613818 -13.05 
L 116.715273 -13.05 
L 116.816727 -13.05 
L 116.918182 -13.05 
L 117.019636 -13.05 
L 117.121091 -13.05 
L 117.222545 -13.05 
L 117.324 -13.05 
L 117.425455 -13.05 
L 117.526909 -13.05 
L 117.628364 -13.05 
L 117.729818 -13.05 
L 117.831273 -13.05 
L 117.932727 -13.05 
L 118.034182 -13.05 
L 118.135636 -13.05 
L 118.237091 -13.05 
L 118.338545 -13.05 
L 118.44 -13.05 
L 118.541455 -13.05 
L 118.642909 -13.05 
L 118.744364 -13.05 
L 118.845818 -13.05 
L 118.947273 -13.05 
L 119.048727 -13.05 
L 119.150182 -13.05 
L 119.251636 -13.05 
L 119.353091 -13.05 
L 119.454545 -13.05 
L 119.556 -13.05 
L 119.657455 -13.05 
L 119.758909 -13.05 
L 119.860364 -13.05 
L 119.961818 -13.05 
L 120.063273 -13.05 
L 120.164727 -13.05 
L 120.266182 -13.05 
L 120.367636 -13.05 
L 120.469091 -13.05 
L 120.570545 -13.05 
L 120.672 -13.05 
L 120.773455 -13.05 
L 120.874909 -13.05 
L 120.976364 -13.05 
L 121.077818 -13.05 
L 121.179273 -13.05 
L 121.280727 -13.05 
L 121.382182 -13.05 
L 121.483636 -13.05 
L 121.585091 -13.05 
L 121.686545 -13.05 
L 121.788 -13.05 
L 121.889455 -13.05 
L 121.990909 -13.05 
L 122.092364 -13.05 
L 122.193818 -13.05 
L 122.295273 -13.05 
L 122.396727 -13.05 
L 122.498182 -13.05 
L 122.599636 -13.05 
L 122.701091 -13.05 
L 122.802545 -13.05 
L 122.904 -13.05 
L 123.005455 -13.05 
L 123.106909 -13.05 
L 123.208364 -13.05 
L 123.309818 -13.05 
L 123.411273 -13.05 
L 123.512727 -13.05 
L 123.614182 -13.05 
L 123.715636 -13.05 
L 123.817091 -13.05 
L 123.918545 -13.05 
L 124.02 -13.05 
L 124.121455 -13.05 
L 124.222909 -13.05 
L 124.324364 -13.05 
L 124.425818 -13.05 
L 124.527273 -13.05 
L 124.527273 -13.05 
L 124.527273 -13.05 
L 124.425818 -13.05 
L 124.324364 -13.05 
L 124.222909 -13.05 
L 124.121455 -13.05 
L 124.02 -13.05 
L 123.918545 -13.05 
L 123.817091 -13.05 
L 123.715636 -13.05 
L 123.614182 -13.05 
L 123.512727 -13.05 
L 123.411273 -13.05 
L 123.309818 -13.05 
L 123.208364 -13.05 
L 123.106909 -13.05 
L 123.005455 -13.05 
L 122.904 -13.05 
L 122.802545 -13.05 
L 122.701091 -13.05 
L 122.599636 -13.05 
L 122.498182 -13.05 
L 122.396727 -13.05 
L 122.295273 -13.05 
L 122.193818 -13.05 
L 122.092364 -13.05 
L 121.990909 -13.05 
L 121.889455 -13.05 
L 121.788 -13.05 
L 121.686545 -13.05 
L 121.585091 -13.05 
L 121.483636 -13.05 
L 121.382182 -13.05 
L 121.280727 -13.05 
L 121.179273 -13.05 
L 121.077818 -13.05 
L 120.976364 -13.05 
L 120.874909 -13.05 
L 120.773455 -13.05 
L 120.672 -13.05 
L 120.570545 -13.05 
L 120.469091 -13.05 
L 120.367636 -13.05 
L 120.266182 -13.05 
L 120.164727 -13.05 
L 120.063273 -13.05 
L 119.961818 -13.05 
L 119.860364 -13.05 
L 119.758909 -13.05 
L 119.657455 -13.05 
L 119.556 -13.05 
L 119.454545 -13.05 
L 119.353091 -13.05 
L 119.251636 -13.05 
L 119.150182 -13.05 
L 119.048727 -13.05 
L 118.947273 -13.05 
L 118.845818 -13.05 
L 118.744364 -13.05 
L 118.642909 -13.05 
L 118.541455 -13.05 
L 118.44 -13.05 
L 118.338545 -13.05 
L 118.237091 -13.05 
L 118.135636 -13.05 
L 118.034182 -13.05 
L 117.932727 -13.05 
L 117.831273 -13.05 
L 117.729818 -13.05 
L 117.628364 -13.05 
L 117.526909 -13.05 
L 117.425455 -13.05 
L 117.324 -13.05 
L 117.222545 -13.05 
L 117.121091 -13.05 
L 117.019636 -13.05 
L 116.918182 -13.05 
L 116.816727 -13.05 
L 116.715273 -13.05 
L 116.613818 -13.05 
L 116.512364 -13.05 
L 116.410909 -13.05 
L 116.309455 -13.05 
L 116.208 -13.05 
L 116.106545 -13.05 
L 116.005091 -13.05 
L 115.903636 -13.05 
L 115.802182 -13.05 
L 115.700727 -13.05 
L 115.599273 -13.05 
L 115.497818 -13.05 
L 115.396364 -13.05 
L 115.294909 -13.05 
L 115.193455 -13.05 
L 115.092 -13.05 
L 114.990545 -13.05 
L 114.889091 -13.05 
L 114.787636 -13.05 
L 114.686182 -13.05 
L 114.584727 -13.05 
L 114.483273 -13.05 
L 114.381818 -13.05 
L 114.280364 -13.05 
L 114.178909 -13.05 
L 114.077455 -13.05 
L 113.976 -13.05 
L 113.874545 -13.05 
L 113.773091 -13.05 
L 113.671636 -13.05 
L 113.570182 -13.05 
L 113.468727 -13.05 
L 113.367273 -13.05 
L 113.265818 -13.05 
L 113.164364 -13.05 
L 113.062909 -13.05 
L 112.961455 -13.05 
L 112.86 -13.05 
L 112.758545 -13.05 
L 112.657091 -13.05 
L 112.555636 -13.05 
L 112.454182 -13.05 
L 112.352727 -13.05 
L 112.251273 -13.05 
L 112.149818 -13.05 
L 112.048364 -13.05 
L 111.946909 -13.05 
L 111.845455 -13.05 
L 111.744 -13.05 
L 111.642545 -13.05 
L 111.541091 -13.05 
L 111.439636 -13.05 
L 111.338182 -13.05 
L 111.236727 -13.05 
L 111.135273 -13.05 
L 111.033818 -13.05 
L 110.932364 -13.05 
L 110.830909 -13.05 
L 110.729455 -13.05 
L 110.628 -13.05 
L 110.526545 -13.05 
L 110.425091 -13.05 
L 110.323636 -13.05 
L 110.222182 -13.05 
L 110.120727 -13.05 
L 110.019273 -13.05 
L 109.917818 -13.05 
L 109.816364 -13.05 
L 109.714909 -13.05 
L 109.613455 -13.05 
L 109.512 -13.05 
L 109.410545 -13.05 
L 109.309091 -13.05 
L 109.207636 -13.05 
L 109.106182 -13.05 
L 109.004727 -13.05 
L 108.903273 -13.05 
L 108.801818 -13.05 
L 108.700364 -13.05 
L 108.598909 -13.05 
L 108.497455 -13.05 
L 108.396 -13.05 
L 108.294545 -13.05 
L 108.193091 -13.05 
L 108.091636 -13.05 
L 107.990182 -13.05 
L 107.888727 -13.05 
L 107.787273 -13.05 
L 107.685818 -13.05 
L 107.584364 -13.05 
L 107.482909 -13.05 
L 107.381455 -13.05 
L 107.28 -13.05 
L 107.178545 -13.05 
L 107.077091 -13.05 
L 106.975636 -13.05 
L 106.874182 -13.05 
L 106.772727 -13.05 
L 106.671273 -13.05 
L 106.569818 -13.05 
L 106.468364 -13.05 
L 106.366909 -13.05 
L 106.265455 -13.05 
L 106.164 -13.05 
L 106.062545 -13.05 
L 105.961091 -13.05 
L 105.859636 -13.05 
L 105.758182 -13.05 
L 105.656727 -13.05 
L 105.555273 -13.05 
L 105.453818 -13.05 
L 105.352364 -13.05 
L 105.250909 -13.05 
L 105.149455 -13.05 
L 105.048 -13.05 
L 104.946545 -13.05 
L 104.845091 -13.05 
L 104.743636 -13.05 
L 104.642182 -13.05 
L 104.540727 -13.05 
L 104.439273 -13.05 
L 104.337818 -13.05 
L 104.236364 -13.05 
L 104.134909 -13.05 
L 104.033455 -13.05 
L 103.932 -13.05 
L 103.830545 -13.05 
L 103.729091 -13.05 
L 103.627636 -13.05 
L 103.526182 -13.05 
L 103.424727 -13.05 
L 103.323273 -13.05 
L 103.221818 -13.05 
L 103.120364 -13.05 
L 103.018909 -13.05 
L 102.917455 -13.05 
L 102.816 -13.05 
L 102.714545 -13.05 
L 102.613091 -13.05 
L 102.511636 -13.05 
L 102.410182 -13.05 
L 102.308727 -13.05 
L 102.207273 -13.05 
L 102.105818 -13.05 
L 102.004364 -13.05 
L 101.902909 -13.05 
L 101.801455 -13.05 
L 101.7 -13.05 
L 101.598545 -13.05 
L 101.497091 -13.05 
L 101.395636 -13.05 
L 101.294182 -13.05 
L 101.192727 -13.05 
L 101.091273 -13.05 
L 100.989818 -13.05 
L 100.888364 -13.05 
L 100.786909 -13.05 
L 100.685455 -13.05 
L 100.584 -13.05 
L 100.482545 -13.05 
L 100.381091 -13.05 
L 100.279636 -13.05 
L 100.178182 -13.05 
L 100.076727 -13.05 
L 99.975273 -13.05 
L 99.873818 -13.05 
L 99.772364 -13.05 
L 99.670909 -13.05 
L 99.569455 -13.05 
L 99.468 -13.05 
L 99.366545 -13.05 
L 99.265091 -13.05 
L 99.163636 -13.05 
L 99.062182 -13.05 
L 98.960727 -13.05 
L 98.859273 -13.05 
L 98.757818 -13.05 
L 98.656364 -13.05 
L 98.554909 -13.05 
L 98.453455 -13.05 
L 98.352 -13.05 
L 98.250545 -13.05 
L 98.149091 -13.05 
L 98.047636 -13.05 
L 97.946182 -13.05 
L 97.844727 -13.05 
L 97.743273 -13.05 
L 97.641818 -13.05 
L 97.540364 -13.05 
L 97.438909 -13.05 
L 97.337455 -13.05 
L 97.236 -13.05 
L 97.134545 -13.05 
L 97.033091 -13.05 
L 96.931636 -13.05 
L 96.830182 -13.05 
L 96.728727 -13.05 
L 96.627273 -13.05 
L 96.525818 -13.05 
L 96.424364 -13.05 
L 96.322909 -13.05 
L 96.221455 -13.05 
L 96.12 -13.05 
L 96.018545 -13.05 
L 95.917091 -13.05 
L 95.815636 -13.05 
L 95.714182 -13.05 
L 95.612727 -13.05 
L 95.511273 -13.05 
L 95.409818 -13.05 
L 95.308364 -13.05 
L 95.206909 -13.05 
L 95.105455 -13.05 
L 95.004 -13.05 
L 94.902545 -13.05 
L 94.801091 -13.05 
L 94.699636 -13.05 
L 94.598182 -13.05 
L 94.496727 -13.05 
L 94.395273 -13.05 
L 94.293818 -13.05 
L 94.192364 -13.05 
L 94.090909 -13.05 
L 93.989455 -13.05 
L 93.888 -13.05 
L 93.786545 -13.05 
L 93.685091 -13.05 
L 93.583636 -13.05 
L 93.482182 -13.05 
L 93.380727 -13.05 
L 93.279273 -13.05 
L 93.177818 -13.05 
L 93.076364 -13.05 
L 92.974909 -13.05 
L 92.873455 -13.05 
L 92.772 -13.05 
L 92.670545 -13.05 
L 92.569091 -13.05 
L 92.467636 -13.05 
L 92.366182 -13.05 
L 92.264727 -13.05 
L 92.163273 -13.05 
L 92.061818 -13.05 
L 91.960364 -13.05 
L 91.858909 -13.05 
L 91.757455 -13.05 
L 91.656 -13.05 
L 91.554545 -13.05 
L 91.453091 -13.05 
L 91.351636 -13.05 
L 91.250182 -13.05 
L 91.148727 -13.05 
L 91.047273 -13.05 
L 90.945818 -13.05 
L 90.844364 -13.05 
L 90.742909 -13.05 
L 90.641455 -13.05 
L 90.54 -13.05 
L 90.438545 -13.05 
L 90.337091 -13.05 
L 90.235636 -13.05 
L 90.134182 -13.05 
L 90.032727 -13.05 
L 89.931273 -13.05 
L 89.829818 -13.05 
L 89.728364 -13.05 
L 89.626909 -13.05 
L 89.525455 -13.05 
L 89.424 -13.05 
L 89.322545 -13.05 
L 89.221091 -13.05 
L 89.119636 -13.05 
L 89.018182 -13.05 
L 88.916727 -13.05 
L 88.815273 -13.05 
L 88.713818 -13.05 
L 88.612364 -13.05 
L 88.510909 -13.05 
L 88.409455 -13.05 
L 88.308 -13.05 
L 88.206545 -13.05 
L 88.105091 -13.05 
L 88.003636 -13.05 
L 87.902182 -13.05 
L 87.800727 -13.05 
L 87.699273 -13.05 
L 87.597818 -13.05 
L 87.496364 -13.05 
L 87.394909 -13.05 
L 87.293455 -13.05 
L 87.192 -13.05 
L 87.090545 -13.05 
L 86.989091 -13.05 
L 86.887636 -13.05 
L 86.786182 -13.05 
L 86.684727 -13.05 
L 86.583273 -13.05 
L 86.481818 -13.05 
L 86.380364 -13.05 
L 86.278909 -13.05 
L 86.177455 -13.05 
L 86.076 -13.05 
L 85.974545 -13.05 
L 85.873091 -13.05 
L 85.771636 -13.05 
L 85.670182 -13.05 
L 85.568727 -13.05 
L 85.467273 -13.05 
L 85.365818 -13.05 
L 85.264364 -13.05 
L 85.162909 -13.05 
L 85.061455 -13.05 
L 84.96 -13.05 
L 84.858545 -13.05 
L 84.757091 -13.05 
L 84.655636 -13.05 
L 84.554182 -13.05 
L 84.452727 -13.05 
L 84.351273 -13.05 
L 84.249818 -13.05 
L 84.148364 -13.05 
L 84.046909 -13.05 
L 83.945455 -13.05 
L 83.844 -13.05 
L 83.742545 -13.05 
L 83.641091 -13.05 
L 83.539636 -13.05 
L 83.438182 -13.05 
L 83.336727 -13.05 
L 83.235273 -13.05 
L 83.133818 -13.05 
L 83.032364 -13.05 
L 82.930909 -13.05 
L 82.829455 -13.05 
L 82.728 -13.05 
L 82.626545 -13.05 
L 82.525091 -13.05 
L 82.423636 -13.05 
L 82.322182 -13.05 
L 82.220727 -13.05 
L 82.119273 -13.05 
L 82.017818 -13.05 
L 81.916364 -13.05 
L 81.814909 -13.05 
L 81.713455 -13.05 
L 81.612 -13.05 
L 81.510545 -13.05 
L 81.409091 -13.05 
L 81.307636 -13.05 
L 81.206182 -13.05 
L 81.104727 -13.05 
L 81.003273 -13.05 
L 80.901818 -13.05 
L 80.800364 -13.05 
L 80.698909 -13.05 
L 80.597455 -13.05 
L 80.496 -13.05 
L 80.394545 -13.05 
L 80.293091 -13.05 
L 80.191636 -13.05 
L 80.090182 -13.05 
L 79.988727 -13.05 
L 79.887273 -13.05 
L 79.785818 -13.05 
L 79.684364 -13.05 
L 79.582909 -13.05 
L 79.481455 -13.05 
L 79.38 -13.05 
L 79.278545 -13.05 
L 79.177091 -13.05 
L 79.075636 -13.05 
L 78.974182 -13.05 
L 78.872727 -13.05 
L 78.771273 -13.05 
L 78.669818 -13.05 
L 78.568364 -13.05 
L 78.466909 -13.05 
L 78.365455 -13.05 
L 78.264 -13.05 
L 78.162545 -13.05 
L 78.061091 -13.05 
L 77.959636 -13.05 
L 77.858182 -13.05 
L 77.756727 -13.05 
L 77.655273 -13.05 
L 77.553818 -13.05 
L 77.452364 -13.05 
L 77.350909 -13.05 
L 77.249455 -13.05 
L 77.148 -13.05 
L 77.046545 -13.05 
L 76.945091 -13.05 
L 76.843636 -13.05 
L 76.742182 -13.05 
L 76.640727 -13.05 
L 76.539273 -13.05 
L 76.437818 -13.05 
L 76.336364 -13.05 
L 76.234909 -13.05 
L 76.133455 -13.05 
L 76.032 -13.05 
L 75.930545 -13.05 
L 75.829091 -13.05 
L 75.727636 -13.05 
L 75.626182 -13.05 
L 75.524727 -13.05 
L 75.423273 -13.05 
L 75.321818 -13.05 
L 75.220364 -13.05 
L 75.118909 -13.05 
L 75.017455 -13.05 
L 74.916 -13.05 
L 74.814545 -13.05 
L 74.713091 -13.05 
L 74.611636 -13.05 
L 74.510182 -13.05 
L 74.408727 -13.05 
L 74.307273 -13.05 
L 74.205818 -13.05 
L 74.104364 -13.05 
L 74.002909 -13.05 
L 73.901455 -13.05 
L 73.8 -13.05 
L 73.698545 -13.05 
L 73.597091 -13.05 
L 73.495636 -13.05 
L 73.394182 -13.05 
L 73.292727 -13.05 
L 73.191273 -13.05 
L 73.089818 -13.05 
L 72.988364 -13.05 
L 72.886909 -13.05 
L 72.785455 -13.05 
L 72.684 -13.05 
L 72.582545 -13.05 
L 72.481091 -13.05 
L 72.379636 -13.05 
L 72.278182 -13.05 
L 72.176727 -13.05 
L 72.075273 -13.05 
L 71.973818 -13.05 
L 71.872364 -13.05 
L 71.770909 -13.05 
L 71.669455 -13.05 
L 71.568 -13.05 
L 71.466545 -13.05 
L 71.365091 -13.05 
L 71.263636 -13.05 
L 71.162182 -13.05 
L 71.060727 -13.05 
L 70.959273 -13.05 
L 70.857818 -13.05 
L 70.756364 -13.05 
L 70.654909 -13.05 
L 70.553455 -13.05 
L 70.452 -13.05 
L 70.350545 -13.05 
L 70.249091 -13.05 
L 70.147636 -13.05 
L 70.046182 -13.05 
L 69.944727 -13.05 
L 69.843273 -13.05 
L 69.741818 -13.05 
L 69.640364 -13.05 
L 69.538909 -13.05 
L 69.437455 -13.05 
L 69.336 -13.05 
L 69.234545 -13.05 
L 69.133091 -13.05 
L 69.031636 -13.05 
L 68.930182 -13.05 
L 68.828727 -13.05 
L 68.727273 -13.05 
L 68.625818 -13.05 
L 68.524364 -13.05 
L 68.422909 -13.05 
L 68.321455 -13.05 
L 68.22 -13.05 
L 68.118545 -13.05 
L 68.017091 -13.05 
L 67.915636 -13.05 
L 67.814182 -13.05 
L 67.712727 -13.05 
L 67.611273 -13.05 
L 67.509818 -13.05 
L 67.408364 -13.05 
L 67.306909 -13.05 
L 67.205455 -13.05 
L 67.104 -13.05 
L 67.002545 -13.05 
L 66.901091 -13.05 
L 66.799636 -13.05 
L 66.698182 -13.05 
L 66.596727 -13.05 
L 66.495273 -13.05 
L 66.393818 -13.05 
L 66.292364 -13.05 
L 66.190909 -13.05 
L 66.089455 -13.05 
L 65.988 -13.05 
L 65.886545 -13.05 
L 65.785091 -13.05 
L 65.683636 -13.05 
L 65.582182 -13.05 
L 65.480727 -13.05 
L 65.379273 -13.05 
L 65.277818 -13.05 
L 65.176364 -13.05 
L 65.074909 -13.05 
L 64.973455 -13.05 
L 64.872 -13.05 
L 64.770545 -13.05 
L 64.669091 -13.05 
L 64.567636 -13.05 
L 64.466182 -13.05 
L 64.364727 -13.05 
L 64.263273 -13.05 
L 64.161818 -13.05 
L 64.060364 -13.05 
L 63.958909 -13.05 
L 63.857455 -13.05 
L 63.756 -13.05 
L 63.654545 -13.05 
L 63.553091 -13.05 
L 63.451636 -13.05 
L 63.350182 -13.05 
L 63.248727 -13.05 
L 63.147273 -13.05 
L 63.045818 -13.05 
L 62.944364 -13.05 
L 62.842909 -13.05 
L 62.741455 -13.05 
L 62.64 -13.05 
L 62.538545 -13.05 
L 62.437091 -13.05 
L 62.335636 -13.05 
L 62.234182 -13.05 
L 62.132727 -13.05 
L 62.031273 -13.05 
L 61.929818 -13.05 
L 61.828364 -13.05 
L 61.726909 -13.05 
L 61.625455 -13.05 
L 61.524 -13.05 
L 61.422545 -13.05 
L 61.321091 -13.05 
L 61.219636 -13.05 
L 61.118182 -13.05 
L 61.016727 -13.05 
L 60.915273 -13.05 
L 60.813818 -13.05 
L 60.712364 -13.05 
L 60.610909 -13.05 
L 60.509455 -13.05 
L 60.408 -13.05 
L 60.306545 -13.05 
L 60.205091 -13.05 
L 60.103636 -13.05 
L 60.002182 -13.05 
L 59.900727 -13.05 
L 59.799273 -13.05 
L 59.697818 -13.05 
L 59.596364 -13.05 
L 59.494909 -13.05 
L 59.393455 -13.05 
L 59.292 -13.05 
L 59.190545 -13.05 
L 59.089091 -13.05 
L 58.987636 -13.05 
L 58.886182 -13.05 
L 58.784727 -13.05 
L 58.683273 -13.05 
L 58.581818 -13.05 
L 58.480364 -13.05 
L 58.378909 -13.05 
L 58.277455 -13.05 
L 58.176 -13.05 
L 58.074545 -13.05 
L 57.973091 -13.05 
L 57.871636 -13.05 
L 57.770182 -13.05 
L 57.668727 -13.05 
L 57.567273 -13.05 
L 57.465818 -13.05 
L 57.364364 -13.05 
L 57.262909 -13.05 
L 57.161455 -13.05 
L 57.06 -13.05 
L 56.958545 -13.05 
L 56.857091 -13.05 
L 56.755636 -13.05 
L 56.654182 -13.05 
L 56.552727 -13.05 
L 56.451273 -13.05 
L 56.349818 -13.05 
L 56.248364 -13.05 
L 56.146909 -13.05 
L 56.045455 -13.05 
L 55.944 -13.05 
L 55.842545 -13.05 
L 55.741091 -13.05 
L 55.639636 -13.05 
L 55.538182 -13.05 
L 55.436727 -13.05 
L 55.335273 -13.05 
L 55.233818 -13.05 
L 55.132364 -13.05 
L 55.030909 -13.05 
L 54.929455 -13.05 
L 54.828 -13.05 
L 54.726545 -13.05 
L 54.625091 -13.05 
L 54.523636 -13.05 
L 54.422182 -13.05 
L 54.320727 -13.05 
L 54.219273 -13.05 
L 54.117818 -13.05 
L 54.016364 -13.05 
L 53.914909 -13.05 
L 53.813455 -13.05 
L 53.712 -13.05 
L 53.610545 -13.05 
L 53.509091 -13.05 
L 53.407636 -13.05 
L 53.306182 -13.05 
L 53.204727 -13.05 
L 53.103273 -13.05 
L 53.001818 -13.05 
L 52.900364 -13.05 
L 52.798909 -13.05 
L 52.697455 -13.05 
L 52.596 -13.05 
L 52.494545 -13.05 
L 52.393091 -13.05 
L 52.291636 -13.05 
L 52.190182 -13.05 
L 52.088727 -13.05 
L 51.987273 -13.05 
L 51.885818 -13.05 
L 51.784364 -13.05 
L 51.682909 -13.05 
L 51.581455 -13.05 
L 51.48 -13.05 
L 51.378545 -13.05 
L 51.277091 -13.05 
L 51.175636 -13.05 
L 51.074182 -13.05 
L 50.972727 -13.05 
L 50.871273 -13.05 
L 50.769818 -13.05 
L 50.668364 -13.05 
L 50.566909 -13.05 
L 50.465455 -13.05 
L 50.364 -13.05 
L 50.262545 -13.05 
L 50.161091 -13.05 
L 50.059636 -13.05 
L 49.958182 -13.05 
L 49.856727 -13.05 
L 49.755273 -13.05 
L 49.653818 -13.05 
L 49.552364 -13.05 
L 49.450909 -13.05 
L 49.349455 -13.05 
L 49.248 -13.05 
L 49.146545 -13.05 
L 49.045091 -13.05 
L 48.943636 -13.05 
L 48.842182 -13.05 
L 48.740727 -13.05 
L 48.639273 -13.05 
L 48.537818 -13.05 
L 48.436364 -13.05 
L 48.334909 -13.05 
L 48.233455 -13.05 
L 48.132 -13.05 
L 48.030545 -13.05 
L 47.929091 -13.05 
L 47.827636 -13.05 
L 47.726182 -13.05 
L 47.624727 -13.05 
L 47.523273 -13.05 
L 47.421818 -13.05 
L 47.320364 -13.05 
L 47.218909 -13.05 
L 47.117455 -13.05 
L 47.016 -13.05 
L 46.914545 -13.05 
L 46.813091 -13.05 
L 46.711636 -13.05 
L 46.610182 -13.05 
L 46.508727 -13.05 
L 46.407273 -13.05 
L 46.305818 -13.05 
L 46.204364 -13.05 
L 46.102909 -13.05 
L 46.001455 -13.05 
L 45.9 -13.05 
L 45.798545 -13.05 
L 45.697091 -13.05 
L 45.595636 -13.05 
L 45.494182 -13.05 
L 45.392727 -13.05 
L 45.291273 -13.05 
L 45.189818 -13.05 
L 45.088364 -13.05 
L 44.986909 -13.05 
L 44.885455 -13.05 
L 44.784 -13.05 
L 44.682545 -13.05 
L 44.581091 -13.05 
L 44.479636 -13.05 
L 44.378182 -13.05 
L 44.276727 -13.05 
L 44.175273 -13.05 
L 44.073818 -13.05 
L 43.972364 -13.05 
L 43.870909 -13.05 
L 43.769455 -13.05 
L 43.668 -13.05 
L 43.566545 -13.05 
L 43.465091 -13.05 
L 43.363636 -13.05 
L 43.262182 -13.05 
L 43.160727 -13.05 
L 43.059273 -13.05 
L 42.957818 -13.05 
L 42.856364 -13.05 
L 42.754909 -13.05 
L 42.653455 -13.05 
L 42.552 -13.05 
L 42.450545 -13.05 
L 42.349091 -13.05 
L 42.247636 -13.05 
L 42.146182 -13.05 
L 42.044727 -13.05 
L 41.943273 -13.05 
L 41.841818 -13.05 
L 41.740364 -13.05 
L 41.638909 -13.05 
L 41.537455 -13.05 
L 41.436 -13.05 
L 41.334545 -13.05 
L 41.233091 -13.05 
L 41.131636 -13.05 
L 41.030182 -13.05 
L 40.928727 -13.05 
L 40.827273 -13.05 
L 40.725818 -13.05 
L 40.624364 -13.05 
L 40.522909 -13.05 
L 40.421455 -13.05 
L 40.32 -13.05 
L 40.218545 -13.05 
L 40.117091 -13.05 
L 40.015636 -13.05 
L 39.914182 -13.05 
L 39.812727 -13.05 
L 39.711273 -13.05 
L 39.609818 -13.05 
L 39.508364 -13.05 
L 39.406909 -13.05 
L 39.305455 -13.05 
L 39.204 -13.05 
L 39.102545 -13.05 
L 39.001091 -13.05 
L 38.899636 -13.05 
L 38.798182 -13.05 
L 38.696727 -13.05 
L 38.595273 -13.05 
L 38.493818 -13.05 
L 38.392364 -13.05 
L 38.290909 -13.05 
L 38.189455 -13.05 
L 38.088 -13.05 
L 37.986545 -13.05 
L 37.885091 -13.05 
L 37.783636 -13.05 
L 37.682182 -13.05 
L 37.580727 -13.05 
L 37.479273 -13.05 
L 37.377818 -13.05 
L 37.276364 -13.05 
L 37.174909 -13.05 
L 37.073455 -13.05 
L 36.972 -13.05 
L 36.870545 -13.05 
L 36.769091 -13.05 
L 36.667636 -13.05 
L 36.566182 -13.05 
L 36.464727 -13.05 
L 36.363273 -13.05 
L 36.261818 -13.05 
L 36.160364 -13.05 
L 36.058909 -13.05 
L 35.957455 -13.05 
L 35.856 -13.05 
L 35.754545 -13.05 
L 35.653091 -13.05 
L 35.551636 -13.05 
L 35.450182 -13.05 
L 35.348727 -13.05 
L 35.247273 -13.05 
L 35.145818 -13.05 
L 35.044364 -13.05 
L 34.942909 -13.05 
L 34.841455 -13.05 
L 34.74 -13.05 
L 34.638545 -13.05 
L 34.537091 -13.05 
L 34.435636 -13.05 
L 34.334182 -13.05 
L 34.232727 -13.05 
L 34.131273 -13.05 
L 34.029818 -13.05 
L 33.928364 -13.05 
L 33.826909 -13.05 
L 33.725455 -13.05 
L 33.624 -13.05 
L 33.522545 -13.05 
L 33.421091 -13.05 
L 33.319636 -13.05 
L 33.218182 -13.05 
L 33.116727 -13.05 
L 33.015273 -13.05 
L 32.913818 -13.05 
L 32.812364 -13.05 
L 32.710909 -13.05 
L 32.609455 -13.05 
L 32.508 -13.05 
L 32.406545 -13.05 
L 32.305091 -13.05 
L 32.203636 -13.05 
L 32.102182 -13.05 
L 32.000727 -13.05 
L 31.899273 -13.05 
L 31.797818 -13.05 
L 31.696364 -13.05 
L 31.594909 -13.05 
L 31.493455 -13.05 
L 31.392 -13.05 
L 31.290545 -13.05 
L 31.189091 -13.05 
L 31.087636 -13.05 
L 30.986182 -13.05 
L 30.884727 -13.05 
L 30.783273 -13.05 
L 30.681818 -13.05 
L 30.580364 -13.05 
L 30.478909 -13.05 
L 30.377455 -13.05 
L 30.276 -13.05 
L 30.174545 -13.05 
L 30.073091 -13.05 
L 29.971636 -13.05 
L 29.870182 -13.05 
L 29.768727 -13.05 
L 29.667273 -13.05 
L 29.565818 -13.05 
L 29.464364 -13.05 
L 29.362909 -13.05 
L 29.261455 -13.05 
L 29.16 -13.05 
L 29.058545 -13.05 
L 28.957091 -13.05 
L 28.855636 -13.05 
L 28.754182 -13.05 
L 28.652727 -13.05 
L 28.551273 -13.05 
L 28.449818 -13.05 
L 28.348364 -13.05 
L 28.246909 -13.05 
L 28.145455 -13.05 
L 28.044 -13.05 
L 27.942545 -13.05 
L 27.841091 -13.05 
L 27.739636 -13.05 
L 27.638182 -13.05 
L 27.536727 -13.05 
L 27.435273 -13.05 
L 27.333818 -13.05 
L 27.232364 -13.05 
L 27.130909 -13.05 
L 27.029455 -13.05 
L 26.928 -13.05 
L 26.826545 -13.05 
L 26.725091 -13.05 
L 26.623636 -13.05 
L 26.522182 -13.05 
L 26.420727 -13.05 
L 26.319273 -13.05 
L 26.217818 -13.05 
L 26.116364 -13.05 
L 26.014909 -13.05 
L 25.913455 -13.05 
L 25.812 -13.05 
L 25.710545 -13.05 
L 25.609091 -13.05 
L 25.507636 -13.05 
L 25.406182 -13.05 
L 25.304727 -13.05 
L 25.203273 -13.05 
L 25.101818 -13.05 
L 25.000364 -13.05 
L 24.898909 -13.05 
L 24.797455 -13.05 
L 24.696 -13.05 
L 24.594545 -13.05 
L 24.493091 -13.05 
L 24.391636 -13.05 
L 24.290182 -13.05 
L 24.188727 -13.05 
L 24.087273 -13.05 
L 23.985818 -13.05 
L 23.884364 -13.05 
L 23.782909 -13.05 
L 23.681455 -13.05 
L 23.58 -13.05 
L 23.478545 -13.05 
L 23.377091 -13.05 
L 23.275636 -13.05 
L 23.174182 -13.05 
L 23.072727 -13.05 
z
" style="stroke: #ff0000; stroke-opacity: 0.25"/>
    </defs>
    <g clip-path="url(#p5c871bbb0b)">
     <use xlink:href="#m0079a3a9a7" x="0" y="90" style="fill: #ff0000; fill-opacity: 0.25; stroke: #ff0000; stroke-opacity: 0.25"/>
    </g>
   </g>
   <g id="line2d_23">
    <path d="M 35.754545 80.1 
L 35.754545 10.8 
" clip-path="url(#p5c871bbb0b)" style="fill: none; stroke-dasharray: 7.4,3.2; stroke-dashoffset: 0; stroke: #008000; stroke-width: 2"/>
   </g>
   <g id="LineCollection_1">
    <path d="M 23.072727 76.95 
L 124.527273 76.95 
" clip-path="url(#p5c871bbb0b)" style="fill: none; stroke: #000000; stroke-width: 1.5"/>
   </g>
   <g id="patch_3">
    <path d="M 18 80.1 
L 18 10.8 
" style="fill: none; stroke: #000000; stroke-width: 0.8; stroke-linejoin: miter; stroke-linecap: square"/>
   </g>
   <g id="patch_4">
    <path d="M 129.6 80.1 
L 129.6 10.8 
" style="fill: none; stroke: #000000; stroke-width: 0.8; stroke-linejoin: miter; stroke-linecap: square"/>
   </g>
   <g id="patch_5">
    <path d="M 18 80.1 
L 129.6 80.1 
" style="fill: none; stroke: #000000; stroke-width: 0.8; stroke-linejoin: miter; stroke-linecap: square"/>
   </g>
   <g id="patch_6">
    <path d="M 18 10.8 
L 129.6 10.8 
" style="fill: none; stroke: #000000; stroke-width: 0.8; stroke-linejoin: miter; stroke-linecap: square"/>
   </g>
   <g id="text_9">
    <!-- Uniform -->
    <g transform="translate(49.95 4.8) scale(0.12 -0.12)">
     <defs>
      <path id="DejaVuSans-55" d="M 556 4666 
L 1191 4666 
L 1191 1831 
Q 1191 1081 1462 751 
Q 1734 422 2344 422 
Q 2950 422 3222 751 
Q 3494 1081 3494 1831 
L 3494 4666 
L 4128 4666 
L 4128 1753 
Q 4128 841 3676 375 
Q 3225 -91 2344 -91 
Q 1459 -91 1007 375 
Q 556 841 556 1753 
L 556 4666 
z
" transform="scale(0.015625)"/>
      <path id="DejaVuSans-6e" d="M 3513 2113 
L 3513 0 
L 2938 0 
L 2938 2094 
Q 2938 2591 2744 2837 
Q 2550 3084 2163 3084 
Q 1697 3084 1428 2787 
Q 1159 2491 1159 1978 
L 1159 0 
L 581 0 
L 581 3500 
L 1159 3500 
L 1159 2956 
Q 1366 3272 1645 3428 
Q 1925 3584 2291 3584 
Q 2894 3584 3203 3211 
Q 3513 2838 3513 2113 
z
" transform="scale(0.015625)"/>
      <path id="DejaVuSans-69" d="M 603 3500 
L 1178 3500 
L 1178 0 
L 603 0 
L 603 3500 
z
M 603 4863 
L 1178 4863 
L 1178 4134 
L 603 4134 
L 603 4863 
z
" transform="scale(0.015625)"/>
      <path id="DejaVuSans-66" d="M 2375 4863 
L 2375 4384 
L 1825 4384 
Q 1516 4384 1395 4259 
Q 1275 4134 1275 3809 
L 1275 3500 
L 2222 3500 
L 2222 3053 
L 1275 3053 
L 1275 0 
L 697 0 
L 697 3053 
L 147 3053 
L 147 3500 
L 697 3500 
L 697 3744 
Q 697 4328 969 4595 
Q 1241 4863 1831 4863 
L 2375 4863 
z
" transform="scale(0.015625)"/>
      <path id="DejaVuSans-6f" d="M 1959 3097 
Q 1497 3097 1228 2736 
Q 959 2375 959 1747 
Q 959 1119 1226 758 
Q 1494 397 1959 397 
Q 2419 397 2687 759 
Q 2956 1122 2956 1747 
Q 2956 2369 2687 2733 
Q 2419 3097 1959 3097 
z
M 1959 3584 
Q 2709 3584 3137 3096 
Q 3566 2609 3566 1747 
Q 3566 888 3137 398 
Q 2709 -91 1959 -91 
Q 1206 -91 779 398 
Q 353 888 353 1747 
Q 353 2609 779 3096 
Q 1206 3584 1959 3584 
z
" transform="scale(0.015625)"/>
      <path id="DejaVuSans-72" d="M 2631 2963 
Q 2534 3019 2420 3045 
Q 2306 3072 2169 3072 
Q 1681 3072 1420 2755 
Q 1159 2438 1159 1844 
L 1159 0 
L 581 0 
L 581 3500 
L 1159 3500 
L 1159 2956 
Q 1341 3275 1631 3429 
Q 1922 3584 2338 3584 
Q 2397 3584 2469 3576 
Q 2541 3569 2628 3553 
L 2631 2963 
z
" transform="scale(0.015625)"/>
      <path id="DejaVuSans-6d" d="M 3328 2828 
Q 3544 3216 3844 3400 
Q 4144 3584 4550 3584 
Q 5097 3584 5394 3201 
Q 5691 2819 5691 2113 
L 5691 0 
L 5113 0 
L 5113 2094 
Q 5113 2597 4934 2840 
Q 4756 3084 4391 3084 
Q 3944 3084 3684 2787 
Q 3425 2491 3425 1978 
L 3425 0 
L 2847 0 
L 2847 2094 
Q 2847 2600 2669 2842 
Q 2491 3084 2119 3084 
Q 1678 3084 1418 2786 
Q 1159 2488 1159 1978 
L 1159 0 
L 581 0 
L 581 3500 
L 1159 3500 
L 1159 2956 
Q 1356 3278 1631 3431 
Q 1906 3584 2284 3584 
Q 2666 3584 2933 3390 
Q 3200 3197 3328 2828 
z
" transform="scale(0.015625)"/>
     </defs>
     <use xlink:href="#DejaVuSans-55"/>
     <use xlink:href="#DejaVuSans-6e" x="73.193359"/>
     <use xlink:href="#DejaVuSans-69" x="136.572266"/>
     <use xlink:href="#DejaVuSans-66" x="164.355469"/>
     <use xlink:href="#DejaVuSans-6f" x="199.560547"/>
     <use xlink:href="#DejaVuSans-72" x="260.742188"/>
     <use xlink:href="#DejaVuSans-6d" x="300.105469"/>
    </g>
   </g>
  </g>
  <g id="axes_2">
   <g id="matplotlib.axis_3">
    <g id="ytick_4">
     <g id="line2d_24">
      <defs>
       <path id="m0a8b7bdd13" d="M 0 0 
L 3.5 0 
" style="stroke: #000000; stroke-width: 0.8"/>
      </defs>
      <g>
       <use xlink:href="#m0a8b7bdd13" x="129.6" y="75.264415" style="stroke: #000000; stroke-width: 0.8"/>
      </g>
     </g>
     <g id="text_10">
      <!-- 0.2 -->
      <g transform="translate(136.6 79.063633) scale(0.1 -0.1)">
       <defs>
        <path id="DejaVuSans-32" d="M 1228 531 
L 3431 531 
L 3431 0 
L 469 0 
L 469 531 
Q 828 903 1448 1529 
Q 2069 2156 2228 2338 
Q 2531 2678 2651 2914 
Q 2772 3150 2772 3378 
Q 2772 3750 2511 3984 
Q 2250 4219 1831 4219 
Q 1534 4219 1204 4116 
Q 875 4013 500 3803 
L 500 4441 
Q 881 4594 1212 4672 
Q 1544 4750 1819 4750 
Q 2544 4750 2975 4387 
Q 3406 4025 3406 3419 
Q 3406 3131 3298 2873 
Q 3191 2616 2906 2266 
Q 2828 2175 2409 1742 
Q 1991 1309 1228 531 
z
" transform="scale(0.015625)"/>
       </defs>
       <use xlink:href="#DejaVuSans-30"/>
       <use xlink:href="#DejaVuSans-2e" x="63.623047"/>
       <use xlink:href="#DejaVuSans-32" x="95.410156"/>
      </g>
     </g>
    </g>
    <g id="ytick_5">
     <g id="line2d_25">
      <g>
       <use xlink:href="#m0a8b7bdd13" x="129.6" y="40.635572" style="stroke: #000000; stroke-width: 0.8"/>
      </g>
     </g>
     <g id="text_11">
      <!-- 0.4 -->
      <g transform="translate(136.6 44.43479) scale(0.1 -0.1)">
       <defs>
        <path id="DejaVuSans-34" d="M 2419 4116 
L 825 1625 
L 2419 1625 
L 2419 4116 
z
M 2253 4666 
L 3047 4666 
L 3047 1625 
L 3713 1625 
L 3713 1100 
L 3047 1100 
L 3047 0 
L 2419 0 
L 2419 1100 
L 313 1100 
L 313 1709 
L 2253 4666 
z
" transform="scale(0.015625)"/>
       </defs>
       <use xlink:href="#DejaVuSans-30"/>
       <use xlink:href="#DejaVuSans-2e" x="63.623047"/>
       <use xlink:href="#DejaVuSans-34" x="95.410156"/>
      </g>
     </g>
    </g>
    <g id="text_12">
     <!-- $d(x)$ -->
     <g transform="translate(164.101562 55.5) rotate(-90) scale(0.1 -0.1)">
      <defs>
       <path id="DejaVuSans-Oblique-64" d="M 2675 525 
Q 2444 222 2128 65 
Q 1813 -91 1428 -91 
Q 903 -91 598 267 
Q 294 625 294 1247 
Q 294 1766 478 2236 
Q 663 2706 1013 3078 
Q 1244 3325 1534 3454 
Q 1825 3584 2144 3584 
Q 2481 3584 2739 3421 
Q 2997 3259 3138 2956 
L 3513 4863 
L 4091 4863 
L 3144 0 
L 2566 0 
L 2675 525 
z
M 891 1350 
Q 891 897 1095 644 
Q 1300 391 1663 391 
Q 1931 391 2161 520 
Q 2391 650 2566 903 
Q 2750 1166 2856 1509 
Q 2963 1853 2963 2188 
Q 2963 2622 2758 2865 
Q 2553 3109 2194 3109 
Q 1922 3109 1687 2981 
Q 1453 2853 1288 2613 
Q 1106 2353 998 2009 
Q 891 1666 891 1350 
z
" transform="scale(0.015625)"/>
      </defs>
      <use xlink:href="#DejaVuSans-Oblique-64" transform="translate(0 0.015625)"/>
      <use xlink:href="#DejaVuSans-28" transform="translate(63.476562 0.015625)"/>
      <use xlink:href="#DejaVuSans-Oblique-78" transform="translate(102.490234 0.015625)"/>
      <use xlink:href="#DejaVuSans-29" transform="translate(161.669922 0.015625)"/>
     </g>
    </g>
   </g>
   <g id="line2d_26">
    <path d="M 23.072727 71.45485 
L 25.710545 58.481223 
L 27.029455 53.012499 
L 28.145455 49.299448 
L 29.058545 47.019883 
L 29.768727 45.759176 
L 30.377455 45.041109 
L 30.986182 44.64967 
L 31.493455 44.560237 
L 32.000727 44.66993 
L 32.609455 45.037219 
L 33.319636 45.740944 
L 34.232727 46.973703 
L 35.957455 49.786538 
L 37.479273 52.119473 
L 38.493818 53.281231 
L 39.305455 53.866797 
L 39.914182 54.065739 
L 40.522909 54.036971 
L 41.131636 53.766899 
L 41.740364 53.248409 
L 42.450545 52.330339 
L 43.262182 50.887434 
L 44.276727 48.56741 
L 45.697091 44.648001 
L 48.334909 37.237982 
L 49.450909 34.80607 
L 50.364 33.301517 
L 51.277091 32.21895 
L 52.291636 31.394827 
L 54.828 29.581084 
L 55.639636 28.600419 
L 56.451273 27.271777 
L 57.364364 25.345478 
L 58.581818 22.211374 
L 60.813818 16.371005 
L 61.625455 14.887898 
L 62.234182 14.20034 
L 62.741455 13.959219 
L 63.147273 14.003375 
L 63.553091 14.267557 
L 64.060364 14.911634 
L 64.669091 16.136419 
L 65.379273 18.144716 
L 66.292364 21.49604 
L 67.611273 27.320717 
L 69.944727 37.700336 
L 71.060727 41.60623 
L 71.973818 44.028304 
L 72.785455 45.581228 
L 73.495636 46.511365 
L 74.205818 47.095579 
L 74.916 47.39826 
L 75.727636 47.486398 
L 76.742182 47.34512 
L 78.264 46.872541 
L 79.988727 46.11839 
L 81.206182 45.344257 
L 82.220727 44.42685 
L 83.235273 43.179736 
L 84.249818 41.564813 
L 85.467273 39.169864 
L 87.293455 34.979871 
L 89.322545 30.454797 
L 90.438545 28.470777 
L 91.351636 27.249592 
L 92.163273 26.497273 
L 92.974909 26.055227 
L 93.685091 25.904667 
L 94.496727 25.969266 
L 95.409818 26.29029 
L 96.525818 26.948076 
L 98.047636 28.140972 
L 100.279636 30.203166 
L 102.410182 32.44286 
L 104.134909 34.576754 
L 105.758182 36.964186 
L 107.381455 39.76571 
L 109.207636 43.388872 
L 111.439636 48.349225 
L 116.410909 59.596667 
L 118.541455 63.715939 
L 121.686545 69.710979 
L 123.106909 73.001098 
L 124.425818 76.644541 
L 124.527273 76.95 
L 124.527273 76.95 
" clip-path="url(#p5c871bbb0b)" style="fill: none; stroke: #000000; stroke-width: 1.5; stroke-linecap: square"/>
   </g>
   <g id="patch_7">
    <path d="M 18 80.1 
L 18 10.8 
" style="fill: none; stroke: #000000; stroke-width: 0.8; stroke-linejoin: miter; stroke-linecap: square"/>
   </g>
   <g id="patch_8">
    <path d="M 129.6 80.1 
L 129.6 10.8 
" style="fill: none; stroke: #000000; stroke-width: 0.8; stroke-linejoin: miter; stroke-linecap: square"/>
   </g>
   <g id="patch_9">
    <path d="M 18 80.1 
L 129.6 80.1 
" style="fill: none; stroke: #000000; stroke-width: 0.8; stroke-linejoin: miter; stroke-linecap: square"/>
   </g>
   <g id="patch_10">
    <path d="M 18 10.8 
L 129.6 10.8 
" style="fill: none; stroke: #000000; stroke-width: 0.8; stroke-linejoin: miter; stroke-linecap: square"/>
   </g>
  </g>
 </g>
 <defs>
  <clipPath id="p5c871bbb0b">
   <rect x="18" y="10.8" width="111.6" height="69.3"/>
  </clipPath>
 </defs>
</svg>
