<?xml version="1.0" encoding="utf-8" standalone="no"?>
<!DOCTYPE svg PUBLIC "-//W3C//DTD SVG 1.1//EN"
  "http://www.w3.org/Graphics/SVG/1.1/DTD/svg11.dtd">
<svg xmlns:xlink="http://www.w3.org/1999/xlink" width="288pt" height="216pt" viewBox="0 0 288 216" xmlns="http://www.w3.org/2000/svg" version="1.1">
 <metadata>
  <rdf:RDF xmlns:dc="http://purl.org/dc/elements/1.1/" xmlns:cc="http://creativecommons.org/ns#" xmlns:rdf="http://www.w3.org/1999/02/22-rdf-syntax-ns#">
   <cc:Work>
    <dc:type rdf:resource="http://purl.org/dc/dcmitype/StillImage"/>
    <dc:date>2024-08-30T23:26:04.702251</dc:date>
    <dc:format>image/svg+xml</dc:format>
    <dc:creator>
     <cc:Agent>
      <dc:title>Matplotlib v3.7.3, https://matplotlib.org/</dc:title>
     </cc:Agent>
    </dc:creator>
   </cc:Work>
  </rdf:RDF>
 </metadata>
 <defs>
  <style type="text/css">*{stroke-linejoin: round; stroke-linecap: butt}</style>
 </defs>
 <g id="figure_1">
  <g id="patch_1">
   <path d="M 0 216 
L 288 216 
L 288 0 
L 0 0 
z
" style="fill: #ffffff"/>
  </g>
  <g id="axes_1">
   <g id="patch_2">
    <path d="M 50.474 184.808 
L 277.2 184.808 
L 277.2 10.8 
L 50.474 10.8 
z
" style="fill: #ffffff"/>
   </g>
   <g id="PathCollection_1">
    <defs>
     <path id="mbbb25e5613" d="M 0 3 
C 0.795609 3 1.55874 2.683901 2.12132 2.12132 
C 2.683901 1.55874 3 0.795609 3 0 
C 3 -0.795609 2.683901 -1.55874 2.12132 -2.12132 
C 1.55874 -2.683901 0.795609 -3 0 -3 
C -0.795609 -3 -1.55874 -2.683901 -2.12132 -2.12132 
C -2.683901 -1.55874 -3 -0.795609 -3 0 
C -3 0.795609 -2.683901 1.55874 -2.12132 2.12132 
C -1.55874 2.683901 -0.795609 3 0 3 
z
" style="stroke: #1f77b4"/>
    </defs>
    <g clip-path="url(#peb815f03e6)">
     <use xlink:href="#mbbb25e5613" x="60.779727" y="18.709455" style="fill: #1f77b4; stroke: #1f77b4"/>
     <use xlink:href="#mbbb25e5613" x="86.544045" y="125.988782" style="fill: #1f77b4; stroke: #1f77b4"/>
     <use xlink:href="#mbbb25e5613" x="112.308364" y="148.676607" style="fill: #1f77b4; stroke: #1f77b4"/>
     <use xlink:href="#mbbb25e5613" x="138.072682" y="161.197696" style="fill: #1f77b4; stroke: #1f77b4"/>
     <use xlink:href="#mbbb25e5613" x="163.837" y="171.171548" style="fill: #1f77b4; stroke: #1f77b4"/>
     <use xlink:href="#mbbb25e5613" x="189.601318" y="172.850287" style="fill: #1f77b4; stroke: #1f77b4"/>
     <use xlink:href="#mbbb25e5613" x="215.365636" y="172.457051" style="fill: #1f77b4; stroke: #1f77b4"/>
     <use xlink:href="#mbbb25e5613" x="241.129955" y="172.805248" style="fill: #1f77b4; stroke: #1f77b4"/>
     <use xlink:href="#mbbb25e5613" x="266.894273" y="173.218944" style="fill: #1f77b4; stroke: #1f77b4"/>
    </g>
   </g>
   <g id="PathCollection_2">
    <defs>
     <path id="m31d2159d43" d="M 0 3 
C 0.795609 3 1.55874 2.683901 2.12132 2.12132 
C 2.683901 1.55874 3 0.795609 3 0 
C 3 -0.795609 2.683901 -1.55874 2.12132 -2.12132 
C 1.55874 -2.683901 0.795609 -3 0 -3 
C -0.795609 -3 -1.55874 -2.683901 -2.12132 -2.12132 
C -2.683901 -1.55874 -3 -0.795609 -3 0 
C -3 0.795609 -2.683901 1.55874 -2.12132 2.12132 
C -1.55874 2.683901 -0.795609 3 0 3 
z
" style="stroke: #ff7f0e"/>
    </defs>
    <g clip-path="url(#peb815f03e6)">
     <use xlink:href="#m31d2159d43" x="60.779727" y="21.783039" style="fill: #ff7f0e; stroke: #ff7f0e"/>
     <use xlink:href="#m31d2159d43" x="86.544045" y="127.185088" style="fill: #ff7f0e; stroke: #ff7f0e"/>
     <use xlink:href="#m31d2159d43" x="112.308364" y="150.813927" style="fill: #ff7f0e; stroke: #ff7f0e"/>
     <use xlink:href="#m31d2159d43" x="138.072682" y="165.936414" style="fill: #ff7f0e; stroke: #ff7f0e"/>
     <use xlink:href="#m31d2159d43" x="163.837" y="172.245294" style="fill: #ff7f0e; stroke: #ff7f0e"/>
     <use xlink:href="#m31d2159d43" x="189.601318" y="171.768621" style="fill: #ff7f0e; stroke: #ff7f0e"/>
     <use xlink:href="#m31d2159d43" x="215.365636" y="172.587968" style="fill: #ff7f0e; stroke: #ff7f0e"/>
     <use xlink:href="#m31d2159d43" x="241.129955" y="173.582562" style="fill: #ff7f0e; stroke: #ff7f0e"/>
     <use xlink:href="#m31d2159d43" x="266.894273" y="173.819275" style="fill: #ff7f0e; stroke: #ff7f0e"/>
    </g>
   </g>
   <g id="PathCollection_3">
    <defs>
     <path id="mb4973ec19d" d="M 0 3 
C 0.795609 3 1.55874 2.683901 2.12132 2.12132 
C 2.683901 1.55874 3 0.795609 3 0 
C 3 -0.795609 2.683901 -1.55874 2.12132 -2.12132 
C 1.55874 -2.683901 0.795609 -3 0 -3 
C -0.795609 -3 -1.55874 -2.683901 -2.12132 -2.12132 
C -2.683901 -1.55874 -3 -0.795609 -3 0 
C -3 0.795609 -2.683901 1.55874 -2.12132 2.12132 
C -1.55874 2.683901 -0.795609 3 0 3 
z
" style="stroke: #2ca02c"/>
    </defs>
    <g clip-path="url(#peb815f03e6)">
     <use xlink:href="#mb4973ec19d" x="60.779727" y="27.624853" style="fill: #2ca02c; stroke: #2ca02c"/>
     <use xlink:href="#mb4973ec19d" x="86.544045" y="131.010474" style="fill: #2ca02c; stroke: #2ca02c"/>
     <use xlink:href="#mb4973ec19d" x="112.308364" y="150.050504" style="fill: #2ca02c; stroke: #2ca02c"/>
     <use xlink:href="#mb4973ec19d" x="138.072682" y="167.626911" style="fill: #2ca02c; stroke: #2ca02c"/>
     <use xlink:href="#mb4973ec19d" x="163.837" y="170.573886" style="fill: #2ca02c; stroke: #2ca02c"/>
     <use xlink:href="#mb4973ec19d" x="189.601318" y="171.09778" style="fill: #2ca02c; stroke: #2ca02c"/>
     <use xlink:href="#mb4973ec19d" x="215.365636" y="172.097081" style="fill: #2ca02c; stroke: #2ca02c"/>
     <use xlink:href="#mb4973ec19d" x="241.129955" y="172.764197" style="fill: #2ca02c; stroke: #2ca02c"/>
     <use xlink:href="#mb4973ec19d" x="266.894273" y="173.176996" style="fill: #2ca02c; stroke: #2ca02c"/>
    </g>
   </g>
   <g id="PathCollection_4">
    <defs>
     <path id="md9fbbbdced" d="M 0 3 
C 0.795609 3 1.55874 2.683901 2.12132 2.12132 
C 2.683901 1.55874 3 0.795609 3 0 
C 3 -0.795609 2.683901 -1.55874 2.12132 -2.12132 
C 1.55874 -2.683901 0.795609 -3 0 -3 
C -0.795609 -3 -1.55874 -2.683901 -2.12132 -2.12132 
C -2.683901 -1.55874 -3 -0.795609 -3 0 
C -3 0.795609 -2.683901 1.55874 -2.12132 2.12132 
C -1.55874 2.683901 -0.795609 3 0 3 
z
" style="stroke: #d62728"/>
    </defs>
    <g clip-path="url(#peb815f03e6)">
     <use xlink:href="#md9fbbbdced" x="60.779727" y="38.834842" style="fill: #d62728; stroke: #d62728"/>
     <use xlink:href="#md9fbbbdced" x="86.544045" y="101.28442" style="fill: #d62728; stroke: #d62728"/>
     <use xlink:href="#md9fbbbdced" x="112.308364" y="146.982725" style="fill: #d62728; stroke: #d62728"/>
     <use xlink:href="#md9fbbbdced" x="138.072682" y="161.799028" style="fill: #d62728; stroke: #d62728"/>
     <use xlink:href="#md9fbbbdced" x="163.837" y="169.144487" style="fill: #d62728; stroke: #d62728"/>
     <use xlink:href="#md9fbbbdced" x="189.601318" y="171.965586" style="fill: #d62728; stroke: #d62728"/>
     <use xlink:href="#md9fbbbdced" x="215.365636" y="172.889286" style="fill: #d62728; stroke: #d62728"/>
     <use xlink:href="#md9fbbbdced" x="241.129955" y="173.625059" style="fill: #d62728; stroke: #d62728"/>
     <use xlink:href="#md9fbbbdced" x="266.894273" y="173.884143" style="fill: #d62728; stroke: #d62728"/>
    </g>
   </g>
   <g id="PathCollection_5">
    <defs>
     <path id="m4d4553954f" d="M 0 3 
C 0.795609 3 1.55874 2.683901 2.12132 2.12132 
C 2.683901 1.55874 3 0.795609 3 0 
C 3 -0.795609 2.683901 -1.55874 2.12132 -2.12132 
C 1.55874 -2.683901 0.795609 -3 0 -3 
C -0.795609 -3 -1.55874 -2.683901 -2.12132 -2.12132 
C -2.683901 -1.55874 -3 -0.795609 -3 0 
C -3 0.795609 -2.683901 1.55874 -2.12132 2.12132 
C -1.55874 2.683901 -0.795609 3 0 3 
z
" style="stroke: #9467bd"/>
    </defs>
    <g clip-path="url(#peb815f03e6)">
     <use xlink:href="#m4d4553954f" x="60.779727" y="150.640108" style="fill: #9467bd; stroke: #9467bd"/>
     <use xlink:href="#m4d4553954f" x="86.544045" y="167.93654" style="fill: #9467bd; stroke: #9467bd"/>
     <use xlink:href="#m4d4553954f" x="112.308364" y="171.583601" style="fill: #9467bd; stroke: #9467bd"/>
     <use xlink:href="#m4d4553954f" x="138.072682" y="176.530967" style="fill: #9467bd; stroke: #9467bd"/>
     <use xlink:href="#m4d4553954f" x="163.837" y="176.684877" style="fill: #9467bd; stroke: #9467bd"/>
     <use xlink:href="#m4d4553954f" x="189.601318" y="176.898545" style="fill: #9467bd; stroke: #9467bd"/>
     <use xlink:href="#m4d4553954f" x="215.365636" y="174.648004" style="fill: #9467bd; stroke: #9467bd"/>
     <use xlink:href="#m4d4553954f" x="241.129955" y="174.388257" style="fill: #9467bd; stroke: #9467bd"/>
     <use xlink:href="#m4d4553954f" x="266.894273" y="174.089022" style="fill: #9467bd; stroke: #9467bd"/>
    </g>
   </g>
   <g id="matplotlib.axis_1">
    <g id="xtick_1">
     <g id="line2d_1">
      <defs>
       <path id="mfd0ccb67cb" d="M 0 0 
L 0 3.5 
" style="stroke: #000000; stroke-width: 0.8"/>
      </defs>
      <g>
       <use xlink:href="#mfd0ccb67cb" x="94.838303" y="184.808" style="stroke: #000000; stroke-width: 0.8"/>
      </g>
     </g>
     <g id="text_1">
      <!-- $\mathdefault{10^{1}}$ -->
      <g transform="translate(86.038303 199.406437) scale(0.1 -0.1)">
       <defs>
        <path id="DejaVuSans-31" d="M 794 531 
L 1825 531 
L 1825 4091 
L 703 3866 
L 703 4441 
L 1819 4666 
L 2450 4666 
L 2450 531 
L 3481 531 
L 3481 0 
L 794 0 
L 794 531 
z
" transform="scale(0.015625)"/>
        <path id="DejaVuSans-30" d="M 2034 4250 
Q 1547 4250 1301 3770 
Q 1056 3291 1056 2328 
Q 1056 1369 1301 889 
Q 1547 409 2034 409 
Q 2525 409 2770 889 
Q 3016 1369 3016 2328 
Q 3016 3291 2770 3770 
Q 2525 4250 2034 4250 
z
M 2034 4750 
Q 2819 4750 3233 4129 
Q 3647 3509 3647 2328 
Q 3647 1150 3233 529 
Q 2819 -91 2034 -91 
Q 1250 -91 836 529 
Q 422 1150 422 2328 
Q 422 3509 836 4129 
Q 1250 4750 2034 4750 
z
" transform="scale(0.015625)"/>
       </defs>
       <use xlink:href="#DejaVuSans-31" transform="translate(0 0.684375)"/>
       <use xlink:href="#DejaVuSans-30" transform="translate(63.623047 0.684375)"/>
       <use xlink:href="#DejaVuSans-31" transform="translate(128.203125 38.965625) scale(0.7)"/>
      </g>
     </g>
    </g>
    <g id="xtick_2">
     <g id="line2d_2">
      <g>
       <use xlink:href="#mfd0ccb67cb" x="180.425516" y="184.808" style="stroke: #000000; stroke-width: 0.8"/>
      </g>
     </g>
     <g id="text_2">
      <!-- $\mathdefault{10^{2}}$ -->
      <g transform="translate(171.625516 199.406437) scale(0.1 -0.1)">
       <defs>
        <path id="DejaVuSans-32" d="M 1228 531 
L 3431 531 
L 3431 0 
L 469 0 
L 469 531 
Q 828 903 1448 1529 
Q 2069 2156 2228 2338 
Q 2531 2678 2651 2914 
Q 2772 3150 2772 3378 
Q 2772 3750 2511 3984 
Q 2250 4219 1831 4219 
Q 1534 4219 1204 4116 
Q 875 4013 500 3803 
L 500 4441 
Q 881 4594 1212 4672 
Q 1544 4750 1819 4750 
Q 2544 4750 2975 4387 
Q 3406 4025 3406 3419 
Q 3406 3131 3298 2873 
Q 3191 2616 2906 2266 
Q 2828 2175 2409 1742 
Q 1991 1309 1228 531 
z
" transform="scale(0.015625)"/>
       </defs>
       <use xlink:href="#DejaVuSans-31" transform="translate(0 0.765625)"/>
       <use xlink:href="#DejaVuSans-30" transform="translate(63.623047 0.765625)"/>
       <use xlink:href="#DejaVuSans-32" transform="translate(128.203125 39.046875) scale(0.7)"/>
      </g>
     </g>
    </g>
    <g id="xtick_3">
     <g id="line2d_3">
      <g>
       <use xlink:href="#mfd0ccb67cb" x="266.012728" y="184.808" style="stroke: #000000; stroke-width: 0.8"/>
      </g>
     </g>
     <g id="text_3">
      <!-- $\mathdefault{10^{3}}$ -->
      <g transform="translate(257.212728 199.406437) scale(0.1 -0.1)">
       <defs>
        <path id="DejaVuSans-33" d="M 2597 2516 
Q 3050 2419 3304 2112 
Q 3559 1806 3559 1356 
Q 3559 666 3084 287 
Q 2609 -91 1734 -91 
Q 1441 -91 1130 -33 
Q 819 25 488 141 
L 488 750 
Q 750 597 1062 519 
Q 1375 441 1716 441 
Q 2309 441 2620 675 
Q 2931 909 2931 1356 
Q 2931 1769 2642 2001 
Q 2353 2234 1838 2234 
L 1294 2234 
L 1294 2753 
L 1863 2753 
Q 2328 2753 2575 2939 
Q 2822 3125 2822 3475 
Q 2822 3834 2567 4026 
Q 2313 4219 1838 4219 
Q 1578 4219 1281 4162 
Q 984 4106 628 3988 
L 628 4550 
Q 988 4650 1302 4700 
Q 1616 4750 1894 4750 
Q 2613 4750 3031 4423 
Q 3450 4097 3450 3541 
Q 3450 3153 3228 2886 
Q 3006 2619 2597 2516 
z
" transform="scale(0.015625)"/>
       </defs>
       <use xlink:href="#DejaVuSans-31" transform="translate(0 0.765625)"/>
       <use xlink:href="#DejaVuSans-30" transform="translate(63.623047 0.765625)"/>
       <use xlink:href="#DejaVuSans-33" transform="translate(128.203125 39.046875) scale(0.7)"/>
      </g>
     </g>
    </g>
    <g id="xtick_4">
     <g id="line2d_4">
      <defs>
       <path id="m95316dc04e" d="M 0 0 
L 0 2 
" style="stroke: #000000; stroke-width: 0.6"/>
      </defs>
      <g>
       <use xlink:href="#m95316dc04e" x="60.779727" y="184.808" style="stroke: #000000; stroke-width: 0.6"/>
      </g>
     </g>
    </g>
    <g id="xtick_5">
     <g id="line2d_5">
      <g>
       <use xlink:href="#m95316dc04e" x="69.073985" y="184.808" style="stroke: #000000; stroke-width: 0.6"/>
      </g>
     </g>
    </g>
    <g id="xtick_6">
     <g id="line2d_6">
      <g>
       <use xlink:href="#m95316dc04e" x="75.850887" y="184.808" style="stroke: #000000; stroke-width: 0.6"/>
      </g>
     </g>
    </g>
    <g id="xtick_7">
     <g id="line2d_7">
      <g>
       <use xlink:href="#m95316dc04e" x="81.580676" y="184.808" style="stroke: #000000; stroke-width: 0.6"/>
      </g>
     </g>
    </g>
    <g id="xtick_8">
     <g id="line2d_8">
      <g>
       <use xlink:href="#m95316dc04e" x="86.544045" y="184.808" style="stroke: #000000; stroke-width: 0.6"/>
      </g>
     </g>
    </g>
    <g id="xtick_9">
     <g id="line2d_9">
      <g>
       <use xlink:href="#m95316dc04e" x="90.922047" y="184.808" style="stroke: #000000; stroke-width: 0.6"/>
      </g>
     </g>
    </g>
    <g id="xtick_10">
     <g id="line2d_10">
      <g>
       <use xlink:href="#m95316dc04e" x="120.602622" y="184.808" style="stroke: #000000; stroke-width: 0.6"/>
      </g>
     </g>
    </g>
    <g id="xtick_11">
     <g id="line2d_11">
      <g>
       <use xlink:href="#m95316dc04e" x="135.673781" y="184.808" style="stroke: #000000; stroke-width: 0.6"/>
      </g>
     </g>
    </g>
    <g id="xtick_12">
     <g id="line2d_12">
      <g>
       <use xlink:href="#m95316dc04e" x="146.36694" y="184.808" style="stroke: #000000; stroke-width: 0.6"/>
      </g>
     </g>
    </g>
    <g id="xtick_13">
     <g id="line2d_13">
      <g>
       <use xlink:href="#m95316dc04e" x="154.661198" y="184.808" style="stroke: #000000; stroke-width: 0.6"/>
      </g>
     </g>
    </g>
    <g id="xtick_14">
     <g id="line2d_14">
      <g>
       <use xlink:href="#m95316dc04e" x="161.4381" y="184.808" style="stroke: #000000; stroke-width: 0.6"/>
      </g>
     </g>
    </g>
    <g id="xtick_15">
     <g id="line2d_15">
      <g>
       <use xlink:href="#m95316dc04e" x="167.167889" y="184.808" style="stroke: #000000; stroke-width: 0.6"/>
      </g>
     </g>
    </g>
    <g id="xtick_16">
     <g id="line2d_16">
      <g>
       <use xlink:href="#m95316dc04e" x="172.131258" y="184.808" style="stroke: #000000; stroke-width: 0.6"/>
      </g>
     </g>
    </g>
    <g id="xtick_17">
     <g id="line2d_17">
      <g>
       <use xlink:href="#m95316dc04e" x="176.50926" y="184.808" style="stroke: #000000; stroke-width: 0.6"/>
      </g>
     </g>
    </g>
    <g id="xtick_18">
     <g id="line2d_18">
      <g>
       <use xlink:href="#m95316dc04e" x="206.189834" y="184.808" style="stroke: #000000; stroke-width: 0.6"/>
      </g>
     </g>
    </g>
    <g id="xtick_19">
     <g id="line2d_19">
      <g>
       <use xlink:href="#m95316dc04e" x="221.260994" y="184.808" style="stroke: #000000; stroke-width: 0.6"/>
      </g>
     </g>
    </g>
    <g id="xtick_20">
     <g id="line2d_20">
      <g>
       <use xlink:href="#m95316dc04e" x="231.954152" y="184.808" style="stroke: #000000; stroke-width: 0.6"/>
      </g>
     </g>
    </g>
    <g id="xtick_21">
     <g id="line2d_21">
      <g>
       <use xlink:href="#m95316dc04e" x="240.24841" y="184.808" style="stroke: #000000; stroke-width: 0.6"/>
      </g>
     </g>
    </g>
    <g id="xtick_22">
     <g id="line2d_22">
      <g>
       <use xlink:href="#m95316dc04e" x="247.025312" y="184.808" style="stroke: #000000; stroke-width: 0.6"/>
      </g>
     </g>
    </g>
    <g id="xtick_23">
     <g id="line2d_23">
      <g>
       <use xlink:href="#m95316dc04e" x="252.755101" y="184.808" style="stroke: #000000; stroke-width: 0.6"/>
      </g>
     </g>
    </g>
    <g id="xtick_24">
     <g id="line2d_24">
      <g>
       <use xlink:href="#m95316dc04e" x="257.71847" y="184.808" style="stroke: #000000; stroke-width: 0.6"/>
      </g>
     </g>
    </g>
    <g id="xtick_25">
     <g id="line2d_25">
      <g>
       <use xlink:href="#m95316dc04e" x="262.096472" y="184.808" style="stroke: #000000; stroke-width: 0.6"/>
      </g>
     </g>
    </g>
   </g>
   <g id="matplotlib.axis_2">
    <g id="ytick_1">
     <g id="line2d_26">
      <defs>
       <path id="m90952cb6e0" d="M 0 0 
L -3.5 0 
" style="stroke: #000000; stroke-width: 0.8"/>
      </defs>
      <g>
       <use xlink:href="#m90952cb6e0" x="50.474" y="173.824433" style="stroke: #000000; stroke-width: 0.8"/>
      </g>
     </g>
     <g id="text_4">
      <!-- 0.0 -->
      <g transform="translate(27.570875 177.623652) scale(0.1 -0.1)">
       <defs>
        <path id="DejaVuSans-2e" d="M 684 794 
L 1344 794 
L 1344 0 
L 684 0 
L 684 794 
z
" transform="scale(0.015625)"/>
       </defs>
       <use xlink:href="#DejaVuSans-30"/>
       <use xlink:href="#DejaVuSans-2e" x="63.623047"/>
       <use xlink:href="#DejaVuSans-30" x="95.410156"/>
      </g>
     </g>
    </g>
    <g id="ytick_2">
     <g id="line2d_27">
      <g>
       <use xlink:href="#m90952cb6e0" x="50.474" y="130.359788" style="stroke: #000000; stroke-width: 0.8"/>
      </g>
     </g>
     <g id="text_5">
      <!-- 0.1 -->
      <g transform="translate(27.570875 134.159007) scale(0.1 -0.1)">
       <use xlink:href="#DejaVuSans-30"/>
       <use xlink:href="#DejaVuSans-2e" x="63.623047"/>
       <use xlink:href="#DejaVuSans-31" x="95.410156"/>
      </g>
     </g>
    </g>
    <g id="ytick_3">
     <g id="line2d_28">
      <g>
       <use xlink:href="#m90952cb6e0" x="50.474" y="86.895143" style="stroke: #000000; stroke-width: 0.8"/>
      </g>
     </g>
     <g id="text_6">
      <!-- 0.2 -->
      <g transform="translate(27.570875 90.694361) scale(0.1 -0.1)">
       <use xlink:href="#DejaVuSans-30"/>
       <use xlink:href="#DejaVuSans-2e" x="63.623047"/>
       <use xlink:href="#DejaVuSans-32" x="95.410156"/>
      </g>
     </g>
    </g>
    <g id="ytick_4">
     <g id="line2d_29">
      <g>
       <use xlink:href="#m90952cb6e0" x="50.474" y="43.430497" style="stroke: #000000; stroke-width: 0.8"/>
      </g>
     </g>
     <g id="text_7">
      <!-- 0.3 -->
      <g transform="translate(27.570875 47.229716) scale(0.1 -0.1)">
       <use xlink:href="#DejaVuSans-30"/>
       <use xlink:href="#DejaVuSans-2e" x="63.623047"/>
       <use xlink:href="#DejaVuSans-33" x="95.410156"/>
      </g>
     </g>
    </g>
    <g id="text_8">
     <!-- $[d(x_r)-d(x')]/N$ -->
     <g transform="translate(21.491187 136.254) rotate(-90) scale(0.1 -0.1)">
      <defs>
       <path id="DejaVuSans-5b" d="M 550 4863 
L 1875 4863 
L 1875 4416 
L 1125 4416 
L 1125 -397 
L 1875 -397 
L 1875 -844 
L 550 -844 
L 550 4863 
z
" transform="scale(0.015625)"/>
       <path id="DejaVuSans-Oblique-64" d="M 2675 525 
Q 2444 222 2128 65 
Q 1813 -91 1428 -91 
Q 903 -91 598 267 
Q 294 625 294 1247 
Q 294 1766 478 2236 
Q 663 2706 1013 3078 
Q 1244 3325 1534 3454 
Q 1825 3584 2144 3584 
Q 2481 3584 2739 3421 
Q 2997 3259 3138 2956 
L 3513 4863 
L 4091 4863 
L 3144 0 
L 2566 0 
L 2675 525 
z
M 891 1350 
Q 891 897 1095 644 
Q 1300 391 1663 391 
Q 1931 391 2161 520 
Q 2391 650 2566 903 
Q 2750 1166 2856 1509 
Q 2963 1853 2963 2188 
Q 2963 2622 2758 2865 
Q 2553 3109 2194 3109 
Q 1922 3109 1687 2981 
Q 1453 2853 1288 2613 
Q 1106 2353 998 2009 
Q 891 1666 891 1350 
z
" transform="scale(0.015625)"/>
       <path id="DejaVuSans-28" d="M 1984 4856 
Q 1566 4138 1362 3434 
Q 1159 2731 1159 2009 
Q 1159 1288 1364 580 
Q 1569 -128 1984 -844 
L 1484 -844 
Q 1016 -109 783 600 
Q 550 1309 550 2009 
Q 550 2706 781 3412 
Q 1013 4119 1484 4856 
L 1984 4856 
z
" transform="scale(0.015625)"/>
       <path id="DejaVuSans-Oblique-78" d="M 3841 3500 
L 2234 1784 
L 3219 0 
L 2559 0 
L 1819 1388 
L 531 0 
L -166 0 
L 1556 1844 
L 641 3500 
L 1300 3500 
L 1972 2234 
L 3144 3500 
L 3841 3500 
z
" transform="scale(0.015625)"/>
       <path id="DejaVuSans-Oblique-72" d="M 2853 2969 
Q 2766 3016 2653 3041 
Q 2541 3066 2413 3066 
Q 1953 3066 1609 2717 
Q 1266 2369 1153 1784 
L 800 0 
L 225 0 
L 909 3500 
L 1484 3500 
L 1375 2956 
Q 1603 3259 1920 3421 
Q 2238 3584 2597 3584 
Q 2691 3584 2781 3573 
Q 2872 3563 2963 3538 
L 2853 2969 
z
" transform="scale(0.015625)"/>
       <path id="DejaVuSans-29" d="M 513 4856 
L 1013 4856 
Q 1481 4119 1714 3412 
Q 1947 2706 1947 2009 
Q 1947 1309 1714 600 
Q 1481 -109 1013 -844 
L 513 -844 
Q 928 -128 1133 580 
Q 1338 1288 1338 2009 
Q 1338 2731 1133 3434 
Q 928 4138 513 4856 
z
" transform="scale(0.015625)"/>
       <path id="DejaVuSans-2212" d="M 678 2272 
L 4684 2272 
L 4684 1741 
L 678 1741 
L 678 2272 
z
" transform="scale(0.015625)"/>
       <path id="Cmsy10-30" d="M 225 347 
Q 184 359 184 409 
L 966 3316 
Q 1003 3434 1093 3506 
Q 1184 3578 1300 3578 
Q 1450 3578 1564 3479 
Q 1678 3381 1678 3231 
Q 1678 3166 1644 3084 
L 488 319 
Q 466 275 428 275 
Q 394 275 320 306 
Q 247 338 225 347 
z
" transform="scale(0.015625)"/>
       <path id="DejaVuSans-5d" d="M 1947 4863 
L 1947 -844 
L 622 -844 
L 622 -397 
L 1369 -397 
L 1369 4416 
L 622 4416 
L 622 4863 
L 1947 4863 
z
" transform="scale(0.015625)"/>
       <path id="DejaVuSans-2f" d="M 1625 4666 
L 2156 4666 
L 531 -594 
L 0 -594 
L 1625 4666 
z
" transform="scale(0.015625)"/>
       <path id="DejaVuSans-Oblique-4e" d="M 1081 4666 
L 1931 4666 
L 3219 666 
L 4000 4666 
L 4616 4666 
L 3706 0 
L 2853 0 
L 1569 4025 
L 788 0 
L 172 0 
L 1081 4666 
z
" transform="scale(0.015625)"/>
      </defs>
      <use xlink:href="#DejaVuSans-5b" transform="translate(0 0.584375)"/>
      <use xlink:href="#DejaVuSans-Oblique-64" transform="translate(39.013672 0.584375)"/>
      <use xlink:href="#DejaVuSans-28" transform="translate(102.490234 0.584375)"/>
      <use xlink:href="#DejaVuSans-Oblique-78" transform="translate(141.503906 0.584375)"/>
      <use xlink:href="#DejaVuSans-Oblique-72" transform="translate(200.683594 -15.821875) scale(0.7)"/>
      <use xlink:href="#DejaVuSans-29" transform="translate(232.197266 0.584375)"/>
      <use xlink:href="#DejaVuSans-2212" transform="translate(290.693359 0.584375)"/>
      <use xlink:href="#DejaVuSans-Oblique-64" transform="translate(393.964844 0.584375)"/>
      <use xlink:href="#DejaVuSans-28" transform="translate(457.441406 0.584375)"/>
      <use xlink:href="#DejaVuSans-Oblique-78" transform="translate(496.455078 0.584375)"/>
      <use xlink:href="#Cmsy10-30" transform="translate(560.100911 38.865625) scale(0.7)"/>
      <use xlink:href="#DejaVuSans-29" transform="translate(582.078451 0.584375)"/>
      <use xlink:href="#DejaVuSans-5d" transform="translate(621.092122 0.584375)"/>
      <use xlink:href="#DejaVuSans-2f" transform="translate(660.105794 0.584375)"/>
      <use xlink:href="#DejaVuSans-Oblique-4e" transform="translate(693.797201 0.584375)"/>
     </g>
    </g>
   </g>
   <g id="line2d_30">
    <path d="M 60.779727 19.656753 
L 86.544045 120.700184 
L 112.308364 154.633491 
L 138.072682 166.029278 
L 163.837 169.856313 
L 189.601318 171.141542 
L 215.365636 171.573159 
L 241.129955 171.718109 
L 266.894273 171.766787 
" clip-path="url(#peb815f03e6)" style="fill: none; stroke: #1f77b4; stroke-width: 1.5; stroke-linecap: square"/>
   </g>
   <g id="line2d_31">
    <path d="M 60.779727 22.429298 
L 86.544045 123.288247 
L 112.308364 156.400253 
L 138.072682 167.270929 
L 163.837 170.839774 
L 189.601318 172.011426 
L 215.365636 172.396079 
L 241.129955 172.522361 
L 266.894273 172.563819 
" clip-path="url(#peb815f03e6)" style="fill: none; stroke: #ff7f0e; stroke-width: 1.5; stroke-linecap: square"/>
   </g>
   <g id="line2d_32">
    <path d="M 60.779727 28.324354 
L 86.544045 126.505913 
L 112.308364 157.461056 
L 138.072682 167.220739 
L 163.837 170.297818 
L 189.601318 171.267973 
L 215.365636 171.573849 
L 241.129955 171.670287 
L 266.894273 171.700692 
" clip-path="url(#peb815f03e6)" style="fill: none; stroke: #2ca02c; stroke-width: 1.5; stroke-linecap: square"/>
   </g>
   <g id="line2d_33">
    <path d="M 60.779727 37.084906 
L 86.544045 107.766082 
L 112.308364 142.43209 
L 138.072682 159.434243 
L 163.837 167.773051 
L 189.601318 171.86287 
L 215.365636 173.868746 
L 241.129955 174.85254 
L 266.894273 175.335048 
" clip-path="url(#peb815f03e6)" style="fill: none; stroke: #d62728; stroke-width: 1.5; stroke-linecap: square"/>
   </g>
   <g id="line2d_34">
    <path d="M 60.779727 150.626808 
L 86.544045 167.7378 
L 112.308364 173.081954 
L 138.072682 174.751056 
L 163.837 175.272355 
L 189.601318 175.435168 
L 215.365636 175.486019 
L 241.129955 175.501901 
L 266.894273 175.506861 
" clip-path="url(#peb815f03e6)" style="fill: none; stroke: #9467bd; stroke-width: 1.5; stroke-linecap: square"/>
   </g>
   <g id="patch_3">
    <path d="M 50.474 184.808 
L 50.474 10.8 
" style="fill: none; stroke: #000000; stroke-width: 0.8; stroke-linejoin: miter; stroke-linecap: square"/>
   </g>
   <g id="patch_4">
    <path d="M 277.2 184.808 
L 277.2 10.8 
" style="fill: none; stroke: #000000; stroke-width: 0.8; stroke-linejoin: miter; stroke-linecap: square"/>
   </g>
   <g id="patch_5">
    <path d="M 50.474 184.808 
L 277.2 184.808 
" style="fill: none; stroke: #000000; stroke-width: 0.8; stroke-linejoin: miter; stroke-linecap: square"/>
   </g>
   <g id="patch_6">
    <path d="M 50.474 10.8 
L 277.2 10.8 
" style="fill: none; stroke: #000000; stroke-width: 0.8; stroke-linejoin: miter; stroke-linecap: square"/>
   </g>
   <g id="legend_1">
    <g id="line2d_35">
     <path d="M 109.68 22.48 
L 117.68 22.48 
L 125.68 22.48 
" style="fill: none; stroke: #1f77b4; stroke-width: 1.5; stroke-linecap: square"/>
    </g>
    <g id="text_9">
     <!-- $\sigma=0.025, R_{size}=0.05, y=3.1 N^{-1.6}$ -->
     <g transform="translate(132.08 25.28) scale(0.08 -0.08)">
      <defs>
       <path id="DejaVuSans-Oblique-3c3" d="M 2219 3044 
Q 1744 3044 1422 2700 
Q 1081 2341 969 1747 
Q 844 1119 1044 756 
Q 1241 397 1706 397 
Q 2166 397 2503 759 
Q 2844 1122 2966 1747 
Q 3075 2319 2881 2700 
Q 2700 3044 2219 3044 
z
M 2309 3503 
L 4219 3500 
L 4106 2925 
L 3463 2925 
Q 3706 2438 3575 1747 
Q 3406 888 2884 400 
Q 2359 -91 1609 -91 
Q 856 -91 525 400 
Q 194 888 363 1747 
Q 528 2609 1050 3097 
Q 1484 3503 2309 3503 
z
" transform="scale(0.015625)"/>
       <path id="DejaVuSans-3d" d="M 678 2906 
L 4684 2906 
L 4684 2381 
L 678 2381 
L 678 2906 
z
M 678 1631 
L 4684 1631 
L 4684 1100 
L 678 1100 
L 678 1631 
z
" transform="scale(0.015625)"/>
       <path id="DejaVuSans-35" d="M 691 4666 
L 3169 4666 
L 3169 4134 
L 1269 4134 
L 1269 2991 
Q 1406 3038 1543 3061 
Q 1681 3084 1819 3084 
Q 2600 3084 3056 2656 
Q 3513 2228 3513 1497 
Q 3513 744 3044 326 
Q 2575 -91 1722 -91 
Q 1428 -91 1123 -41 
Q 819 9 494 109 
L 494 744 
Q 775 591 1075 516 
Q 1375 441 1709 441 
Q 2250 441 2565 725 
Q 2881 1009 2881 1497 
Q 2881 1984 2565 2268 
Q 2250 2553 1709 2553 
Q 1456 2553 1204 2497 
Q 953 2441 691 2322 
L 691 4666 
z
" transform="scale(0.015625)"/>
       <path id="DejaVuSans-2c" d="M 750 794 
L 1409 794 
L 1409 256 
L 897 -744 
L 494 -744 
L 750 256 
L 750 794 
z
" transform="scale(0.015625)"/>
       <path id="DejaVuSans-Oblique-52" d="M 1613 4147 
L 1294 2491 
L 2106 2491 
Q 2584 2491 2879 2755 
Q 3175 3019 3175 3444 
Q 3175 3784 2976 3965 
Q 2778 4147 2406 4147 
L 1613 4147 
z
M 2772 2241 
Q 2972 2194 3105 2009 
Q 3238 1825 3413 1275 
L 3809 0 
L 3144 0 
L 2778 1197 
Q 2638 1659 2453 1815 
Q 2269 1972 1888 1972 
L 1191 1972 
L 806 0 
L 172 0 
L 1081 4666 
L 2503 4666 
Q 3150 4666 3495 4373 
Q 3841 4081 3841 3531 
Q 3841 3044 3547 2687 
Q 3253 2331 2772 2241 
z
" transform="scale(0.015625)"/>
       <path id="DejaVuSans-Oblique-73" d="M 3200 3397 
L 3091 2853 
Q 2863 2978 2609 3040 
Q 2356 3103 2088 3103 
Q 1634 3103 1373 2948 
Q 1113 2794 1113 2528 
Q 1113 2219 1719 2053 
Q 1766 2041 1788 2034 
L 1972 1978 
Q 2547 1819 2739 1644 
Q 2931 1469 2931 1166 
Q 2931 609 2489 259 
Q 2047 -91 1331 -91 
Q 1053 -91 747 -37 
Q 441 16 72 128 
L 184 722 
Q 500 559 806 475 
Q 1113 391 1394 391 
Q 1816 391 2080 572 
Q 2344 753 2344 1031 
Q 2344 1331 1650 1516 
L 1591 1531 
L 1394 1581 
Q 956 1697 753 1886 
Q 550 2075 550 2369 
Q 550 2928 970 3256 
Q 1391 3584 2113 3584 
Q 2397 3584 2667 3537 
Q 2938 3491 3200 3397 
z
" transform="scale(0.015625)"/>
       <path id="DejaVuSans-Oblique-69" d="M 1172 4863 
L 1747 4863 
L 1606 4134 
L 1031 4134 
L 1172 4863 
z
M 909 3500 
L 1484 3500 
L 800 0 
L 225 0 
L 909 3500 
z
" transform="scale(0.015625)"/>
       <path id="DejaVuSans-Oblique-7a" d="M 744 3500 
L 3475 3500 
L 3372 2975 
L 738 459 
L 2913 459 
L 2822 0 
L -19 0 
L 84 525 
L 2719 3041 
L 653 3041 
L 744 3500 
z
" transform="scale(0.015625)"/>
       <path id="DejaVuSans-Oblique-65" d="M 3078 2063 
Q 3088 2113 3092 2166 
Q 3097 2219 3097 2272 
Q 3097 2653 2873 2875 
Q 2650 3097 2266 3097 
Q 1838 3097 1509 2826 
Q 1181 2556 1013 2059 
L 3078 2063 
z
M 3578 1613 
L 903 1613 
Q 884 1494 878 1425 
Q 872 1356 872 1306 
Q 872 872 1139 634 
Q 1406 397 1894 397 
Q 2269 397 2603 481 
Q 2938 566 3225 728 
L 3116 159 
Q 2806 34 2476 -28 
Q 2147 -91 1806 -91 
Q 1078 -91 686 257 
Q 294 606 294 1247 
Q 294 1794 489 2264 
Q 684 2734 1063 3103 
Q 1306 3334 1642 3459 
Q 1978 3584 2356 3584 
Q 2950 3584 3301 3228 
Q 3653 2872 3653 2272 
Q 3653 2128 3634 1964 
Q 3616 1800 3578 1613 
z
" transform="scale(0.015625)"/>
       <path id="DejaVuSans-Oblique-79" d="M 1588 -325 
Q 1188 -997 936 -1164 
Q 684 -1331 294 -1331 
L -159 -1331 
L -63 -850 
L 269 -850 
Q 509 -850 678 -719 
Q 847 -588 1056 -206 
L 1234 128 
L 459 3500 
L 1069 3500 
L 1650 819 
L 3256 3500 
L 3859 3500 
L 1588 -325 
z
" transform="scale(0.015625)"/>
       <path id="DejaVuSans-36" d="M 2113 2584 
Q 1688 2584 1439 2293 
Q 1191 2003 1191 1497 
Q 1191 994 1439 701 
Q 1688 409 2113 409 
Q 2538 409 2786 701 
Q 3034 994 3034 1497 
Q 3034 2003 2786 2293 
Q 2538 2584 2113 2584 
z
M 3366 4563 
L 3366 3988 
Q 3128 4100 2886 4159 
Q 2644 4219 2406 4219 
Q 1781 4219 1451 3797 
Q 1122 3375 1075 2522 
Q 1259 2794 1537 2939 
Q 1816 3084 2150 3084 
Q 2853 3084 3261 2657 
Q 3669 2231 3669 1497 
Q 3669 778 3244 343 
Q 2819 -91 2113 -91 
Q 1303 -91 875 529 
Q 447 1150 447 2328 
Q 447 3434 972 4092 
Q 1497 4750 2381 4750 
Q 2619 4750 2861 4703 
Q 3103 4656 3366 4563 
z
" transform="scale(0.015625)"/>
      </defs>
      <use xlink:href="#DejaVuSans-Oblique-3c3" transform="translate(0 0.765625)"/>
      <use xlink:href="#DejaVuSans-3d" transform="translate(82.861328 0.765625)"/>
      <use xlink:href="#DejaVuSans-30" transform="translate(186.132812 0.765625)"/>
      <use xlink:href="#DejaVuSans-2e" transform="translate(249.755859 0.765625)"/>
      <use xlink:href="#DejaVuSans-30" transform="translate(281.542969 0.765625)"/>
      <use xlink:href="#DejaVuSans-32" transform="translate(345.166016 0.765625)"/>
      <use xlink:href="#DejaVuSans-35" transform="translate(408.789062 0.765625)"/>
      <use xlink:href="#DejaVuSans-2c" transform="translate(472.412109 0.765625)"/>
      <use xlink:href="#DejaVuSans-Oblique-52" transform="translate(523.681641 0.765625)"/>
      <use xlink:href="#DejaVuSans-Oblique-73" transform="translate(593.164062 -15.640625) scale(0.7)"/>
      <use xlink:href="#DejaVuSans-Oblique-69" transform="translate(629.633789 -15.640625) scale(0.7)"/>
      <use xlink:href="#DejaVuSans-Oblique-7a" transform="translate(649.082031 -15.640625) scale(0.7)"/>
      <use xlink:href="#DejaVuSans-Oblique-65" transform="translate(685.825195 -15.640625) scale(0.7)"/>
      <use xlink:href="#DejaVuSans-3d" transform="translate(751.108398 0.765625)"/>
      <use xlink:href="#DejaVuSans-30" transform="translate(854.379883 0.765625)"/>
      <use xlink:href="#DejaVuSans-2e" transform="translate(918.00293 0.765625)"/>
      <use xlink:href="#DejaVuSans-30" transform="translate(949.790039 0.765625)"/>
      <use xlink:href="#DejaVuSans-35" transform="translate(1013.413086 0.765625)"/>
      <use xlink:href="#DejaVuSans-2c" transform="translate(1077.036133 0.765625)"/>
      <use xlink:href="#DejaVuSans-Oblique-79" transform="translate(1128.305664 0.765625)"/>
      <use xlink:href="#DejaVuSans-3d" transform="translate(1206.967773 0.765625)"/>
      <use xlink:href="#DejaVuSans-33" transform="translate(1310.239258 0.765625)"/>
      <use xlink:href="#DejaVuSans-2e" transform="translate(1373.862305 0.765625)"/>
      <use xlink:href="#DejaVuSans-31" transform="translate(1405.649414 0.765625)"/>
      <use xlink:href="#DejaVuSans-Oblique-4e" transform="translate(1469.272461 0.765625)"/>
      <use xlink:href="#DejaVuSans-2212" transform="translate(1551.093919 39.046875) scale(0.7)"/>
      <use xlink:href="#DejaVuSans-31" transform="translate(1609.746263 39.046875) scale(0.7)"/>
      <use xlink:href="#DejaVuSans-2e" transform="translate(1654.282396 39.046875) scale(0.7)"/>
      <use xlink:href="#DejaVuSans-36" transform="translate(1676.533372 39.046875) scale(0.7)"/>
     </g>
    </g>
    <g id="line2d_36">
     <path d="M 109.68 35.44 
L 117.68 35.44 
L 125.68 35.44 
" style="fill: none; stroke: #ff7f0e; stroke-width: 1.5; stroke-linecap: square"/>
    </g>
    <g id="text_10">
     <!-- $\sigma=0.05, R_{size}=0.05, y=3.2 N^{-1.6}$ -->
     <g transform="translate(132.08 38.24) scale(0.08 -0.08)">
      <use xlink:href="#DejaVuSans-Oblique-3c3" transform="translate(0 0.765625)"/>
      <use xlink:href="#DejaVuSans-3d" transform="translate(82.861328 0.765625)"/>
      <use xlink:href="#DejaVuSans-30" transform="translate(186.132812 0.765625)"/>
      <use xlink:href="#DejaVuSans-2e" transform="translate(249.755859 0.765625)"/>
      <use xlink:href="#DejaVuSans-30" transform="translate(281.542969 0.765625)"/>
      <use xlink:href="#DejaVuSans-35" transform="translate(345.166016 0.765625)"/>
      <use xlink:href="#DejaVuSans-2c" transform="translate(408.789062 0.765625)"/>
      <use xlink:href="#DejaVuSans-Oblique-52" transform="translate(460.058594 0.765625)"/>
      <use xlink:href="#DejaVuSans-Oblique-73" transform="translate(529.541016 -15.640625) scale(0.7)"/>
      <use xlink:href="#DejaVuSans-Oblique-69" transform="translate(566.010742 -15.640625) scale(0.7)"/>
      <use xlink:href="#DejaVuSans-Oblique-7a" transform="translate(585.458984 -15.640625) scale(0.7)"/>
      <use xlink:href="#DejaVuSans-Oblique-65" transform="translate(622.202148 -15.640625) scale(0.7)"/>
      <use xlink:href="#DejaVuSans-3d" transform="translate(687.485352 0.765625)"/>
      <use xlink:href="#DejaVuSans-30" transform="translate(790.756836 0.765625)"/>
      <use xlink:href="#DejaVuSans-2e" transform="translate(854.379883 0.765625)"/>
      <use xlink:href="#DejaVuSans-30" transform="translate(886.166992 0.765625)"/>
      <use xlink:href="#DejaVuSans-35" transform="translate(949.790039 0.765625)"/>
      <use xlink:href="#DejaVuSans-2c" transform="translate(1013.413086 0.765625)"/>
      <use xlink:href="#DejaVuSans-Oblique-79" transform="translate(1064.682617 0.765625)"/>
      <use xlink:href="#DejaVuSans-3d" transform="translate(1143.344727 0.765625)"/>
      <use xlink:href="#DejaVuSans-33" transform="translate(1246.616211 0.765625)"/>
      <use xlink:href="#DejaVuSans-2e" transform="translate(1310.239258 0.765625)"/>
      <use xlink:href="#DejaVuSans-32" transform="translate(1336.526367 0.765625)"/>
      <use xlink:href="#DejaVuSans-Oblique-4e" transform="translate(1400.149414 0.765625)"/>
      <use xlink:href="#DejaVuSans-2212" transform="translate(1481.970872 39.046875) scale(0.7)"/>
      <use xlink:href="#DejaVuSans-31" transform="translate(1540.623216 39.046875) scale(0.7)"/>
      <use xlink:href="#DejaVuSans-2e" transform="translate(1585.159349 39.046875) scale(0.7)"/>
      <use xlink:href="#DejaVuSans-36" transform="translate(1607.410326 39.046875) scale(0.7)"/>
     </g>
    </g>
    <g id="line2d_37">
     <path d="M 109.68 48.32 
L 117.68 48.32 
L 125.68 48.32 
" style="fill: none; stroke: #2ca02c; stroke-width: 1.5; stroke-linecap: square"/>
    </g>
    <g id="text_11">
     <!-- $\sigma=0.1, R_{size}=0.05, y=3.3 N^{-1.7}$ -->
     <g transform="translate(132.08 51.12) scale(0.08 -0.08)">
      <defs>
       <path id="DejaVuSans-37" d="M 525 4666 
L 3525 4666 
L 3525 4397 
L 1831 0 
L 1172 0 
L 2766 4134 
L 525 4134 
L 525 4666 
z
" transform="scale(0.015625)"/>
      </defs>
      <use xlink:href="#DejaVuSans-Oblique-3c3" transform="translate(0 0.684375)"/>
      <use xlink:href="#DejaVuSans-3d" transform="translate(82.861328 0.684375)"/>
      <use xlink:href="#DejaVuSans-30" transform="translate(186.132812 0.684375)"/>
      <use xlink:href="#DejaVuSans-2e" transform="translate(249.755859 0.684375)"/>
      <use xlink:href="#DejaVuSans-31" transform="translate(281.542969 0.684375)"/>
      <use xlink:href="#DejaVuSans-2c" transform="translate(345.166016 0.684375)"/>
      <use xlink:href="#DejaVuSans-Oblique-52" transform="translate(396.435547 0.684375)"/>
      <use xlink:href="#DejaVuSans-Oblique-73" transform="translate(465.917969 -15.721875) scale(0.7)"/>
      <use xlink:href="#DejaVuSans-Oblique-69" transform="translate(502.387695 -15.721875) scale(0.7)"/>
      <use xlink:href="#DejaVuSans-Oblique-7a" transform="translate(521.835938 -15.721875) scale(0.7)"/>
      <use xlink:href="#DejaVuSans-Oblique-65" transform="translate(558.579102 -15.721875) scale(0.7)"/>
      <use xlink:href="#DejaVuSans-3d" transform="translate(623.862305 0.684375)"/>
      <use xlink:href="#DejaVuSans-30" transform="translate(727.133789 0.684375)"/>
      <use xlink:href="#DejaVuSans-2e" transform="translate(790.756836 0.684375)"/>
      <use xlink:href="#DejaVuSans-30" transform="translate(822.543945 0.684375)"/>
      <use xlink:href="#DejaVuSans-35" transform="translate(886.166992 0.684375)"/>
      <use xlink:href="#DejaVuSans-2c" transform="translate(949.790039 0.684375)"/>
      <use xlink:href="#DejaVuSans-Oblique-79" transform="translate(1001.05957 0.684375)"/>
      <use xlink:href="#DejaVuSans-3d" transform="translate(1079.72168 0.684375)"/>
      <use xlink:href="#DejaVuSans-33" transform="translate(1182.993164 0.684375)"/>
      <use xlink:href="#DejaVuSans-2e" transform="translate(1246.616211 0.684375)"/>
      <use xlink:href="#DejaVuSans-33" transform="translate(1278.40332 0.684375)"/>
      <use xlink:href="#DejaVuSans-Oblique-4e" transform="translate(1342.026367 0.684375)"/>
      <use xlink:href="#DejaVuSans-2212" transform="translate(1423.847826 38.965625) scale(0.7)"/>
      <use xlink:href="#DejaVuSans-31" transform="translate(1482.500169 38.965625) scale(0.7)"/>
      <use xlink:href="#DejaVuSans-2e" transform="translate(1527.036302 38.965625) scale(0.7)"/>
      <use xlink:href="#DejaVuSans-37" transform="translate(1543.862279 38.965625) scale(0.7)"/>
     </g>
    </g>
    <g id="line2d_38">
     <path d="M 109.68 61.28 
L 117.68 61.28 
L 125.68 61.28 
" style="fill: none; stroke: #d62728; stroke-width: 1.5; stroke-linecap: square"/>
    </g>
    <g id="text_12">
     <!-- $\sigma=0.05, R_{size}=0.025, y=1.3 N^{-1.0}$ -->
     <g transform="translate(132.08 64.08) scale(0.08 -0.08)">
      <use xlink:href="#DejaVuSans-Oblique-3c3" transform="translate(0 0.765625)"/>
      <use xlink:href="#DejaVuSans-3d" transform="translate(82.861328 0.765625)"/>
      <use xlink:href="#DejaVuSans-30" transform="translate(186.132812 0.765625)"/>
      <use xlink:href="#DejaVuSans-2e" transform="translate(249.755859 0.765625)"/>
      <use xlink:href="#DejaVuSans-30" transform="translate(281.542969 0.765625)"/>
      <use xlink:href="#DejaVuSans-35" transform="translate(345.166016 0.765625)"/>
      <use xlink:href="#DejaVuSans-2c" transform="translate(408.789062 0.765625)"/>
      <use xlink:href="#DejaVuSans-Oblique-52" transform="translate(460.058594 0.765625)"/>
      <use xlink:href="#DejaVuSans-Oblique-73" transform="translate(529.541016 -15.640625) scale(0.7)"/>
      <use xlink:href="#DejaVuSans-Oblique-69" transform="translate(566.010742 -15.640625) scale(0.7)"/>
      <use xlink:href="#DejaVuSans-Oblique-7a" transform="translate(585.458984 -15.640625) scale(0.7)"/>
      <use xlink:href="#DejaVuSans-Oblique-65" transform="translate(622.202148 -15.640625) scale(0.7)"/>
      <use xlink:href="#DejaVuSans-3d" transform="translate(687.485352 0.765625)"/>
      <use xlink:href="#DejaVuSans-30" transform="translate(790.756836 0.765625)"/>
      <use xlink:href="#DejaVuSans-2e" transform="translate(854.379883 0.765625)"/>
      <use xlink:href="#DejaVuSans-30" transform="translate(886.166992 0.765625)"/>
      <use xlink:href="#DejaVuSans-32" transform="translate(949.790039 0.765625)"/>
      <use xlink:href="#DejaVuSans-35" transform="translate(1013.413086 0.765625)"/>
      <use xlink:href="#DejaVuSans-2c" transform="translate(1077.036133 0.765625)"/>
      <use xlink:href="#DejaVuSans-Oblique-79" transform="translate(1128.305664 0.765625)"/>
      <use xlink:href="#DejaVuSans-3d" transform="translate(1206.967773 0.765625)"/>
      <use xlink:href="#DejaVuSans-31" transform="translate(1310.239258 0.765625)"/>
      <use xlink:href="#DejaVuSans-2e" transform="translate(1373.862305 0.765625)"/>
      <use xlink:href="#DejaVuSans-33" transform="translate(1405.649414 0.765625)"/>
      <use xlink:href="#DejaVuSans-Oblique-4e" transform="translate(1469.272461 0.765625)"/>
      <use xlink:href="#DejaVuSans-2212" transform="translate(1551.093919 39.046875) scale(0.7)"/>
      <use xlink:href="#DejaVuSans-31" transform="translate(1609.746263 39.046875) scale(0.7)"/>
      <use xlink:href="#DejaVuSans-2e" transform="translate(1654.282396 39.046875) scale(0.7)"/>
      <use xlink:href="#DejaVuSans-30" transform="translate(1676.533372 39.046875) scale(0.7)"/>
     </g>
    </g>
    <g id="line2d_39">
     <path d="M 109.68 74.16 
L 117.68 74.16 
L 125.68 74.16 
" style="fill: none; stroke: #9467bd; stroke-width: 1.5; stroke-linecap: square"/>
    </g>
    <g id="text_13">
     <!-- $\sigma=0.05, R_{size}=0.1, y=0.6 N^{-1.7}$ -->
     <g transform="translate(132.08 76.96) scale(0.08 -0.08)">
      <use xlink:href="#DejaVuSans-Oblique-3c3" transform="translate(0 0.684375)"/>
      <use xlink:href="#DejaVuSans-3d" transform="translate(82.861328 0.684375)"/>
      <use xlink:href="#DejaVuSans-30" transform="translate(186.132812 0.684375)"/>
      <use xlink:href="#DejaVuSans-2e" transform="translate(249.755859 0.684375)"/>
      <use xlink:href="#DejaVuSans-30" transform="translate(281.542969 0.684375)"/>
      <use xlink:href="#DejaVuSans-35" transform="translate(345.166016 0.684375)"/>
      <use xlink:href="#DejaVuSans-2c" transform="translate(408.789062 0.684375)"/>
      <use xlink:href="#DejaVuSans-Oblique-52" transform="translate(460.058594 0.684375)"/>
      <use xlink:href="#DejaVuSans-Oblique-73" transform="translate(529.541016 -15.721875) scale(0.7)"/>
      <use xlink:href="#DejaVuSans-Oblique-69" transform="translate(566.010742 -15.721875) scale(0.7)"/>
      <use xlink:href="#DejaVuSans-Oblique-7a" transform="translate(585.458984 -15.721875) scale(0.7)"/>
      <use xlink:href="#DejaVuSans-Oblique-65" transform="translate(622.202148 -15.721875) scale(0.7)"/>
      <use xlink:href="#DejaVuSans-3d" transform="translate(687.485352 0.684375)"/>
      <use xlink:href="#DejaVuSans-30" transform="translate(790.756836 0.684375)"/>
      <use xlink:href="#DejaVuSans-2e" transform="translate(854.379883 0.684375)"/>
      <use xlink:href="#DejaVuSans-31" transform="translate(886.166992 0.684375)"/>
      <use xlink:href="#DejaVuSans-2c" transform="translate(949.790039 0.684375)"/>
      <use xlink:href="#DejaVuSans-Oblique-79" transform="translate(1001.05957 0.684375)"/>
      <use xlink:href="#DejaVuSans-3d" transform="translate(1079.72168 0.684375)"/>
      <use xlink:href="#DejaVuSans-30" transform="translate(1182.993164 0.684375)"/>
      <use xlink:href="#DejaVuSans-2e" transform="translate(1246.616211 0.684375)"/>
      <use xlink:href="#DejaVuSans-36" transform="translate(1278.40332 0.684375)"/>
      <use xlink:href="#DejaVuSans-Oblique-4e" transform="translate(1342.026367 0.684375)"/>
      <use xlink:href="#DejaVuSans-2212" transform="translate(1423.847826 38.965625) scale(0.7)"/>
      <use xlink:href="#DejaVuSans-31" transform="translate(1482.500169 38.965625) scale(0.7)"/>
      <use xlink:href="#DejaVuSans-2e" transform="translate(1527.036302 38.965625) scale(0.7)"/>
      <use xlink:href="#DejaVuSans-37" transform="translate(1543.862279 38.965625) scale(0.7)"/>
     </g>
    </g>
   </g>
  </g>
 </g>
 <defs>
  <clipPath id="peb815f03e6">
   <rect x="50.474" y="10.8" width="226.726" height="174.008"/>
  </clipPath>
 </defs>
</svg>
